STARTFONT 2.3
FONT -FontForge-Source Code Pro-Book-R-Normal--32-320-72-72-M-190-ISO10646-1
SIZE 32 72 72  4
FONTBOUNDINGBOX 35 55 -9 -15
COMMENT "Generated by fontforge, http://fontforge.sourceforge.net"
COMMENT "Copyright 2010, 2012 Adobe Systems Incorporated (http://www.adobe.com/), with Reserved Font Name `Source'."
STARTPROPERTIES 42
FOUNDRY "FontForge"
FAMILY_NAME "Source Code Pro"
WEIGHT_NAME "Book"
SLANT "R"
SETWIDTH_NAME "Normal"
ADD_STYLE_NAME ""
PIXEL_SIZE 32
POINT_SIZE 320
RESOLUTION_X 72
RESOLUTION_Y 72
SPACING "M"
AVERAGE_WIDTH 190
CHARSET_REGISTRY "ISO10646"
CHARSET_ENCODING "1"
FONTNAME_REGISTRY ""
CHARSET_COLLECTIONS "ASCII ISOLatin1Encoding ISO8859-2 ISO8859-9 ISO8859-4 ISO10646-1"
BITS_PER_PIXEL 4
FONT_NAME "SourceCodePro-It"
FACE_NAME "Source Code Pro Italic"
COPYRIGHT "Copyright 2010, 2012 Adobe Systems Incorporated (http://www.adobe.com/), with Reserved Font Name `Source'."
FONT_VERSION "1.050;PS 1.000;hotconv 16.6.51;makeotf.lib2.5.65220"
FONT_ASCENT 24
FONT_DESCENT 8
UNDERLINE_POSITION -3
UNDERLINE_THICKNESS 2
X_HEIGHT 15
CAP_HEIGHT 20
RAW_ASCENT 750
RAW_DESCENT 250
ITALIC_ANGLE 5056
NORM_SPACE 19
RELATIVE_WEIGHT 40
RELATIVE_SETWIDTH 50
SUPERSCRIPT_X 2
SUPERSCRIPT_Y 11
SUPERSCRIPT_SIZE 19
SUBSCRIPT_X 0
SUBSCRIPT_Y 2
SUBSCRIPT_SIZE 19
FIGURE_WIDTH 19
AVG_LOWERCASE_WIDTH 190
AVG_UPPERCASE_WIDTH 190
ENDPROPERTIES
CHARS 1269
STARTCHAR space
ENCODING 32
SWIDTH 600 0
DWIDTH 19 0
BBX 1 1 0 0
BITMAP
00
ENDCHAR
STARTCHAR exclam
ENCODING 33
SWIDTH 600 0
DWIDTH 19 0
BBX 9 21 5 0
BITMAP
000007FF20
00000AFD00
00000DFA00
00000FF600
00003FF300
00006FE000
00008FA000
0000BF6000
0000EF2000
0001FD0000
0004F90000
0007F60000
0009F20000
0000000000
0000000000
0000000000
02BEA00000
0BFFF40000
1FFFF40000
1FFFE10000
07EC300000
ENDCHAR
STARTCHAR quotedbl
ENCODING 34
SWIDTH 600 0
DWIDTH 19 0
BBX 13 11 5 11
BITMAP
04FFF1000EFF50
07FFC0002FFF20
09FF90004FFE00
0CFF60007FFB00
0EFF20009FF700
0FFC0000AFF200
1FF80000BFD000
3FF30000DF8000
4FE00000EF4000
5F900000FE0000
7F500002FA0000
ENDCHAR
STARTCHAR numbersign
ENCODING 35
SWIDTH 600 0
DWIDTH 19 0
BBX 16 20 2 0
BITMAP
0000003F70001F90
0000009F10006F30
000000EA0000CD00
000005F50002F700
00000AE00008F200
00BFFFFFFFFFFFF7
00EFFFFFFFFFFFF3
00008F10005F4000
0000DC0000AE0000
0002F70000EA0000
0007F20004F50000
000CD00009F10000
9FFFFFFFFFFFF900
DFFFFFFFFFFFF500
009E10006F300000
00EA0000BD000000
05F50001F8000000
0AE00006F3000000
1EA0000BD0000000
5F40002F80000000
ENDCHAR
STARTCHAR dollar
ENCODING 36
SWIDTH 600 0
DWIDTH 19 0
BBX 16 28 1 -4
BITMAP
0000000000CF0000
0000000000FC0000
0000000003F90000
0000000006F50000
0000017CEFFB6000
00002DFFFFFFFC30
0000CFE62026DFE3
0003FF4000001BE5
0006FE0000000030
0006FF1000000000
0004FF9000000000
0000CFFA10000000
00002CFFE7000000
0000019FFFD50000
00000003BFFFA100
0000000004DFFA00
00000000000BFF30
000000000001FF60
017000000000FF50
1DF900000006FF20
07FFD731139FFB00
005EFFFFFFFFC100
00018CFFFFC60000
000000FC20000000
000003F900000000
000006F600000000
000009F300000000
00000CF000000000
ENDCHAR
STARTCHAR percent
ENCODING 37
SWIDTH 600 0
DWIDTH 19 0
BBX 21 21 -1 0
BITMAP
0002AEFC50000000000000
005FFFFFF6000000003B10
03FF8118FD00000003EF50
0BF70000EF0000003EE500
1FD00000DF000003EE3000
3FA00001FD00003EC20000
3FB0000AF80004EB100000
1FF612AFE1001E90000000
09FFFFFE30000200000000
007DFD8100000000000000
0000000000000000000000
0000000000006CEEA20000
00000012001BFFFFFD1000
000002DA00AFD403DF6000
00003EC103FE10006F8000
0005EC1008F600005F8000
007FC1000AF300008F6000
09FB10000AF40002FE1000
9FB1000008FC215EF80000
3A10000002EFFFFFA00000
00000000002BEEB5000000
ENDCHAR
STARTCHAR ampersand
ENCODING 38
SWIDTH 600 0
DWIDTH 19 0
BBX 19 21 0 0
BITMAP
000000017DFD91000000
0000002DFFFFFA000000
000000CFD415FF100000
000005FE2000DF200000
00000AF90001EF000000
00000CF60007F9000000
00000BF6006FE1000000
00000AF81AFD30000000
000007FDEFC100000000
000005FFE70000005620
00008FFF80000004FE10
001CFEAFE100000BF800
01CFD20DF900004FE100
09FE1005FF4000CF6000
1FF50000BFE208FB0000
5FF100002EFD6FE20000
6FF2000004FFFF400000
4FF6000000AFFD400000
0DFE72027DFEEFFA3000
03EFFFFFFFB22CFFC000
0029DFED9300005C4000
ENDCHAR
STARTCHAR quotesingle
ENCODING 39
SWIDTH 600 0
DWIDTH 19 0
BBX 5 11 9 11
BITMAP
09FFA0
0CFF70
0FFF40
2FFF10
4FFC00
5FF700
7FF300
8FD000
9F8000
BF4000
CE0000
ENDCHAR
STARTCHAR parenleft
ENCODING 40
SWIDTH 600 0
DWIDTH 19 0
BBX 12 29 6 -6
BITMAP
0000000003B3
000000007FFA
00000009FF80
000000BFE400
00000AFE3000
00008FE30000
0004FF400000
001DF9000000
007FD1000000
01EF60000000
06FD00000000
0BF800000000
1FF300000000
4FE000000000
7FC000000000
9FA000000000
AF9000000000
AF8000000000
AF8000000000
9FA000000000
7FC000000000
4FF100000000
1EF500000000
0AFB00000000
03FF30000000
00AFC0000000
002EF9000000
0005FF600000
000069000000
ENDCHAR
STARTCHAR parenright
ENCODING 41
SWIDTH 600 0
DWIDTH 19 0
BBX 12 29 1 -6
BITMAP
000001A60000
000005FF4000
0000008FE200
0000000CF900
00000003FF30
00000000AF90
000000005FE0
000000000FF4
000000000CF7
000000000AF9
0000000008FA
0000000008FA
0000000008FA
0000000009F9
000000000BF7
000000000EF4
000000003FF1
000000007FC0
00000000DF70
00000005FF10
0000000CF900
0000007FE100
000003EF6000
00002EFA0000
0002DFC10000
003DFD100000
06EFB1000000
8FF900000000
3D5000000000
ENDCHAR
STARTCHAR asterisk
ENCODING 42
SWIDTH 600 0
DWIDTH 19 0
BBX 14 15 3 3
BITMAP
0000000A900000
0000001F900000
0000004F700000
0000008F500000
382000CF300155
8FFC73FF36BFFA
04CFFFFFFFFB40
0005DFFFFA3000
0000AFFF800000
0008FE9FE00000
005FE30CF60000
03FE3003FD0000
2EE300009F5000
2C3000001E7000
00000000010000
ENDCHAR
STARTCHAR plus
ENCODING 43
SWIDTH 600 0
DWIDTH 19 0
BBX 15 16 2 3
BITMAP
0000002420000000
0000006F90000000
0000006F90000000
0000006F90000000
0000006F90000000
0000006F90000000
0000006F90000000
3FFFFFFFFFFFFF60
3FFFFFFFFFFFFF60
0000006F90000000
0000006F90000000
0000006F90000000
0000006F90000000
0000006F90000000
0000006F90000000
0000002420000000
ENDCHAR
STARTCHAR comma
ENCODING 44
SWIDTH 600 0
DWIDTH 19 0
BBX 8 11 3 -6
BITMAP
0001AEC2
000AFFFA
000FFFFD
000EFFFD
0006EFFA
00000DF5
00004FD0
0001DF30
003DE400
39FB2000
BA400000
ENDCHAR
STARTCHAR hyphen
ENCODING 45
SWIDTH 600 0
DWIDTH 19 0
BBX 15 2 2 10
BITMAP
3FFFFFFFFFFFFF60
3FFFFFFFFFFFFF60
ENDCHAR
STARTCHAR period
ENCODING 46
SWIDTH 600 0
DWIDTH 19 0
BBX 6 5 5 0
BITMAP
02BEB1
1DFFF6
4FFFF7
4FFFE2
09EC40
ENDCHAR
STARTCHAR slash
ENCODING 47
SWIDTH 600 0
DWIDTH 19 0
BBX 19 28 0 -5
BITMAP
0000000000000000DF60
0000000000000007FD00
000000000000001EF400
000000000000009FB000
00000000000003FF2000
0000000000000BF90000
0000000000005FE10000
000000000000DF600000
000000000007FD000000
00000000001EF4000000
00000000009FB0000000
0000000003FF20000000
000000000BF800000000
000000005FE100000000
00000000DF6000000000
00000007FC0000000000
0000001EF40000000000
0000009FA00000000000
000003FF200000000000
00000BF8000000000000
00005FE1000000000000
0000DF60000000000000
0007FC00000000000000
001EF400000000000000
009FA000000000000000
03FF2000000000000000
0BF80000000000000000
5FE10000000000000000
ENDCHAR
STARTCHAR zero
ENCODING 48
SWIDTH 600 0
DWIDTH 19 0
BBX 17 20 1 0
BITMAP
00000018CEFD810000
000005EFFFFFFE3000
00007FFB4114DFE100
0004FF8000001EF900
001EF900000007FE00
008FD100000002FF30
00EF7000000000FF50
04FF1000000000EF50
09FB0004DD2000FF50
0CF7000EFF7001FF30
0EF5001FFF5004FF10
1FF4000AE90007FD00
1FF3000000000CF900
1FF4000000003FF300
0EF600000000AFC000
0BFB00000005FF4000
05FF4000004EF80000
00CFE61139FFB00000
001CFFFFFFF8000000
00007CEFD930000000
ENDCHAR
STARTCHAR one
ENCODING 49
SWIDTH 600 0
DWIDTH 19 0
BBX 15 20 1 0
BITMAP
0000000016DF9000
000005ADFFFF6000
00000CFFFFFF3000
0000011118FE0000
000000000AFC0000
000000000DF80000
000000001FF50000
000000004FF20000
000000007FE00000
00000000BFB00000
00000000EF800000
00000002FF500000
00000005FF200000
00000008FE000000
0000000BFB000000
0000000EF7000000
0000002FF4000000
0000005FF1000000
6FFFFFFFFFFFFF50
AFFFFFFFFFFFFF30
ENDCHAR
STARTCHAR two
ENCODING 50
SWIDTH 600 0
DWIDTH 19 0
BBX 15 20 1 0
BITMAP
0000005BDFEB6000
00004DFFFFFFFA00
0006FFB5113AFF60
001EF6000000CFC0
0003500000008FE0
0000000000007FE0
0000000000009FC0
000000000001EF60
000000000008FD10
00000000004FF400
0000000003EF8000
000000003EF90000
00000004EFA00000
0000005FF9000000
000007FF70000000
0001AFF500000000
002CFE3000000000
04EFC20000000000
5FFFEEFFFFFFFFC0
BFFFFFFFFFFFFF90
ENDCHAR
STARTCHAR three
ENCODING 51
SWIDTH 600 0
DWIDTH 19 0
BBX 16 20 1 0
BITMAP
0000006ADFEC8200
00005DFFFFFFFE50
0005FFB51027EFE1
0000A50000006FF6
0000000000001FF7
0000000000001FF6
0000000000006FF2
000000000005EF90
0000000136BFF900
000002FFFFEA3000
000004FFFFC71000
0000001248DFE400
00000000001BFE10
000000000002FF60
000000000000FF70
180000000002FF50
BFB10000001CFE10
3EFE731136DFF600
02CFFFFFFFFE5000
0005ADEFDB610000
ENDCHAR
STARTCHAR four
ENCODING 52
SWIDTH 600 0
DWIDTH 19 0
BBX 18 20 0 0
BITMAP
00000000000009FF60
000000000000AFFF30
00000000000AFDFF00
0000000001BFB7FC00
000000001BFC1BF900
00000001CFC10EF500
0000001CFB103FF200
000002DFA0006FE000
00002DFA00009FB000
0002DF900000CF8000
003EF8000000FF5000
03EF70000003FF1000
1EFFFFFFFFFFFFFFF1
4FFFFFFFFFFFFFFFD0
00000000000CF70000
00000000000FF40000
00000000003FF10000
00000000005FE00000
00000000008FB00000
0000000000BF800000
ENDCHAR
STARTCHAR five
ENCODING 53
SWIDTH 600 0
DWIDTH 19 0
BBX 18 20 0 0
BITMAP
000002FFFFFFFFFFF2
000006FFFFFFFFFFE0
000009FA0000000000
00000DF60000000000
00002FF20000000000
00006FC00000000000
0000AF800000000000
0000EF78CEFDA40000
0003FFFFFFFFFF8000
0003ED731027EFF400
0000100000003FFB00
0000000000000AFE00
00000000000008FE00
00000000000009FD00
0000000000000CFA00
0270000000004FF400
1EF900000003EFB000
06FFD621149FFD1000
004DFFFFFFFFA10000
00016BDFEC93000000
ENDCHAR
STARTCHAR six
ENCODING 54
SWIDTH 600 0
DWIDTH 19 0
BBX 16 20 2 0
BITMAP
00000027BDFDA400
000018FFFFFFFFA0
0001CFFB51028FF9
001DFE40000004B1
009FF30000000000
03FF600000000000
0AFC000000000000
1FF6000000000000
5FF1049DEEC71000
9FC2BFFFFFFFD100
BFCDF941139FFA00
CFFC20000009FF10
DFB100000002FF30
DF6000000001FF30
CF7000000003FF10
8FC00000000AFB00
2FF60000006FF400
08FF93014AFF7000
008FFFFFFFE60000
0003ADFEC8100000
ENDCHAR
STARTCHAR seven
ENCODING 55
SWIDTH 600 0
DWIDTH 19 0
BBX 16 20 3 0
BITMAP
1FFFFFFFFFFFFFF6
4FFFFFFFFFFFFFE2
000000000006FE30
00000000006FE300
0000000005FE3000
000000004FF40000
00000001EF700000
0000000BFA000000
0000006FE1000000
000002EF60000000
000009FD00000000
00002FF600000000
00009FE000000000
0001EF8000000000
0006FF2000000000
000CFC0000000000
002FF80000000000
006FF30000000000
00AFE00000000000
00EFB00000000000
ENDCHAR
STARTCHAR eight
ENCODING 56
SWIDTH 600 0
DWIDTH 19 0
BBX 15 20 2 0
BITMAP
0000028CEFEA5000
00006FFFFFFFFA00
0005FFB4113AFF70
000CFB0000009FC0
000FF40000004FE0
000FF30000004FD0
000CF80000009F90
0004FF700004FE20
00005FFB306EE400
0003AFFFFDFB3000
008FE73AFFF40000
0AFC20003BFF6000
6FD10000008FF300
CF600000000CF900
EF4000000008FB00
EF600000000AFA00
BFD10000004FF500
4FFD62024AFFB000
06FFFFFFFFFA1000
0028CEFEC9300000
ENDCHAR
STARTCHAR nine
ENCODING 57
SWIDTH 600 0
DWIDTH 19 0
BBX 17 20 1 0
BITMAP
0000006BEFEB500000
00004DFFFFFFFB1000
0004FFC51027FFB000
001EFA0000003FF600
008FD000000009FC00
00CF7000000004FF00
00FF4000000003FF20
00FF5000000007FF20
00DFC00000019FFF10
007FFB41137EFDFF00
000AFFFFFFFE68FC00
00005BEFDB610BF900
0000000000002FF500
0000000000008FD000
000000000002FF7000
00000000001CFC0000
0870000002CFE30000
5FFA31138EFE300000
07FFFFFFFFA2000000
0039DFEC8300000000
ENDCHAR
STARTCHAR colon
ENCODING 58
SWIDTH 600 0
DWIDTH 19 0
BBX 8 16 5 0
BITMAP
0001AEC2
000BFFFA
001FFFFA
001FFFF5
0006ED60
00000000
00000000
00000000
00000000
00000000
00000000
02BEB100
1DFFF600
4FFFF700
4FFFE200
09EC4000
ENDCHAR
STARTCHAR semicolon
ENCODING 59
SWIDTH 600 0
DWIDTH 19 0
BBX 10 22 3 -6
BITMAP
000001AEC2
00000BFFFA
00001FFFFA
00001FFFF5
000006ED60
0000000000
0000000000
0000000000
0000000000
0000000000
0000000000
0001AEC200
000AFFFA00
000FFFFD00
000EFFFD00
0006EFFA00
00000DF500
00004FD000
0001DF3000
003DE40000
39FB200000
BA40000000
ENDCHAR
STARTCHAR less
ENCODING 60
SWIDTH 600 0
DWIDTH 19 0
BBX 13 18 3 2
BITMAP
00000000000290
00000000007FC0
000000002CFD30
00000007FF9100
000002CFE50000
00007EFB200000
002BFF70000000
06EFD300000000
2FF90000000000
2FF91000000000
06EFD300000000
002BFF70000000
00007EFB200000
000002CFE50000
00000007FF9100
000000002CFD30
00000000007FC0
00000000000390
ENDCHAR
STARTCHAR equal
ENCODING 61
SWIDTH 600 0
DWIDTH 19 0
BBX 15 8 2 7
BITMAP
3FFFFFFFFFFFFF60
3FFFFFFFFFFFFF60
0000000000000000
0000000000000000
0000000000000000
0000000000000000
3FFFFFFFFFFFFF60
3FFFFFFFFFFFFF60
ENDCHAR
STARTCHAR greater
ENCODING 62
SWIDTH 600 0
DWIDTH 19 0
BBX 13 18 3 2
BITMAP
74000000000000
9F910000000000
2BFD4000000000
007FF910000000
0003DFD4000000
000019FF910000
0000005EFD4000
00000002BFF810
0000000007FF50
0000000006FF50
00000001BFF810
0000005EFD4000
000019FF910000
0003DFD4000000
007FF910000000
2BFD4000000000
9F910000000000
74000000000000
ENDCHAR
STARTCHAR question
ENCODING 63
SWIDTH 600 0
DWIDTH 19 0
BBX 12 21 5 0
BITMAP
0004ADFEC600
01BFFFFFFFB0
2DFC5113BFF6
1CA000001FF9
010000000EF7
000000004FE2
00000004EF60
0000007FF500
00002CFC3000
0002DF900000
001DF7000000
007FB0000000
00BF60000000
000000000000
000000000000
000000000000
07ED30000000
5FFFA0000000
AFFFA0000000
AFFF60000000
3DE800000000
ENDCHAR
STARTCHAR at
ENCODING 64
SWIDTH 600 0
DWIDTH 19 0
BBX 19 26 0 -5
BITMAP
0000000017BEFEC71000
00000006EFFFFFFFC100
000001BFFB52016DF900
00001BFE40000001EE00
0000AFD100000000AF30
0005FE20000000007F40
001DF500000000008F30
006FB00000000000BF10
00CF4000000158BDFE00
03FC000003AFFFFFFB00
07F700008FFEA635F800
0AF40007FE600008F500
0DF0001EE200000BF300
0FD0004FA000000EE000
1FC0006F900001AFC000
2FB0004FF5116DEF9000
2FB0000DFFFFFB4F6000
1FC000019DEC604F3000
0FF00000000000000000
0CF30000000000000000
08F90000000000000000
02FF3000000000000000
00AFD200000013000000
001DFF831138ED000000
0001CFFFFFFFE5000000
000005ADFEC710000000
ENDCHAR
STARTCHAR A
ENCODING 65
SWIDTH 600 0
DWIDTH 19 0
BBX 18 21 -1 0
BITMAP
000000000009FF8000
00000000003FFFA000
0000000000BF9FC000
0000000004FD3FE000
000000000CF61FF100
000000005FE00FF300
00000000DF700DF500
00000006FE100CF600
0000001EF8000BF800
0000007FE10009FA00
000001EF800008FC00
000009FF100007FE00
00002FF9000005FF10
0000AFFFFFFFFFFF20
0003FFFFFFFFFFFF40
000BFE20000001FF60
004FF800000000EF80
00CFE100000000DFA0
06FF6000000000BFC0
0DFC00000000009FE0
7FF400000000008FF1
ENDCHAR
STARTCHAR B
ENCODING 66
SWIDTH 600 0
DWIDTH 19 0
BBX 17 21 1 0
BITMAP
00009FFFFFFEB71000
0000CFFFFFFFFFE400
0000EF8000138FFE10
0003FF50000007FF50
0006FF20000002FF70
0009FE00000002FF60
000CFB00000006FF20
000EF80000002EF900
003FF5000138EF9000
006FFFFFFFFFB40000
009FFFFFFFFFA30000
00CFB000014AFF7000
00FF800000007FF300
03FF500000000EF800
06FF200000000CF900
09FE000000000EF800
0CFB000000004FF400
0FF800000002DFD000
3FF50000249EFE3000
6FFFFFFFFFFFB20000
9FFFFFFFEC83000000
ENDCHAR
STARTCHAR C
ENCODING 67
SWIDTH 600 0
DWIDTH 19 0
BBX 17 21 2 0
BITMAP
000000039CEFD92000
0000019FFFFFFFE500
00002DFFA4114CFE30
0002EFD3000001CB10
000CFE200000001000
008FF4000000000000
01EF90000000000000
07FF20000000000000
0DFB00000000000000
1FF700000000000000
5FF300000000000000
6FF200000000000000
8FF100000000000000
7FF100000000000000
6FF300000000000000
3FF700000000000000
0DFD00000000000000
06FF90000001920000
00BFFB41027EFB0000
001AFFFFFFFFB20000
00004ADEED94000000
ENDCHAR
STARTCHAR D
ENCODING 68
SWIDTH 600 0
DWIDTH 19 0
BBX 18 21 0 0
BITMAP
00003FFFFFEC830000
00006FFFFFFFFFA100
00009FD00126CFFD10
0000CFA0000008FFA0
0000FF70000000BFF2
0003FF400000003FF7
0006FF100000000EFA
0009FD000000000CFC
000CFA000000000BFC
000FF7000000000CFB
003FF4000000000DFA
006FF1000000001FF7
009FD0000000004FF4
00CFA000000000AFE0
00FF7000000002FF80
03FF400000000BFF20
06FF100000008FF700
09FD00000019FFA000
0CFA000248EFF90000
0FFFFFFFFFFD500000
3FFFFFFEC940000000
ENDCHAR
STARTCHAR E
ENCODING 69
SWIDTH 600 0
DWIDTH 19 0
BBX 17 21 2 0
BITMAP
0000EFFFFFFFFFFFE0
0002FFFFFFFFFFFFB0
0005FF100000000000
0008FD000000000000
000CFA000000000000
000EF7000000000000
002FF4000000000000
006FF1000000000000
009FE0000000000000
00CFFFFFFFFFF70000
00EFFFFFFFFFF40000
03FF50000000000000
06FF20000000000000
09FE00000000000000
0CFB00000000000000
0EF800000000000000
3FF500000000000000
6FF200000000000000
9FE000000000000000
CFFFFFFFFFFFF70000
EFFFFFFFFFFFF40000
ENDCHAR
STARTCHAR F
ENCODING 70
SWIDTH 600 0
DWIDTH 19 0
BBX 18 21 2 0
BITMAP
00006FFFFFFFFFFFF6
00009FFFFFFFFFFFF2
0000CFA00000000000
0000FF700000000000
0003FF400000000000
0006FF100000000000
0009FD000000000000
000CFA000000000000
000EF6000000000000
003FFFFFFFFFFC0000
006FFFFFFFFFF90000
009FD0000000000000
00CFA0000000000000
00EF70000000000000
03FF40000000000000
06FF10000000000000
09FD00000000000000
0CFA00000000000000
0EF800000000000000
3FF500000000000000
6FF200000000000000
ENDCHAR
STARTCHAR G
ENCODING 71
SWIDTH 600 0
DWIDTH 19 0
BBX 17 21 2 0
BITMAP
00000006ADFEC71000
000004DFFFFFFFD200
00009FFD73116EFD10
0009FF91000002E800
006FF8000000001000
02EFB0000000000000
09FF20000000000000
1EF900000000000000
6FF300000000000000
9FE000000000000000
DFB000005FFFFFF400
EF9000008FFFFFF100
FF80000000006FD000
FF80000000009FA000
EFA000000000CF7000
BFE000000001FF4000
6FF600000003FF1000
1EFE20000007FD0000
04FFE72113AFF90000
005EFFFFFFFF910000
00017BEFEC82000000
ENDCHAR
STARTCHAR H
ENCODING 72
SWIDTH 600 0
DWIDTH 19 0
BBX 19 21 0 0
BITMAP
00005FF200000000CFB0
00008FE000000000EF80
0000BFB000000003FF50
0000EF8000000006FF20
0002FF5000000008FE00
0005FF200000000BFB00
0008FE000000000EF800
000BFC000000002FF500
000EF9000000005FF200
002FFFFFFFFFFFFFE000
005FFFFFFFFFFFFFB000
008FE000000000EF8000
00BFB000000002FF5000
00EF8000000005FF2000
02FF5000000009FE0000
05FF300000000CFB0000
08FE000000000EF80000
0BFC000000003FF50000
0EF9000000006FF20000
2FF6000000009FE00000
5FF300000000CFB00000
ENDCHAR
STARTCHAR I
ENCODING 73
SWIDTH 600 0
DWIDTH 19 0
BBX 18 21 1 0
BITMAP
0000CFFFFFFFFFFFF3
0001FFFFFFFFFFFFF0
000000000FF8000000
000000003FF5000000
000000006FF2000000
000000009FE0000000
00000000CFB0000000
00000000EF80000000
00000003FF50000000
00000006FF20000000
00000009FE00000000
0000000CFB00000000
0000000EF800000000
0000002FF500000000
0000005FF200000000
0000008FE000000000
000000BFB000000000
000000EF8000000000
000002FF5000000000
8FFFFFFFFFFFF60000
CFFFFFFFFFFFF30000
ENDCHAR
STARTCHAR J
ENCODING 74
SWIDTH 600 0
DWIDTH 19 0
BBX 18 21 0 0
BITMAP
000001FFFFFFFFFFF3
000005FFFFFFFFFFE0
00000000000000AFC0
00000000000000EF90
00000000000002FF50
00000000000005FF20
00000000000008FE00
0000000000000BFB00
0000000000000EF800
0000000000002FF500
0000000000005FF200
0000000000008FE000
000000000000BFB000
000000000000EF8000
000000000003FF4000
000000000007FF1000
00500000001EFA0000
1BF50000009FF20000
0BFF93114BFF700000
01BFFFFFFFF7000000
0004ADFEC920000000
ENDCHAR
STARTCHAR K
ENCODING 75
SWIDTH 600 0
DWIDTH 19 0
BBX 19 21 1 0
BITMAP
00009FE000000008FF40
0000CFB00000009FE400
0000EF80000009FE4000
0003FF5000009FE40000
0006FF200009FE300000
0009FE0000AFE3000000
000CFB000AFE30000000
000EF700AFE300000000
002FF40AFF4000000000
005FF2BFFF8000000000
008FEBFDCFE100000000
00BFFFD24FF600000000
00EFFD200DFD00000000
02FFC10006FF40000000
05FF200001EFB0000000
08FE0000008FF3000000
0BFB0000002FF9000000
0EF80000000AFF100000
2FF500000004FF800000
5FF200000000CFE00000
8FE0000000006FF60000
ENDCHAR
STARTCHAR L
ENCODING 76
SWIDTH 600 0
DWIDTH 19 0
BBX 14 21 3 0
BITMAP
0000BFB0000000
0000EF80000000
0002FF50000000
0005FF20000000
0008FE00000000
000BFB00000000
000EF800000000
002FF500000000
005FF200000000
008FE000000000
00BFC000000000
00EF9000000000
02FF6000000000
05FF3000000000
08FE0000000000
0BFC0000000000
0EF90000000000
2FF60000000000
5FF30000000000
8FFFFFFFFFFFF6
BFFFFFFFFFFFF3
ENDCHAR
STARTCHAR M
ENCODING 77
SWIDTH 600 0
DWIDTH 19 0
BBX 19 21 0 0
BITMAP
00006FFB00000006FFB0
00009FFD0000001EFF80
0000CFFF0000008FFF50
0001FECF200001EECF20
0003FDAF400009F8FE00
0006FB9F60003FD6FB00
0009F97F8000BF6AF800
000CF75FA004FD0DF500
001FF43FB00CF52FF200
003FF11FD05FC05FE000
006FD00EE0CF408FB000
009FA00CF4FB00BF9000
00CF700AFCF300EF6000
01FF4008FFA002FF3000
03FF1006FF3005FE0000
06FD0001440008FC0000
09FA000000000BF90000
0CF7000000000EF60000
0FF4000000002FF30000
3FF1000000005FF00000
6FD0000000008FC00000
ENDCHAR
STARTCHAR N
ENCODING 78
SWIDTH 600 0
DWIDTH 19 0
BBX 19 21 0 0
BITMAP
00002FFA00000000CF90
00005FFE00000000FF60
00008FFF50000003FF30
0000BFBF90000006FF00
0000EF5FE0000009FC00
0002FF1DF400000CF900
0005FD09F900000EF600
0008FB05FD00002FF300
000BF901EF30005FF000
000EF600AF80008FC000
002FF3005FD000BF9000
005FF1001FF300EF6000
008FD0000BF702FF3000
00BFA00006FC04FF0000
00EF700001FF17FC0000
02FF400000BF59F90000
05FF1000007F9BF60000
08FD0000002FDDF30000
0BFA0000000CFFF00000
0EF700000007FFC00000
2FF400000002FF900000
ENDCHAR
STARTCHAR O
ENCODING 79
SWIDTH 600 0
DWIDTH 19 0
BBX 18 21 1 0
BITMAP
00000017CEFDA40000
000005EFFFFFFF9000
00009FFC4113AFF800
0007FF80000009FF20
004FF800000001EF90
00CFC000000000AFD0
05FF50000000007FF0
0AFD00000000006FF2
1FF800000000007FF2
4FF400000000007FF0
7FF10000000000AFE0
9FE00000000000CFB0
AFD00000000002FF80
AFD00000000006FF20
9FE0000000000DFC00
6FF2000000006FF400
2FF700000002EFB000
0BFE2000002DFD1000
02EFD51138EFD20000
003EFFFFFFFB100000
00018CEFDA40000000
ENDCHAR
STARTCHAR P
ENCODING 80
SWIDTH 600 0
DWIDTH 19 0
BBX 18 21 1 0
BITMAP
00004FFFFFFEDA5000
00007FFFFFFFFFFB10
0000AFC000025CFF90
0000DF90000000BFF1
0001FF700000005FF4
0004FF400000003FF5
0007FF100000003FF3
000AFD000000007FF1
000DFA00000000DFB0
001FF80000001AFF30
004FF5000137DFF700
007FFFFFFFFFFD5000
00AFFFFFFEC9500000
00DFB0000000000000
01FF80000000000000
04FF40000000000000
07FF10000000000000
0AFD00000000000000
0DFA00000000000000
1FF700000000000000
4FF300000000000000
ENDCHAR
STARTCHAR Q
ENCODING 81
SWIDTH 600 0
DWIDTH 19 0
BBX 18 26 1 -5
BITMAP
00000017CEFDA40000
000005EFFFFFFF9000
00008FFC41139FF800
0007FF80000009FF20
003FF800000001EF80
00CFC000000000AFD0
04FF50000000007FF0
0AFD00000000006FF1
1FF800000000007FF2
4FF400000000007FF1
7FF10000000000AFE0
9FE00000000000DFB0
AFD00000000002FF80
AFD00000000006FF30
9FE0000000000DFC00
7FF2000000006FF500
3FF700000002EFC000
0CFE2000002DFE2000
03FFD61038EFE40000
005FFFFFFFFD300000
0002AEFFFB60000000
000004FF4000000000
000000DFB000000000
0000005FFB41123000
00000007FFFFFFB000
0000000039DFED9000
ENDCHAR
STARTCHAR R
ENCODING 82
SWIDTH 600 0
DWIDTH 19 0
BBX 17 21 1 0
BITMAP
0000CFFFFFFEB71000
0000FFFFFFFFFFE400
0003FF4000138FFE10
0006FF10000006FF60
0009FD00000000FF80
000CFA00000000EF80
000FF700000002FF60
003FF400000008FF20
006FF10000006FF900
009FD000125BFFB000
00CFFFFFFFFFF80000
00FFFFFFFFC7200000
03FF4000DFA0000000
06FF10008FF2000000
09FD00002FF7000000
0CFA00000BFD000000
0EF7000005FF500000
3FF4000000EFB00000
6FF10000009FF20000
9FD00000003FF80000
CFA00000000CFE0000
ENDCHAR
STARTCHAR S
ENCODING 83
SWIDTH 600 0
DWIDTH 19 0
BBX 16 21 1 0
BITMAP
00000039DEEC9300
000008FFFFFFFF90
00007FFB3014AFFB
0001FFB0000006F9
0005FF3000000020
0006FF2000000000
0005FF6000000000
0001EFE400000000
00005FFF81000000
000005EFFE600000
0000002BFFFB2000
000000004CFFD200
00000000008FFC00
000000000009FF40
000000000002FF70
000000000001FF60
1A4000000005FF40
9FE50000001DFD00
1DFFA41027EFF400
01AFFFFFFFFE4000
00039CEFEB710000
ENDCHAR
STARTCHAR T
ENCODING 84
SWIDTH 600 0
DWIDTH 19 0
BBX 17 21 3 0
BITMAP
8FFFFFFFFFFFFFFFD0
BFFFFFFFFFFFFFFFA0
0000000FF700000000
0000003FF400000000
0000006FF100000000
0000009FD000000000
000000CFA000000000
000000FF7000000000
000003FF4000000000
000006FF1000000000
000009FE0000000000
00000CFB0000000000
00000EF80000000000
00003FF50000000000
00006FF20000000000
00009FE00000000000
0000CFB00000000000
0000EF800000000000
0002FF500000000000
0005FF200000000000
0008FE000000000000
ENDCHAR
STARTCHAR U
ENCODING 85
SWIDTH 600 0
DWIDTH 19 0
BBX 17 21 2 0
BITMAP
005FF200000000BFB0
008FE000000000EF80
00BFB000000002FF50
00EF8000000005FF20
02FF5000000008FE00
05FF200000000BFA00
08FE000000000EF700
0BFB000000002FF400
0EF8000000005FF100
2FF5000000008FD000
5FF200000000BFA000
8FE000000000EF7000
BFB000000002FF4000
DF9000000005FF1000
EF800000000AFC0000
EFA00000001EF70000
CFC00000008FF10000
7FF5000004FF800000
1EFE62027FFC000000
04EFFFFFFFB1000000
0028CEFDA500000000
ENDCHAR
STARTCHAR V
ENCODING 86
SWIDTH 600 0
DWIDTH 19 0
BBX 18 21 3 0
BITMAP
1FF80000000000BFE1
0EF90000000004FF60
0DFA000000000CFD00
0BFB000000004FF500
0AFD00000000CFC000
08FE00000005FF4000
07FF0000000CFB0000
05FF1000005FF30000
04FF300000CFA00000
02FF400005FF200000
01FF50000DF9000000
00EF70006FE2000000
00DF8000DF80000000
00BF9006FE10000000
00AFA00DF700000000
008FB06FD000000000
007FC0DF6000000000
005FE5FD0000000000
004FFDF50000000000
002FFFC00000000000
001FFF400000000000
ENDCHAR
STARTCHAR W
ENCODING 87
SWIDTH 600 0
DWIDTH 19 0
BBX 20 21 1 0
BITMAP
00FF5000000000000EF6
01FF4000000000004FF1
02FF3000000000009FC0
03FF200000000000DF70
04FF000000000003FF20
05FE000012100007FD00
06FD0000BFA0000CF800
07FC0003FFC0001FF300
08FB000AFED0006FD000
09FA002FACE000AF9000
09F9008F5BF100EF4000
0AF801EE0AF204FE0000
0BF606F909F308FA0000
0CF50DF208F40DF50000
0DF45FB007F52FF10000
0EF3BF4006F76FB00000
0FF3FD0005F8AF600000
1FF8F60004F9EF200000
2FDEE10003FCFC000000
3FFF900002FFF7000000
4FFF200001FFF3000000
ENDCHAR
STARTCHAR X
ENCODING 88
SWIDTH 600 0
DWIDTH 19 0
BBX 20 21 0 0
BITMAP
0000AFF100000001CFD1
00004FF700000009FE20
00000CFD0000006FF500
000006FF400003FF8000
000001EFA0001DFC0000
0000009FE100AFE20000
0000003FF606FF400000
0000000CFB1EF7000000
00000006FFBFA0000000
00000001EFFD10000000
00000003FFF600000000
0000001DFFFA00000000
000000AFD7FF20000000
000007FF31FF80000000
00003FF800AFD0000000
0001DFC0004FF5000000
000BFE20000DFB000000
007FF4000007FF200000
04FF80000002FF800000
1EFB00000000BFE00000
BFE1000000005FF60000
ENDCHAR
STARTCHAR Y
ENCODING 89
SWIDTH 600 0
DWIDTH 19 0
BBX 17 21 3 0
BITMAP
5FF30000000001DFA0
1FF7000000000AFE10
0BFC000000005FF400
06FF20000001EF9000
01FF6000000BFD1000
00BFB000006FF30000
006FF10002EF700000
002FF5000CFB000000
000CF9007FE2000000
0007FD02EF50000000
0002FF2BFA00000000
0000CFBFD100000000
00008FFF4000000000
00003FF80000000000
00004FF20000000000
00008FE00000000000
0000BFB00000000000
0000EF800000000000
0002FF500000000000
0005FF200000000000
0008FE000000000000
ENDCHAR
STARTCHAR Z
ENCODING 90
SWIDTH 600 0
DWIDTH 19 0
BBX 19 21 0 0
BITMAP
00009FFFFFFFFFFFFFA0
0000DFFFFFFFFFFFFF50
000000000000006FF800
00000000000003FFB000
0000000000001EFD1000
000000000000CFE30000
000000000009FF500000
00000000006FF8000000
0000000004FFB0000000
000000002EFD10000000
00000000CFE200000000
0000000AFF5000000000
0000007FF70000000000
000004FFA00000000000
00002EFC100000000000
0001CFE2000000000000
000AFF40000000000000
007FF700000000000000
04FFA000000000000000
1EFFFFFFFFFFFFFC0000
5FFFFFFFFFFFFFF90000
ENDCHAR
STARTCHAR bracketleft
ENCODING 91
SWIDTH 600 0
DWIDTH 19 0
BBX 15 28 4 -5
BITMAP
000008FFFFFFFF30
00000BFFFFFFFF10
00000EF100000000
00001FD000000000
00004FA000000000
00007F7000000000
0000AF4000000000
0000DF1000000000
0001FD0000000000
0004FA0000000000
0007F70000000000
000AF40000000000
000DF10000000000
001FD00000000000
004F900000000000
007F600000000000
00AF300000000000
00DF000000000000
01FC000000000000
04F9000000000000
07F6000000000000
0AF3000000000000
0DF0000000000000
1FC0000000000000
4F90000000000000
7F60000000000000
AFFFFFFFF0000000
DFFFFFFFD0000000
ENDCHAR
STARTCHAR backslash
ENCODING 92
SWIDTH 600 0
DWIDTH 19 0
BBX 7 28 6 -5
BITMAP
CF300000
9F600000
7F800000
4FB00000
2FE00000
0EF10000
0BF40000
09F70000
06F90000
03FC0000
01FE0000
00DF2000
00BF5000
008F7000
005FA000
003FD000
000FF000
000CF300
000AF500
0007F800
0004FB00
0002FD00
0000EF10
0000CF40
00009F60
00006F90
00004FC0
00001FE0
ENDCHAR
STARTCHAR bracketright
ENCODING 93
SWIDTH 600 0
DWIDTH 19 0
BBX 15 28 0 -5
BITMAP
000001FFFFFFFF90
000003FFFFFFFF60
0000000000009F30
000000000000CF00
000000000001FC00
000000000003F900
000000000007F600
00000000000AF300
00000000000DF000
00000000001FC000
00000000004F9000
00000000007F6000
0000000000AF3000
0000000000DF1000
0000000001FD0000
0000000004FA0000
0000000007F70000
000000000AF40000
000000000DF10000
000000001FD00000
000000004FA00000
000000008F700000
00000000BF400000
00000000EF100000
00000002FD000000
00000005FA000000
5FFFFFFFF7000000
7FFFFFFFF4000000
ENDCHAR
STARTCHAR asciicircum
ENCODING 94
SWIDTH 600 0
DWIDTH 19 0
BBX 13 12 3 9
BITMAP
00000AFD000000
00002FFF400000
00008FBFB00000
0000DF1DF20000
0005FA07F80000
000BF502FE0000
002FE000BF5000
008F80005FB000
00EF20000EF200
06FB000008F800
0CF6000003FE00
3FE1000000CF60
ENDCHAR
STARTCHAR underscore
ENCODING 95
SWIDTH 600 0
DWIDTH 19 0
BBX 16 2 -1 -4
BITMAP
9FFFFFFFFFFFFFFC
CFFFFFFFFFFFFFF9
ENDCHAR
STARTCHAR grave
ENCODING 96
SWIDTH 600 0
DWIDTH 19 0
BBX 6 7 8 18
BITMAP
059000
7FF400
2EFD10
05FF80
008FF3
000BFB
0001B3
ENDCHAR
STARTCHAR a
ENCODING 97
SWIDTH 600 0
DWIDTH 19 0
BBX 17 16 1 0
BITMAP
0000016CEED9206F90
00004DFFFFFFE4AF60
0005FFE72027EEEF30
003FFC1000003EFF10
00CFD100000008FC00
05FF500000000BFA00
0BFD000000000EF700
0FF8000000002FF400
3FF5000000005FF100
4FF3000000008FD000
5FF300000000BFA000
4FF600000003EF7000
1FFC0000005EFF4000
09FFB3015BFAFF1000
01CFFFFFFE54FD0000
0017CEEC7106FA0000
ENDCHAR
STARTCHAR b
ENCODING 98
SWIDTH 600 0
DWIDTH 19 0
BBX 17 23 1 0
BITMAP
00006FF10000000000
00009FD00000000000
0000CFA00000000000
0000FF700000000000
0003FF400000000000
0006FF100000000000
0009FC000000000000
000CF9017CEEC60000
000EF56EFFFFFFA000
003FFBFA4114DFF600
006FFD4000002EFC00
009FD200000009FF10
00CF9000000006FF20
00EF6000000005FF20
02FF3000000007FF10
05FF1000000009FE00
08FC000000000DFA00
0BF9000000005FF400
0EF700000001EFC000
2FFE2000001CFF3000
5FEFE62027EFF50000
8F95FFFFFFFD400000
BF5029DFEB61000000
ENDCHAR
STARTCHAR c
ENCODING 99
SWIDTH 600 0
DWIDTH 19 0
BBX 16 16 2 0
BITMAP
0000027BEFDB6100
00008FFFFFFFFD30
001CFFB51026EFE2
00CFF50000001C80
07FF500000000000
1EF9000000000000
6FF2000000000000
AFC0000000000000
CFA0000000000000
DFA0000000000000
BFC0000000000000
8FF2000000000000
2FFC10000005D100
08FFD62015BFF500
008FFFFFFFFD5000
00028CEFDA600000
ENDCHAR
STARTCHAR d
ENCODING 100
SWIDTH 600 0
DWIDTH 19 0
BBX 19 23 1 0
BITMAP
0000000000000005FF20
0000000000000008FE00
000000000000000BFB00
000000000000000EF800
000000000000002FF400
000000000000005FF100
000000000000008FE000
0000016CEED920BFA000
00004DFFFFFFE4DF7000
0005FFE72027EEFF4000
003FFC1000003EFF1000
00CFD100000009FD0000
05FF500000000BFA0000
0BFD000000000EF70000
0FF8000000002FF40000
3FF5000000005FF10000
4FF3000000008FD00000
5FF300000000BFA00000
4FF600000003EF700000
1FFC0000005EFF400000
09FFB3015BFAFF100000
01CFFFFFFE54FD000000
0017CEEC7106FA000000
ENDCHAR
STARTCHAR e
ENCODING 101
SWIDTH 600 0
DWIDTH 19 0
BBX 15 16 2 0
BITMAP
0000049DEEC71000
0002BFFFFFFFD200
003EFF93016EFC00
02EFE3000003FF50
0AFF30000000BF90
3FF8000000008FB0
8FF1000000008FB0
CFFFFFFFFFFFFFA0
EFFFFFFFFFFFFF80
FF70000000000000
EF80000000000000
BFC0000000000000
6FF600000006A000
0DFF931126CFF200
02CFFFFFFFFC3000
0006BEFEC9400000
ENDCHAR
STARTCHAR f
ENCODING 102
SWIDTH 600 0
DWIDTH 19 0
BBX 17 23 3 0
BITMAP
0000000006BEFEB600
00000002DFFFFFFFC0
0000001DFF83115D70
0000007FF400000000
000000DFA000000000
000002FF5000000000
000005FF2000000000
1DDEEFFFFFFFFF6000
3FFFFFFFFFFFFF3000
00000EF70000000000
00002FF50000000000
00005FF20000000000
00008FE00000000000
0000BFB00000000000
0000EF800000000000
0002FF500000000000
0005FF200000000000
0008FE000000000000
000BFB000000000000
000EF8000000000000
002FF5000000000000
005FF2000000000000
007FE0000000000000
ENDCHAR
STARTCHAR g
ENCODING 103
SWIDTH 600 0
DWIDTH 19 0
BBX 18 23 0 -7
BITMAP
00000016BEED9206F9
000004DFFFFFFE4AF6
00005FFE72028FEEF3
0002FFC2000004FFF0
000CFE100000009FC0
004FF500000000BF90
00AFD000000000EF60
00EF9000000002FF40
02FF6000000005FF10
03FF5000000008FD00
03FF500000000BFA00
02FF800000003EF700
00DFE1000005EFF400
006FFD5236BFBFF100
0009FFFFFFE56FD000
00004ADDB6109FA000
000000000000DF7000
000000000002FF3000
000000000009FD0000
05200000005FF60000
2EE941025BFFA00000
2BFFFFFFFFF8000000
0039CEFEC820000000
ENDCHAR
STARTCHAR h
ENCODING 104
SWIDTH 600 0
DWIDTH 19 0
BBX 16 23 1 0
BITMAP
00006FF100000000
00009FD000000000
0000CFA000000000
0000FF7000000000
0003FF4000000000
0006FF1000000000
0009FD0000000000
000CFA0017CEEC50
000EF707FFFFFFF4
003FF4BF94117FFB
006FFDC300000BFD
009FFA00000009FE
00CFA00000000AFC
00EF600000000DFA
02FF300000001FF7
05FF000000003FF4
08FC000000006FF1
0BF9000000009FD0
0EF700000000CFA0
2FF400000001FF70
5FF100000003FF40
8FD000000006FF10
BFA000000009FD00
ENDCHAR
STARTCHAR i
ENCODING 105
SWIDTH 600 0
DWIDTH 19 0
BBX 13 23 3 0
BITMAP
0000002BE90000
000000AFFF2000
000000CFFF1000
0000005ED50000
00000000000000
00000000000000
00000000000000
5FFFFFFFB00000
9FFFFFFF800000
000001FF500000
000005FF200000
000008FD000000
00000BFA000000
00000EF7000000
00003FF3000000
00006FF0000000
0000AFC0000000
0000DF80000000
0001FF60000000
0001FF80000000
0000DFE5125A00
00005FFFFFFF30
000004BEFDA500
ENDCHAR
STARTCHAR j
ENCODING 106
SWIDTH 600 0
DWIDTH 19 0
BBX 17 30 -1 -7
BITMAP
00000000000009EC20
0000000000005FFF70
0000000000007FFF50
0000000000002CE900
000000000000000000
000000000000000000
000000000000000000
000007FFFFFFFFF200
00000BFFFFFFFFE000
000000000000BFB000
000000000000EF8000
000000000002FF5000
000000000005FF2000
000000000008FE0000
00000000000BFB0000
00000000000EF80000
00000000002FF50000
00000000005FF20000
00000000008FE00000
0000000000AFC00000
0000000000DF900000
0000000001FF600000
0000000004FF300000
0000000007FE000000
000000000CFB000000
000000003FF6000000
00000000CFE1000000
1D93014BFF50000000
5FFFFFFFF700000000
039DFED93000000000
ENDCHAR
STARTCHAR k
ENCODING 107
SWIDTH 600 0
DWIDTH 19 0
BBX 18 23 1 0
BITMAP
00000EF70000000000
00002FF40000000000
00005FF10000000000
00008FD00000000000
0000BFA00000000000
0000EF700000000000
0002FF400000000000
0005FF10000001BFE3
0008FD0000002DFD20
000BFA000004EFC200
000EF700006FFB1000
002FF40008FFA00000
005FF101AFF9000000
008FD01CFFA0000000
00BFA3DFFFD0000000
00EFCEFD5FF6000000
02FFFFB109FD100000
05FFF80002FF700000
08FF5000009FE10000
0BFB0000002FF70000
0EF800000008FE1000
2FF500000001EF8000
5FF2000000008FE100
ENDCHAR
STARTCHAR l
ENCODING 108
SWIDTH 600 0
DWIDTH 19 0
BBX 11 23 4 0
BITMAP
3FFFFFFF6000
6FFFFFFF3000
000006FF0000
000009FC0000
00000DF80000
00001FF50000
00004FF20000
00007FE00000
0000AFB00000
0000DF800000
0002FF400000
0005FF100000
0008FD000000
000BFA000000
000EF7000000
003FF4000000
006FF1000000
009FD0000000
00BFB0000000
00BFD0000000
008FF8113930
001DFFFFFF80
00029EFDB710
ENDCHAR
STARTCHAR m
ENCODING 109
SWIDTH 600 0
DWIDTH 19 0
BBX 19 16 0 0
BITMAP
000FE02AEE8005CED400
003FD4EFFFF39FFFFE00
006FEE813FFDE51AFF20
009FF7000EFE2006FF20
00CFB0000FF60007FF00
00EF70003FF2000AFC00
02FF40006FE0000DF900
05FF10009FB0001FF600
08FD0000CF80004FF300
0BFA0001FF50007FF000
0EF70003FF2000AFC000
2FF40006FE0000DF9000
5FF2000AFB0001FF6000
8FE0000DF80004FF3000
BFB0001FF50007FF0000
EF80004FF2000AFC0000
ENDCHAR
STARTCHAR n
ENCODING 110
SWIDTH 600 0
DWIDTH 19 0
BBX 16 16 1 0
BITMAP
000DF30028CFEC50
001FF107FFFFFFF4
004FF1BFA4117FFB
006FEDC300000BFD
009FFB10000009FE
00CFB00000000AFC
00FF600000000DFA
03FF300000001FF7
06FF100000003FF4
09FD000000006FF1
0CFA000000009FD0
0EF700000000CFA0
3FF400000001FF70
5FF100000003FF40
8FD000000006FF10
BFA000000009FD00
ENDCHAR
STARTCHAR o
ENCODING 111
SWIDTH 600 0
DWIDTH 19 0
BBX 16 16 1 0
BITMAP
0000017BEFEB5000
00006EFFFFFFFB10
0009FFC51039FFA0
008FF80000008FF4
03FF800000000EF9
0BFD000000000AFC
1FF70000000008FD
5FF20000000009FD
7FF0000000000BFB
8FF0000000001FF7
6FF1000000008FF2
3FF600000003FF90
0DFD1000003EFD10
04FFD51139FFD200
006FFFFFFFFA1000
00029DEED9300000
ENDCHAR
STARTCHAR p
ENCODING 112
SWIDTH 600 0
DWIDTH 19 0
BBX 19 23 -1 -7
BITMAP
00000DF3017CEEB50000
00001FF25EFFFFFF9000
00003FF9FB5114DFF600
00006FFE5000002EFC00
00009FE200000009FF10
0000CFA000000006FF20
0000FF7000000005FF20
0003FF4000000006FF10
0006FF1000000009FE00
0009FD000000000DFA00
000BFA000000005FF500
000EF700000001DFD000
002FFD2000001CFF4000
005FFFE72027EFF60000
008FB6FFFFFFFE500000
00BF9029DFEC71000000
00EF6000000000000000
02FF4000000000000000
04FF1000000000000000
07FD0000000000000000
0AFB0000000000000000
0DF80000000000000000
1FF50000000000000000
ENDCHAR
STARTCHAR q
ENCODING 113
SWIDTH 600 0
DWIDTH 19 0
BBX 17 23 1 -7
BITMAP
0000016CEED9206F90
00004DFFFFFFE4AF60
0005FFE72027FEEF30
003FFC1000003EFF10
00CFD100000009FD00
05FF500000000BFA00
0BFD000000000EF700
0FF8000000002FF400
3FF5000000005FF100
4FF3000000008FD000
5FF300000000BFA000
4FF600000003EF7000
1FFC0000005EFF4000
09FFB3015BFAFF2000
01CFFFFFFE57FE0000
0017CEEC710AFB0000
00000000000EF80000
00000000002FF50000
00000000005FF20000
00000000007FE00000
0000000000AFB00000
0000000000DF900000
0000000001FF600000
ENDCHAR
STARTCHAR r
ENCODING 114
SWIDTH 600 0
DWIDTH 19 0
BBX 15 16 3 0
BITMAP
000DF20018DFEB50
001FF005EFFFFF60
004FD06FC5113700
007FB5F700000000
00AFBD5000000000
00DFF50000000000
01FF700000000000
04FF100000000000
07FD000000000000
0AFA000000000000
0CF8000000000000
1FF5000000000000
3FF2000000000000
6FE0000000000000
9FC0000000000000
CF90000000000000
ENDCHAR
STARTCHAR s
ENCODING 115
SWIDTH 600 0
DWIDTH 19 0
BBX 16 16 1 0
BITMAP
000004ADFEDA4000
0000AFFFFFFFFC30
0007FF820149EFE2
000CF90000002B90
000DF80000000000
000BFE4000000000
0003EFFB50000000
00003CFFFE930000
0000004AFFFF9000
0000000016DFF900
000000000009FF10
013000000003FF30
0BE500000005FF10
1BFFC621127EFA00
008EFFFFFFFFB100
00017BDFECA50000
ENDCHAR
STARTCHAR t
ENCODING 116
SWIDTH 600 0
DWIDTH 19 0
BBX 16 21 2 0
BITMAP
0000006FA0000000
000000AF70000000
000000EF40000000
000003FF10000000
000007FD00000000
5DEEFFFFFFFFFFF5
8FFFFFFFFFFFFFF1
00003FF300000000
00007FF000000000
0000AFC000000000
0000DF9000000000
0001FF6000000000
0004FF3000000000
0007FE0000000000
000AFC0000000000
000CF90000000000
000DFA0000000000
000CFD0000000000
0008FFA2015BC000
0001DFFFFFFFE200
000029DFEDA61000
ENDCHAR
STARTCHAR u
ENCODING 117
SWIDTH 600 0
DWIDTH 19 0
BBX 17 16 1 0
BITMAP
002FF500000000FF70
005FF200000003FF40
008FE000000006FF10
00BFB000000009FD00
00EF800000000BFA00
02FF500000000EF700
05FF200000002FF500
08FE000000005FF200
0BFB000000008FE000
0EF800000000BFB000
1FF600000002EF8000
3FF50000002DFF5000
2FF7000005ECFF2000
0EFE4125BF84FE0000
08FFFFFFD406FB0000
007DFEB60007F80000
ENDCHAR
STARTCHAR v
ENCODING 118
SWIDTH 600 0
DWIDTH 19 0
BBX 17 16 2 0
BITMAP
2FF50000000003FF50
0DF8000000000BFB00
0AFB000000005FF300
07FE00000000DF8000
03FF20000007FE1000
00FF6000001EF60000
00CF9000009FC00000
009FC00003FF300000
005FF0000CF9000000
002FF3005FE1000000
000EF601DF60000000
000AF907FC00000000
0007FC1EF400000000
0004FE8FA000000000
0001FFFE2000000000
0000CFF70000000000
ENDCHAR
STARTCHAR w
ENCODING 119
SWIDTH 600 0
DWIDTH 19 0
BBX 19 16 1 0
BITMAP
8FE0000022200000AFB0
7FE00001EFC00001FF40
7FE00006FFD00007FD00
7FE0000CEED0000DF700
6FE0004F9DE0004FF100
6FE000AF4EE0009FA000
6FF001FE0EF001EF4000
5FF007F80DF006FD0000
5FF00DF20DF10CF70000
5FF05FB00DF13FF10000
4FF0BF500CF28FA00000
4FF2FD000CF2EF400000
3FF7F8000CF6FC000000
3FECF2000BFCF6000000
3FFFA0000BFFE1000000
2FFF40000BFF90000000
ENDCHAR
STARTCHAR x
ENCODING 120
SWIDTH 600 0
DWIDTH 19 0
BBX 18 16 0 0
BITMAP
0000DF900000009FF4
00006FF2000007FF60
00000DFA00005FF700
000005FF2003EF9000
000000DF901DFA0000
0000005FF2BFB00000
0000000CFDFC100000
00000005FFD1000000
0000001DFFD0000000
000001CFBEF7000000
00000BFD17FE100000
00009FE201EF900000
0008FF40007FF20000
007FF600000DFA0000
05FF80000006FF3000
4FF900000000DFC000
ENDCHAR
STARTCHAR y
ENCODING 121
SWIDTH 600 0
DWIDTH 19 0
BBX 21 23 -2 -7
BITMAP
00001FF40000000003FF50
00000DF7000000000CFB00
000009FB000000005FF300
000006FE00000001DF9000
000002FF30000008FE1000
000000DF6000002FF60000
000000AFA00000AFC00000
0000006FD00004FF300000
0000002FF1000CF9000000
0000000EF5006FE1000000
0000000AF701EF60000000
00000006FA08FC00000000
00000003FD1EF300000000
00000000EF9F9000000000
00000000AFFE1000000000
000000007FF60000000000
00000000AFC00000000000
00000004FF400000000000
0000001DF9000000000000
000000AFE1000000000000
04113BFF40000000000000
1EFFFFE400000000000000
2BEFD82000000000000000
ENDCHAR
STARTCHAR z
ENCODING 122
SWIDTH 600 0
DWIDTH 19 0
BBX 17 16 1 0
BITMAP
001FFFFFFFFFFFFF10
004FFFFFFFFFFFFC00
000000000002DFD100
00000000002DFD2000
0000000001DFD20000
000000001CFD200000
00000001CFE2000000
0000001CFE20000000
000001CFE300000000
00001BFE3000000000
0000BFE30000000000
000BFE400000000000
00AFE4000000000000
0AFF40000000000000
8FFFFFFFFFFFFF2000
CFFFFFFFFFFFFE0000
ENDCHAR
STARTCHAR braceleft
ENCODING 123
SWIDTH 600 0
DWIDTH 19 0
BBX 16 28 3 -5
BITMAP
0000000005BDFFF9
00000000AFFFFFF7
00000005FFA31000
0000000BFA000000
0000000EF2000000
0000002FE0000000
0000005FB0000000
0000007F80000000
000000AF60000000
000000CF30000000
000000EF10000000
000006FB00000000
00149FF400000000
2FFFFD5000000000
5FFFE81000000000
0126EF8000000000
00005FB000000000
00003F9000000000
00006F6000000000
0000AF2000000000
0000ED0000000000
0004F90000000000
0008F50000000000
000BF20000000000
000EF30000000000
000EFB3100000000
0009FFFFFF600000
00017DEFFF400000
ENDCHAR
STARTCHAR bar
ENCODING 124
SWIDTH 600 0
DWIDTH 19 0
BBX 3 32 8 -8
BITMAP
8FB0
8FB0
8FB0
8FB0
8FB0
8FB0
8FB0
8FB0
8FB0
8FB0
8FB0
8FB0
8FB0
8FB0
8FB0
8FB0
8FB0
8FB0
8FB0
8FB0
8FB0
8FB0
8FB0
8FB0
8FB0
8FB0
8FB0
8FB0
8FB0
8FB0
8FB0
8FB0
ENDCHAR
STARTCHAR braceright
ENCODING 125
SWIDTH 600 0
DWIDTH 19 0
BBX 16 28 0 -5
BITMAP
000004FFFEC70000
000007FFFFFF8000
0000000013CFD000
00000000004FD000
00000000003FA000
00000000006F7000
0000000000AF3000
0000000000ED0000
0000000003F90000
0000000007F50000
000000000AF30000
000000000BF40000
0000000009FD6200
00000000018EFFF4
0000000005DFFFF2
000000004FF94100
00000000CF600000
00000001FE000000
00000004FB000000
00000007F9000000
00000009F6000000
0000000CF4000000
0000000EF1000000
0000003FE0000000
000000AFA0000000
00013AFF40000000
7FFFFFF900000000
AFFFDB5000000000
ENDCHAR
STARTCHAR asciitilde
ENCODING 126
SWIDTH 600 0
DWIDTH 19 0
BBX 15 5 2 8
BITMAP
002AED7000001C40
02EFFFFC20007F60
0BF813CFE515EE10
3FB0001AFFFFF400
3B4000006DEB3000
ENDCHAR
STARTCHAR uni00A0
ENCODING 160
SWIDTH 600 0
DWIDTH 19 0
BBX 1 1 0 0
BITMAP
00
ENDCHAR
STARTCHAR exclamdown
ENCODING 161
SWIDTH 600 0
DWIDTH 19 0
BBX 8 23 5 -7
BITMAP
0001AEB1
0009FFF7
000DFFF7
000DFFF3
0005ED50
00000000
00000000
00000000
000AF100
000ED000
002FB000
005F8000
009F6000
00CF4000
01FF1000
04FE0000
07FC0000
0BF90000
0EF70000
2FF50000
5FF20000
8FF00000
BFD00000
ENDCHAR
STARTCHAR cent
ENCODING 162
SWIDTH 600 0
DWIDTH 19 0
BBX 14 21 3 -1
BITMAP
000000003F5000
000000006F1000
00000000AD0000
000004ADFFD810
0003CFFFFFFFD3
004EFE66F43CE4
02EFC107F10130
0BFE100BD00000
3FF6000E900000
7FE0002F600000
AFB0005F300000
CFA0008F000000
CFB000BC000000
AFD000E9000000
6FF602F6005100
1DFF76F33AFA00
03EFFFFFFFD400
0018DFFEB60000
00001F80000000
00004F50000000
00007F10000000
ENDCHAR
STARTCHAR sterling
ENCODING 163
SWIDTH 600 0
DWIDTH 19 0
BBX 18 20 0 0
BITMAP
0000000017CEFDA300
00000004EFFFFFFF70
0000003FFD51029FF7
000000BFD1000007C2
000001FF5000000000
000003FF2000000000
000003FF1000000000
000002FF2000000000
000001FF3000000000
004DEFFFFFFFFF4000
008FFFFFFFFFFF1000
000000CF7000000000
000000DF5000000000
000001FF3000000000
000006FD0000000000
00001DF50000000000
0001BF800000000000
003CF6000000000000
0AFFFFFFFFFFFFE000
3FFFFFFFFFFFFFB000
ENDCHAR
STARTCHAR currency
ENCODING 164
SWIDTH 600 0
DWIDTH 19 0
BBX 19 17 0 2
BITMAP
00005100000000000500
0006FB0000000001BF50
0004FF817CFEB42DFD20
00007FFEFFFFFFEFC100
00000DFF9313BFFB0000
00005FF500000DFA0000
0000DF80000008FD0000
0004FF10000006FE0000
0007FB00000006FC0000
0009FA0000000AF90000
0008FC0000002FF40000
0005FF300001CFB00000
0004FFD4116DFF300000
005EFFFFFFFFEFA00000
06FF72AEFEA43FF60000
1DF50000000006FD0000
02400000000000820000
ENDCHAR
STARTCHAR yen
ENCODING 165
SWIDTH 600 0
DWIDTH 19 0
BBX 19 20 1 0
BITMAP
000DF90000000007FF30
0008FE000000004FF600
0002FF40000001DFA000
0000CF9000000BFD1000
00007FE000007FF40000
00002FF50003FF700000
00000BFA001DFB000000
000006FE009FE2000000
000001FF44FF50000000
000000AFADF900000000
0000005FFFC000000000
08FFFFFFFFFFFFF90000
0000000EF70000000000
0000003FF40000000000
4FFFFFFFFFFFFFE00000
000000AFC00000000000
000000DF900000000000
000001FF600000000000
000004FF300000000000
000007FF100000000000
ENDCHAR
STARTCHAR brokenbar
ENCODING 166
SWIDTH 600 0
DWIDTH 19 0
BBX 3 32 8 -8
BITMAP
8FB0
8FB0
8FB0
8FB0
8FB0
8FB0
8FB0
8FB0
8FB0
8FB0
8FB0
8FB0
8FB0
8FB0
1110
0000
0000
1110
8FB0
8FB0
8FB0
8FB0
8FB0
8FB0
8FB0
8FB0
8FB0
8FB0
8FB0
8FB0
8FB0
8FB0
ENDCHAR
STARTCHAR section
ENCODING 167
SWIDTH 600 0
DWIDTH 19 0
BBX 14 24 2 -2
BITMAP
0000004BEFC710
000008FFFFFFD2
00003FFA214CFC
00007FE0000092
00007FC0000000
00002FE1000000
0004DFFC100000
005FFFEFE50000
01EFC22BFFA100
06FE10005EFD20
07FB000002CFC0
07FC0000001EF6
02FF40000009FA
008FE5000008FB
0009FFB2000CF9
00005EFF61AFF3
0000019FFFFF80
00000006FFE600
00000000AF7000
000000008FB000
3D300000CFA000
AFF8203AFF5000
09FFFFFFF90000
003ADFEB500000
ENDCHAR
STARTCHAR dieresis
ENCODING 168
SWIDTH 600 0
DWIDTH 19 0
BBX 10 3 7 19
BITMAP
4ED2005ED1
CFF400CFF3
8EA0008EA0
ENDCHAR
STARTCHAR copyright
ENCODING 169
SWIDTH 600 0
DWIDTH 19 0
BBX 19 21 0 0
BITMAP
000000016BDEEC710000
0000007EFFFFFFFD2000
00001CFE942015CFE100
0001CFA200000009F900
000AF80000000000CE10
005F90004AEEC3005F40
00CD101AFFFFFE201F70
04F600AFE6115E300E80
09E005FE200001000D80
0CA00BF6000000000E70
0F600EF1000000001F60
1F501FE0000000004F30
3F400FF1000010008E00
2F400CFB203B9001E900
1F7004FFFFFF7008F300
0DB0004BEEB4004FA000
09F30000000004EE1000
03FD100000007FF40000
009FE720137DFE400000
0009FFFFFFFFA2000000
00004AEFEC8300000000
ENDCHAR
STARTCHAR ordfeminine
ENCODING 170
SWIDTH 600 0
DWIDTH 19 0
BBX 12 11 5 12
BITMAP
00018DFD54F5
003EFFFFFCF2
01EFB3028FE0
09FB00002FB0
0EF200005F80
3FB000008F50
5FA00000BF20
5FC00001EE00
2FF8116EFB00
0BFFFFE8F800
01AEEB315200
ENDCHAR
STARTCHAR guillemotleft
ENCODING 171
SWIDTH 600 0
DWIDTH 19 0
BBX 15 13 2 2
BITMAP
000002B100000A50
00003EE30001BF70
0004EF50001CF900
005FF60002DFB000
06FF80003EFC1000
5FFA0001EFD10000
8FD00003FF300000
9FF20004FF700000
1EFA0000AFE10000
05FF20001EF70000
009FA00004FE1000
001DF300009F7000
0004A100001B3000
ENDCHAR
STARTCHAR logicalnot
ENCODING 172
SWIDTH 600 0
DWIDTH 19 0
BBX 15 8 2 4
BITMAP
3FFFFFFFFFFFFF60
3FFFFFFFFFFFFF60
0000000000008F60
0000000000008F60
0000000000008F60
0000000000008F60
0000000000008F60
0000000000008F60
ENDCHAR
STARTCHAR uni00AD
ENCODING 173
SWIDTH 600 0
DWIDTH 19 0
BBX 15 2 2 10
BITMAP
3FFFFFFFFFFFFF60
3FFFFFFFFFFFFF60
ENDCHAR
STARTCHAR registered
ENCODING 174
SWIDTH 600 0
DWIDTH 19 0
BBX 13 13 5 10
BITMAP
00006BEFD81000
002DFFFFFFD100
02EF94113AF900
0CE30000008F10
5F309FFE901F40
AA00D618E00E40
D502FFFC400F30
E406D09A004F10
D609903F20CB00
AD1000001AF300
4FD51026DF7000
09FFFFFFF70000
005CEEC8200000
ENDCHAR
STARTCHAR macron
ENCODING 175
SWIDTH 600 0
DWIDTH 19 0
BBX 9 2 7 19
BITMAP
5FFFFFFFC0
8FFFFFFF90
ENDCHAR
STARTCHAR degree
ENCODING 176
SWIDTH 600 0
DWIDTH 19 0
BBX 9 8 7 14
BITMAP
006CEE9100
0AFFFFFA00
5FB312CF10
BD10006F20
DA0000AF10
CE4129F900
6FFFFFD100
07DFD81000
ENDCHAR
STARTCHAR plusminus
ENCODING 177
SWIDTH 600 0
DWIDTH 19 0
BBX 15 18 2 0
BITMAP
0000006F90000000
0000006F90000000
0000006F90000000
0000006F90000000
0000006F90000000
0000006F90000000
3FFFFFFFFFFFFF60
3FFFFFFFFFFFFF60
0000006F90000000
0000006F90000000
0000006F90000000
0000006F90000000
0000006F90000000
0000006F90000000
0000000000000000
0000000000000000
3FFFFFFFFFFFFF60
3FFFFFFFFFFFFF60
ENDCHAR
STARTCHAR two.sups
ENCODING 178
SWIDTH 600 0
DWIDTH 19 0
BBX 11 13 5 12
BITMAP
00004CED9100
0007FFFFFC00
001ED314EF40
000310009F50
00000000AF30
00000001EC00
0000000AF300
000000AF5000
00001BF50000
0004DD300000
018FB1000000
0DFFFFFFF400
2FFFFFFFF200
ENDCHAR
STARTCHAR three.sups
ENCODING 179
SWIDTH 600 0
DWIDTH 19 0
BBX 10 13 6 12
BITMAP
0006CEEA20
00BFFFFFD1
0089203DF4
0000000AF4
0000138FC0
0007FFFA10
0009FFD400
000016EE20
0000006F80
7600006F90
DF7115EF50
2EFFFFFA00
02AEFC6000
ENDCHAR
STARTCHAR acute
ENCODING 180
SWIDTH 600 0
DWIDTH 19 0
BBX 8 6 9 19
BITMAP
00001B30
0002DFD1
003EFE50
05FFC200
5FF80000
1B400000
ENDCHAR
STARTCHAR uni00B5
ENCODING 181
SWIDTH 600 0
DWIDTH 19 0
BBX 19 22 -1 -6
BITMAP
00001FF500000000FF60
00004FF200000003FF30
00007FE000000006FF00
0000AFB000000009FC00
0000DF800000000CF900
0001FF500000000EF500
0004FF200000002FF200
0007FE000000005FE000
000AFB000000008FB000
000DF800000000BF8000
001FF500000002EF5000
004FF50000002DFF2000
007FF7000005ECFE0000
00AFFE4014BFA4FD0000
00DFBFFFFFF703FFF100
01FF28EFDA3000BFE000
04FE0000000000000000
07FC0000000000000000
09F90000000000000000
0CF70000000000000000
0FF50000000000000000
3FF30000000000000000
ENDCHAR
STARTCHAR paragraph
ENCODING 182
SWIDTH 600 0
DWIDTH 19 0
BBX 16 24 2 -3
BITMAP
0000028BEFF42FF5
00019FFFFFF15FF2
001DFFFFFFD08FE0
00BFFFFFFFA0BFB0
05FFFFFFFF60EF80
0BFFFFFFFF32FF50
0FFFFFFFFF15FF20
1FFFFFFFFC08FE00
1FFFFFFFF90BFB00
0EFFFFFFF60DF800
08FFFFFFF31FF500
01CFFFFFF04FF200
0019FFFFC07FE000
0000169A70AFC000
0000000000DF9000
0000000001FF6000
0000000004FF3000
0000000007FF0000
000000000AFC0000
000000000DF90000
000000001FF60000
000000004FF30000
000000007FF10000
00000000AFC00000
ENDCHAR
STARTCHAR periodcentered
ENCODING 183
SWIDTH 600 0
DWIDTH 19 0
BBX 6 5 6 9
BITMAP
01AEC2
0CFFF9
2FFFF9
2FFFF4
07ED50
ENDCHAR
STARTCHAR cedilla
ENCODING 184
SWIDTH 600 0
DWIDTH 19 0
BBX 7 7 3 -7
BITMAP
0006F500
002E9000
00BFE700
0026FF20
0000EF10
014BF600
AEC83000
ENDCHAR
STARTCHAR one.sups
ENCODING 185
SWIDTH 600 0
DWIDTH 19 0
BBX 11 13 5 12
BITMAP
000025AFC000
000AFFFF9000
0000009F6000
000000BF3000
000000EF1000
000002FD0000
000005FA0000
000007F70000
00000AF40000
00000DF10000
00001FD00000
2FFFFFFFFF50
4FFFFFFFFF30
ENDCHAR
STARTCHAR ordmasculine
ENCODING 186
SWIDTH 600 0
DWIDTH 19 0
BBX 12 11 5 12
BITMAP
00006CEEB400
002CFFFFFF40
01CFD412BFC0
07FD10001FF1
0DF400000DF2
1FE000000EF1
2FD000004FD0
1FF10001CF70
0CFA204CFD10
04FFFFFFD200
004BEEC71000
ENDCHAR
STARTCHAR guillemotright
ENCODING 187
SWIDTH 600 0
DWIDTH 19 0
BBX 15 13 1 2
BITMAP
003B100001A50000
007FA00002FE1000
000DF600009FA000
0006FE20002FF600
0000DFB00009FE20
00006FF50002FFA0
00002FF40000CF90
0001DFE10009FF60
000BFE30007FF700
00AFD20005FF6000
08FD20004FE50000
6FC10002EE400000
4A100001B3000000
ENDCHAR
STARTCHAR onequarter
ENCODING 188
SWIDTH 600 0
DWIDTH 19 0
BBX 21 21 -1 0
BITMAP
00026BF800000000000000
003FFFF500000000003B10
00000CF30000000003EF50
00000FE0000000003EE500
00003FC000000003EE3000
00005F900000003EC20000
00008F60000004EB100000
0000BF3000001E90000000
0000EF0000000200000000
0001FC0000000000000000
0000000000000000000000
00000000000000A7000000
00000012000008F3000000
000002DA00005F50000000
00003EC10003F806700000
0005EC10002DA00EB00000
007FC10000CC102F800000
09FB100008FFFFFFFE0000
9FB100000AFFFFFFFC0000
3A1000000000009F100000
00000000000000DC000000
ENDCHAR
STARTCHAR onehalf
ENCODING 189
SWIDTH 600 0
DWIDTH 19 0
BBX 21 21 -1 0
BITMAP
00026BF800000000000000
003FFFF500000000003B10
00000CF30000000003EF50
00000FE0000000003EE500
00003FC000000003EE3000
00005F900000003EC20000
00008F60000004EB100000
0000BF3000001E90000000
0000EF0000000200000000
0001FC0000000000000000
0000000000000000000000
0000000000004BEE900000
000000120008FFFFF80000
000002DA002FB208FA0000
00003EC100030004F80000
0005EC100000000BE10000
007FC100000001BE300000
09FB100000004DC2000000
9FB100000019F700000000
3A10000003EFFFFFF90000
0000000006FFFFFFF70000
ENDCHAR
STARTCHAR threequarters
ENCODING 190
SWIDTH 600 0
DWIDTH 19 0
BBX 21 21 -1 0
BITMAP
00019EEB30000000000000
003EFFFFD0000000003B10
005C402EF000000003EF50
0000027FA00000003EE500
0000EFE700000003EE3000
0001FFFB1000003EC20000
0200029F700004EB100000
0DB3029F80001E90000000
06FFFFFE20000200000000
005CFDA200000000000000
0000000000000000000000
00000000000000A7000000
00000012000008F3000000
000002DA00005F50000000
00003EC10003F806700000
0005EC10002DA00EB00000
007FC10000CC102F800000
09FB100008FFFFFFFE0000
9FB100000AFFFFFFFC0000
3A1000000000009F100000
00000000000000DC000000
ENDCHAR
STARTCHAR questiondown
ENCODING 191
SWIDTH 600 0
DWIDTH 19 0
BBX 13 23 1 -7
BITMAP
000000003CE700
00000001EFFF10
00000004FFFF10
00000004FFFB00
00000000AEB200
00000000000000
00000000000000
00000000000000
00000000FF2000
00000004FE0000
0000000CF80000
000000AFE10000
00001BFE300000
0002CFD3000000
003EFC10000000
01EFB000000000
09FD1000000000
1FF60000000000
3FF40000001000
2FF8000005E400
0DFE61139FF600
04EFFFFFFE5000
002ADFEC710000
ENDCHAR
STARTCHAR Agrave
ENCODING 192
SWIDTH 600 0
DWIDTH 19 0
BBX 18 28 -1 0
BITMAP
00000000004A000000
0000000003FF800000
0000000000AFF50000
00000000000AFF3000
000000000000AFD100
0000000000000A6000
000000000000000000
000000000009FF8000
00000000003FFFA000
0000000000BF9FC000
0000000004FD3FE000
000000000CF61FF100
000000005FE00FF300
00000000DF700DF500
00000006FE100CF600
0000001EF8000BF800
0000007FE10009FA00
000001EF800008FC00
000009FF100007FE00
00002FF9000005FF10
0000AFFFFFFFFFFF20
0003FFFFFFFFFFFF40
000BFE20000001FF60
004FF800000000EF80
00CFE100000000DFA0
06FF6000000000BFC0
0DFC00000000009FE0
7FF400000000008FF1
ENDCHAR
STARTCHAR Aacute
ENCODING 193
SWIDTH 600 0
DWIDTH 19 0
BBX 18 28 -1 0
BITMAP
0000000000000003B2
000000000000007FFA
0000000000002BFFA2
000000000004EFC400
000000000001C60000
000000000000000000
000000000000000000
000000000009FF8000
00000000003FFFA000
0000000000BF9FC000
0000000004FD3FE000
000000000CF61FF100
000000005FE00FF300
00000000DF700DF500
00000006FE100CF600
0000001EF8000BF800
0000007FE10009FA00
000001EF800008FC00
000009FF100007FE00
00002FF9000005FF10
0000AFFFFFFFFFFF20
0003FFFFFFFFFFFF40
000BFE20000001FF60
004FF800000000EF80
00CFE100000000DFA0
06FF6000000000BFC0
0DFC00000000009FE0
7FF400000000008FF1
ENDCHAR
STARTCHAR Acircumflex
ENCODING 194
SWIDTH 600 0
DWIDTH 19 0
BBX 18 27 -1 0
BITMAP
000000000002EFF900
00000000003EFDFF40
0000000003EF807FD1
000000003EE50008FA
000000004C20000098
000000000000000000
000000000009FF8000
00000000003FFFA000
0000000000BF9FC000
0000000004FD3FE000
000000000CF61FF100
000000005FE00FF300
00000000DF700DF500
00000006FE100CF600
0000001EF8000BF800
0000007FE10009FA00
000001EF800008FC00
000009FF100007FE00
00002FF9000005FF10
0000AFFFFFFFFFFF20
0003FFFFFFFFFFFF40
000BFE20000001FF60
004FF800000000EF80
00CFE100000000DFA0
06FF6000000000BFC0
0DFC00000000009FE0
7FF400000000008FF1
ENDCHAR
STARTCHAR Atilde
ENCODING 195
SWIDTH 600 0
DWIDTH 19 0
BBX 20 28 -1 0
BITMAP
00000000003530000131
0000000009FFF90008F4
000000006FDAFFA14EE0
00000000EE104EFFFF50
00000002C70002CFD500
00000000000000000000
00000000000000000000
000000000009FF800000
00000000003FFFA00000
0000000000BF9FC00000
0000000004FD3FE00000
000000000CF61FF10000
000000005FE00FF30000
00000000DF700DF50000
00000006FE100CF60000
0000001EF8000BF80000
0000007FE10009FA0000
000001EF800008FC0000
000009FF100007FE0000
00002FF9000005FF1000
0000AFFFFFFFFFFF2000
0003FFFFFFFFFFFF4000
000BFE20000001FF6000
004FF800000000EF8000
00CFE100000000DFA000
06FF6000000000BFC000
0DFC00000000009FE000
7FF400000000008FF100
ENDCHAR
STARTCHAR Adieresis
ENCODING 196
SWIDTH 600 0
DWIDTH 19 0
BBX 18 26 -1 0
BITMAP
0000000005EA0006E9
000000000DFE000EFD
0000000009E6000AE6
000000000000000000
000000000000000000
000000000009FF8000
00000000003FFFA000
0000000000BF9FC000
0000000004FD3FE000
000000000CF61FF100
000000005FE00FF300
00000000DF700DF500
00000006FE100CF600
0000001EF8000BF800
0000007FE10009FA00
000001EF800008FC00
000009FF100007FE00
00002FF9000005FF10
0000AFFFFFFFFFFF20
0003FFFFFFFFFFFF40
000BFE20000001FF60
004FF800000000EF80
00CFE100000000DFA0
06FF6000000000BFC0
0DFC00000000009FE0
7FF400000000008FF1
ENDCHAR
STARTCHAR Aring
ENCODING 197
SWIDTH 600 0
DWIDTH 19 0
BBX 18 27 -1 0
BITMAP
000000000002AEEA10
00000000001DA12E90
00000000005F200BB0
00000000004F616F50
000000000007DEC500
000000000000000000
000000000009FF8000
00000000003FFFA000
0000000000BF9FC000
0000000004FD3FE000
000000000CF61FF100
000000005FE00FF300
00000000DF700DF500
00000006FE100CF600
0000001EF8000BF800
0000007FE10009FA00
000001EF800008FC00
000009FF100007FE00
00002FF9000005FF10
0000AFFFFFFFFFFF20
0003FFFFFFFFFFFF40
000BFE20000001FF60
004FF800000000EF80
00CFE100000000DFA0
06FF6000000000BFC0
0DFC00000000009FE0
7FF400000000008FF1
ENDCHAR
STARTCHAR AE
ENCODING 198
SWIDTH 600 0
DWIDTH 19 0
BBX 23 21 -2 0
BITMAP
0000000000008FFFFFFFFFA0
000000000002FFFFFFFFFF70
00000000000BF9FF20000000
00000000005FE5FE00000000
0000000001EF67FB00000000
0000000008FC0AF800000000
000000003FF30DF500000000
00000000CFA01FF200000000
00000006FE204FE000000000
0000001EF7007FFFFFFA0000
0000009FD1009FFFFFF70000
000003FF5000CF5000000000
00000CFB0000FF2000000000
00006FFFFFFFFE0000000000
0001EFFFFFFFFB0000000000
000AFE10000AF80000000000
004FF600000DF60000000000
00DFB000001FF30000000000
07FF3000004FE00000000000
2EF80000007FFFFFFFF30000
AFD1000000AFFFFFFFF00000
ENDCHAR
STARTCHAR Ccedilla
ENCODING 199
SWIDTH 600 0
DWIDTH 19 0
BBX 17 28 2 -7
BITMAP
000000039CEFD92000
0000019FFFFFFFE500
00002DFFA4114CFE30
0002EFD3000001CB10
000CFE200000001000
008FF4000000000000
01EF90000000000000
07FF20000000000000
0DFB00000000000000
1FF700000000000000
5FF300000000000000
6FF200000000000000
8FF100000000000000
7FF100000000000000
6FF300000000000000
3FF700000000000000
0DFD00000000000000
06FF90000001920000
00BFFB41027EFB0000
001AFFFFFFFFB20000
00004ADEED94000000
000000BE1000000000
000006F40000000000
00002EFC4000000000
000002AFC000000000
0000004FB000000000
000026DE3000000000
000EDB710000000000
ENDCHAR
STARTCHAR Egrave
ENCODING 200
SWIDTH 600 0
DWIDTH 19 0
BBX 17 28 2 0
BITMAP
000000003A00000000
00000002EF90000000
000000008FF7000000
0000000008FF400000
00000000009FE10000
000000000009700000
000000000000000000
0000EFFFFFFFFFFFE0
0002FFFFFFFFFFFFB0
0005FF100000000000
0008FD000000000000
000CFA000000000000
000EF7000000000000
002FF4000000000000
006FF1000000000000
009FE0000000000000
00CFFFFFFFFFF70000
00EFFFFFFFFFF40000
03FF50000000000000
06FF20000000000000
09FE00000000000000
0CFB00000000000000
0EF800000000000000
3FF500000000000000
6FF200000000000000
9FE000000000000000
CFFFFFFFFFFFF70000
EFFFFFFFFFFFF40000
ENDCHAR
STARTCHAR Eacute
ENCODING 201
SWIDTH 600 0
DWIDTH 19 0
BBX 17 28 2 0
BITMAP
00000000000002B300
0000000000006EFB00
00000000001BFFB300
0000000003EFD50000
0000000000B7000000
000000000000000000
000000000000000000
0000EFFFFFFFFFFFE0
0002FFFFFFFFFFFFB0
0005FF100000000000
0008FD000000000000
000CFA000000000000
000EF7000000000000
002FF4000000000000
006FF1000000000000
009FE0000000000000
00CFFFFFFFFFF70000
00EFFFFFFFFFF40000
03FF50000000000000
06FF20000000000000
09FE00000000000000
0CFB00000000000000
0EF800000000000000
3FF500000000000000
6FF200000000000000
9FE000000000000000
CFFFFFFFFFFFF70000
EFFFFFFFFFFFF40000
ENDCHAR
STARTCHAR Ecircumflex
ENCODING 202
SWIDTH 600 0
DWIDTH 19 0
BBX 17 27 2 0
BITMAP
0000000002DFFA0000
000000002DFDFF5000
00000002DF916FE200
0000002DF60007FB00
0000003C3000007900
000000000000000000
0000EFFFFFFFFFFFE0
0002FFFFFFFFFFFFB0
0005FF100000000000
0008FD000000000000
000CFA000000000000
000EF7000000000000
002FF4000000000000
006FF1000000000000
009FE0000000000000
00CFFFFFFFFFF70000
00EFFFFFFFFFF40000
03FF50000000000000
06FF20000000000000
09FE00000000000000
0CFB00000000000000
0EF800000000000000
3FF500000000000000
6FF200000000000000
9FE000000000000000
CFFFFFFFFFFFF70000
EFFFFFFFFFFFF40000
ENDCHAR
STARTCHAR Edieresis
ENCODING 203
SWIDTH 600 0
DWIDTH 19 0
BBX 17 26 2 0
BITMAP
00000004EB0005EA00
0000000BFF000CFE00
00000007E70008E700
000000000000000000
000000000000000000
0000EFFFFFFFFFFFE0
0002FFFFFFFFFFFFB0
0005FF100000000000
0008FD000000000000
000CFA000000000000
000EF7000000000000
002FF4000000000000
006FF1000000000000
009FE0000000000000
00CFFFFFFFFFF70000
00EFFFFFFFFFF40000
03FF50000000000000
06FF20000000000000
09FE00000000000000
0CFB00000000000000
0EF800000000000000
3FF500000000000000
6FF200000000000000
9FE000000000000000
CFFFFFFFFFFFF70000
EFFFFFFFFFFFF40000
ENDCHAR
STARTCHAR Igrave
ENCODING 204
SWIDTH 600 0
DWIDTH 19 0
BBX 18 28 1 0
BITMAP
000000004A00000000
00000003FF80000000
00000000AFF5000000
000000000AFF300000
0000000000AFD10000
00000000000A600000
000000000000000000
0000CFFFFFFFFFFFF3
0001FFFFFFFFFFFFF0
000000000FF8000000
000000003FF5000000
000000006FF2000000
000000009FE0000000
00000000CFB0000000
00000000EF80000000
00000003FF50000000
00000006FF20000000
00000009FE00000000
0000000CFB00000000
0000000EF800000000
0000002FF500000000
0000005FF200000000
0000008FE000000000
000000BFB000000000
000000EF8000000000
000002FF5000000000
8FFFFFFFFFFFF60000
CFFFFFFFFFFFF30000
ENDCHAR
STARTCHAR Iacute
ENCODING 205
SWIDTH 600 0
DWIDTH 19 0
BBX 18 28 1 0
BITMAP
00000000000003B200
0000000000007FFA00
00000000002BFFA200
0000000004EFC40000
0000000001C6000000
000000000000000000
000000000000000000
0000CFFFFFFFFFFFF3
0001FFFFFFFFFFFFF0
000000000FF8000000
000000003FF5000000
000000006FF2000000
000000009FE0000000
00000000CFB0000000
00000000EF80000000
00000003FF50000000
00000006FF20000000
00000009FE00000000
0000000CFB00000000
0000000EF800000000
0000002FF500000000
0000005FF200000000
0000008FE000000000
000000BFB000000000
000000EF8000000000
000002FF5000000000
8FFFFFFFFFFFF60000
CFFFFFFFFFFFF30000
ENDCHAR
STARTCHAR Icircumflex
ENCODING 206
SWIDTH 600 0
DWIDTH 19 0
BBX 18 27 1 0
BITMAP
0000000002EFF90000
000000003EFDFF4000
00000003EF807FD100
0000003EE50008FA00
0000004C2000009800
000000000000000000
0000CFFFFFFFFFFFF3
0001FFFFFFFFFFFFF0
000000000FF8000000
000000003FF5000000
000000006FF2000000
000000009FE0000000
00000000CFB0000000
00000000EF80000000
00000003FF50000000
00000006FF20000000
00000009FE00000000
0000000CFB00000000
0000000EF800000000
0000002FF500000000
0000005FF200000000
0000008FE000000000
000000BFB000000000
000000EF8000000000
000002FF5000000000
8FFFFFFFFFFFF60000
CFFFFFFFFFFFF30000
ENDCHAR
STARTCHAR Idieresis
ENCODING 207
SWIDTH 600 0
DWIDTH 19 0
BBX 18 26 1 0
BITMAP
00000005EA0006E900
0000000DFE000EFD00
00000009E6000AE600
000000000000000000
000000000000000000
0000CFFFFFFFFFFFF3
0001FFFFFFFFFFFFF0
000000000FF8000000
000000003FF5000000
000000006FF2000000
000000009FE0000000
00000000CFB0000000
00000000EF80000000
00000003FF50000000
00000006FF20000000
00000009FE00000000
0000000CFB00000000
0000000EF800000000
0000002FF500000000
0000005FF200000000
0000008FE000000000
000000BFB000000000
000000EF8000000000
000002FF5000000000
8FFFFFFFFFFFF60000
CFFFFFFFFFFFF30000
ENDCHAR
STARTCHAR Eth
ENCODING 208
SWIDTH 600 0
DWIDTH 19 0
BBX 19 21 0 0
BITMAP
00000BFFFFEDA6000000
00000EFFFFFFFFE50000
00002FF500149EFF6000
00005FF2000003DFF200
00008FE00000004FF900
0000BFB00000000BFE00
0000EF8000000007FF20
0002FF5000000005FF40
0005FF2000000004FF40
0CEFFFFFFF900005FF30
2FFFFFFFFF500006FF20
000DF90000000009FE00
001FF6000000000CFB00
004FF3000000002FF700
007FF0000000009FF100
00AFC000000003FF9000
00DF900000002DFD1000
01FF60000005EFE30000
05FF200126BFFE300000
08FFFFFFFFFF91000000
0BFFFFFEDB7200000000
ENDCHAR
STARTCHAR Ntilde
ENCODING 209
SWIDTH 600 0
DWIDTH 19 0
BBX 19 28 0 0
BITMAP
00000000035300001310
000000009FFF90008F40
00000006FDAFFA14EE00
0000000EE104EFFFF500
0000002C70002CFD5000
00000000000000000000
00000000000000000000
00002FFA00000000CF90
00005FFE00000000FF60
00008FFF50000003FF30
0000BFBF90000006FF00
0000EF5FE0000009FC00
0002FF1DF400000CF900
0005FD09F900000EF600
0008FB05FD00002FF300
000BF901EF30005FF000
000EF600AF80008FC000
002FF3005FD000BF9000
005FF1001FF300EF6000
008FD0000BF702FF3000
00BFA00006FC04FF0000
00EF700001FF17FC0000
02FF400000BF59F90000
05FF1000007F9BF60000
08FD0000002FDDF30000
0BFA0000000CFFF00000
0EF700000007FFC00000
2FF400000002FF900000
ENDCHAR
STARTCHAR Ograve
ENCODING 210
SWIDTH 600 0
DWIDTH 19 0
BBX 18 28 1 0
BITMAP
000000004A00000000
00000003FF80000000
00000000AFF5000000
000000000AFF300000
0000000000AFD10000
00000000000A600000
000000000000000000
00000017CEFDA40000
000005EFFFFFFF9000
00009FFC4113AFF800
0007FF80000009FF20
004FF800000001EF90
00CFC000000000AFD0
05FF50000000007FF0
0AFD00000000006FF2
1FF800000000007FF2
4FF400000000007FF0
7FF10000000000AFE0
9FE00000000000CFB0
AFD00000000002FF80
AFD00000000006FF20
9FE0000000000DFC00
6FF2000000006FF400
2FF700000002EFB000
0BFE2000002DFD1000
02EFD51138EFD20000
003EFFFFFFFB100000
00018CEFDA40000000
ENDCHAR
STARTCHAR Oacute
ENCODING 211
SWIDTH 600 0
DWIDTH 19 0
BBX 18 28 1 0
BITMAP
00000000000003B200
0000000000007FFA00
00000000002BFFA200
0000000004EFC40000
0000000001C6000000
000000000000000000
000000000000000000
00000017CEFDA40000
000005EFFFFFFF9000
00009FFC4113AFF800
0007FF80000009FF20
004FF800000001EF90
00CFC000000000AFD0
05FF50000000007FF0
0AFD00000000006FF2
1FF800000000007FF2
4FF400000000007FF0
7FF10000000000AFE0
9FE00000000000CFB0
AFD00000000002FF80
AFD00000000006FF20
9FE0000000000DFC00
6FF2000000006FF400
2FF700000002EFB000
0BFE2000002DFD1000
02EFD51138EFD20000
003EFFFFFFFB100000
00018CEFDA40000000
ENDCHAR
STARTCHAR Ocircumflex
ENCODING 212
SWIDTH 600 0
DWIDTH 19 0
BBX 18 27 1 0
BITMAP
0000000002EFF90000
000000003EFDFF4000
00000003EF807FD100
0000003EE50008FA00
0000004C2000009800
000000000000000000
00000017CEFDA40000
000005EFFFFFFF9000
00009FFC4113AFF800
0007FF80000009FF20
004FF800000001EF90
00CFC000000000AFD0
05FF50000000007FF0
0AFD00000000006FF2
1FF800000000007FF2
4FF400000000007FF0
7FF10000000000AFE0
9FE00000000000CFB0
AFD00000000002FF80
AFD00000000006FF20
9FE0000000000DFC00
6FF2000000006FF400
2FF700000002EFB000
0BFE2000002DFD1000
02EFD51138EFD20000
003EFFFFFFFB100000
00018CEFDA40000000
ENDCHAR
STARTCHAR Otilde
ENCODING 213
SWIDTH 600 0
DWIDTH 19 0
BBX 18 28 1 0
BITMAP
000000003530000131
00000009FFF90008F4
0000006FDAFFA14EE0
000000EE104EFFFF50
000002C70002CFD500
000000000000000000
000000000000000000
00000017CEFDA40000
000005EFFFFFFF9000
00009FFC4113AFF800
0007FF80000009FF20
004FF800000001EF90
00CFC000000000AFD0
05FF50000000007FF0
0AFD00000000006FF2
1FF800000000007FF2
4FF400000000007FF0
7FF10000000000AFE0
9FE00000000000CFB0
AFD00000000002FF80
AFD00000000006FF20
9FE0000000000DFC00
6FF2000000006FF400
2FF700000002EFB000
0BFE2000002DFD1000
02EFD51138EFD20000
003EFFFFFFFB100000
00018CEFDA40000000
ENDCHAR
STARTCHAR Odieresis
ENCODING 214
SWIDTH 600 0
DWIDTH 19 0
BBX 18 26 1 0
BITMAP
00000005EA0006E900
0000000DFE000EFD00
00000009E6000AE600
000000000000000000
000000000000000000
00000017CEFDA40000
000005EFFFFFFF9000
00009FFC4113AFF800
0007FF80000009FF20
004FF800000001EF90
00CFC000000000AFD0
05FF50000000007FF0
0AFD00000000006FF2
1FF800000000007FF2
4FF400000000007FF0
7FF10000000000AFE0
9FE00000000000CFB0
AFD00000000002FF80
AFD00000000006FF20
9FE0000000000DFC00
6FF2000000006FF400
2FF700000002EFB000
0BFE2000002DFD1000
02EFD51138EFD20000
003EFFFFFFFB100000
00018CEFDA40000000
ENDCHAR
STARTCHAR multiply
ENCODING 215
SWIDTH 600 0
DWIDTH 19 0
BBX 13 13 3 4
BITMAP
1B300000001B20
7FE2000001CFA0
09FD20001CFB10
00AFD201BFC100
000AFD2BFC1000
0000AFFFC10000
00001EFF200000
0000AFFFC10000
000AFD2BFC1000
00AFD201BFC100
0AFD20001CFC10
7FE2000001CFA0
1B300000001B20
ENDCHAR
STARTCHAR Oslash
ENCODING 216
SWIDTH 600 0
DWIDTH 19 0
BBX 21 23 -1 -1
BITMAP
0000000000000000000810
0000000017CEFDA400AFB0
00000005EFFFFFFF98FE30
0000009FFC4113AFFFF400
000007FF7000000AFF7000
00004FF80000003EFF8000
0000CFC0000002EFEFD000
0005FF4000002DFA6FF000
000BFC000001CFB05FF100
001FF700000BFC105FF200
004FF30000AFD2006FF000
007FF00009FE20008FE000
009FD0007FF30000BFB000
00AFC006FF500001FF8000
00AFC04FF6000005FF2000
008FE3EF8000000CFC0000
006FFEF90000005FF40000
001FFFA0000002EFB00000
001EFF3000002DFD100000
00AFFFE61138EFD2000000
09FE5EFFFFFFFB10000000
3FF3018CEFDA4000000000
0450000000000000000000
ENDCHAR
STARTCHAR Ugrave
ENCODING 217
SWIDTH 600 0
DWIDTH 19 0
BBX 17 28 2 0
BITMAP
00000004A000000000
0000003FF800000000
0000000AFF50000000
00000000AFF3000000
000000000AFD100000
0000000000A6000000
000000000000000000
005FF200000000BFB0
008FE000000000EF80
00BFB000000002FF50
00EF8000000005FF20
02FF5000000008FE00
05FF200000000BFA00
08FE000000000EF700
0BFB000000002FF400
0EF8000000005FF100
2FF5000000008FD000
5FF200000000BFA000
8FE000000000EF7000
BFB000000002FF4000
DF9000000005FF1000
EF800000000AFC0000
EFA00000001EF70000
CFC00000008FF10000
7FF5000004FF800000
1EFE62027FFC000000
04EFFFFFFFB1000000
0028CEFDA500000000
ENDCHAR
STARTCHAR Uacute
ENCODING 218
SWIDTH 600 0
DWIDTH 19 0
BBX 17 28 2 0
BITMAP
0000000000003B2000
000000000007FFA000
0000000002BFFA2000
000000004EFC400000
000000001C60000000
000000000000000000
000000000000000000
005FF200000000BFB0
008FE000000000EF80
00BFB000000002FF50
00EF8000000005FF20
02FF5000000008FE00
05FF200000000BFA00
08FE000000000EF700
0BFB000000002FF400
0EF8000000005FF100
2FF5000000008FD000
5FF200000000BFA000
8FE000000000EF7000
BFB000000002FF4000
DF9000000005FF1000
EF800000000AFC0000
EFA00000001EF70000
CFC00000008FF10000
7FF5000004FF800000
1EFE62027FFC000000
04EFFFFFFFB1000000
0028CEFDA500000000
ENDCHAR
STARTCHAR Ucircumflex
ENCODING 219
SWIDTH 600 0
DWIDTH 19 0
BBX 17 27 2 0
BITMAP
000000002EFF900000
00000003EFDFF40000
0000003EF807FD1000
000003EE50008FA000
000004C20000098000
000000000000000000
005FF200000000BFB0
008FE000000000EF80
00BFB000000002FF50
00EF8000000005FF20
02FF5000000008FE00
05FF200000000BFA00
08FE000000000EF700
0BFB000000002FF400
0EF8000000005FF100
2FF5000000008FD000
5FF200000000BFA000
8FE000000000EF7000
BFB000000002FF4000
DF9000000005FF1000
EF800000000AFC0000
EFA00000001EF70000
CFC00000008FF10000
7FF5000004FF800000
1EFE62027FFC000000
04EFFFFFFFB1000000
0028CEFDA500000000
ENDCHAR
STARTCHAR Udieresis
ENCODING 220
SWIDTH 600 0
DWIDTH 19 0
BBX 17 26 2 0
BITMAP
0000005EA0006E9000
000000DFE000EFD000
0000009E6000AE6000
000000000000000000
000000000000000000
005FF200000000BFB0
008FE000000000EF80
00BFB000000002FF50
00EF8000000005FF20
02FF5000000008FE00
05FF200000000BFA00
08FE000000000EF700
0BFB000000002FF400
0EF8000000005FF100
2FF5000000008FD000
5FF200000000BFA000
8FE000000000EF7000
BFB000000002FF4000
DF9000000005FF1000
EF800000000AFC0000
EFA00000001EF70000
CFC00000008FF10000
7FF5000004FF800000
1EFE62027FFC000000
04EFFFFFFFB1000000
0028CEFDA500000000
ENDCHAR
STARTCHAR Yacute
ENCODING 221
SWIDTH 600 0
DWIDTH 19 0
BBX 17 28 3 0
BITMAP
000000000006900000
0000000002BFF40000
000000005EFE700000
00000009FF91000000
00000005B300000000
000000000000000000
000000000000000000
5FF30000000001DFA0
1FF7000000000AFE10
0BFC000000005FF400
06FF20000001EF9000
01FF6000000BFD1000
00BFB000006FF30000
006FF10002EF700000
002FF5000CFB000000
000CF9007FE2000000
0007FD02EF50000000
0002FF2BFA00000000
0000CFBFD100000000
00008FFF4000000000
00003FF80000000000
00004FF20000000000
00008FE00000000000
0000BFB00000000000
0000EF800000000000
0002FF500000000000
0005FF200000000000
0008FE000000000000
ENDCHAR
STARTCHAR Thorn
ENCODING 222
SWIDTH 600 0
DWIDTH 19 0
BBX 17 21 1 0
BITMAP
00008FF00000000000
0000BFC00000000000
0000EFA00000000000
0002FF700000000000
0005FFFFFFFEC82000
0008FFFFFFFFFFE500
000BFD0000138EFE20
000EF900000004FF70
002FF600000000DF90
005FF300000000CF90
008FF000000000EF70
00BFC000000005FF30
00EF900000003EFA00
01FF6000125AFFD100
04FFFFFFFFFFF91000
07FFFFFFEDB7200000
0AFB00000000000000
0DF800000000000000
1FF500000000000000
4FF300000000000000
7FF000000000000000
ENDCHAR
STARTCHAR germandbls
ENCODING 223
SWIDTH 600 0
DWIDTH 19 0
BBX 16 23 1 0
BITMAP
00000005BEFDB400
000001BFFFFFFF70
00000CFF7213CFF1
00008FF400003FF5
0001EF9000001FF5
0005FF2000003FF2
0009FC000000BFA0
000DF900000AFD10
001FF600009FC100
004FF30008FC1000
007FE0003FF30000
00AFC0005FF10000
00DF90004FF90000
01FF600009FFA100
04FF3000009FFD20
07FE00000005EFD1
0AFC000000003FF9
0DF90000000008FE
1FF60000000005FF
4FF3002100000AFC
7FF000CD5113AFF5
AFC002DFFFFFFF80
DF900017BEFDA300
ENDCHAR
STARTCHAR agrave
ENCODING 224
SWIDTH 600 0
DWIDTH 19 0
BBX 17 25 1 0
BITMAP
000000001B20000000
00000001EFB0000000
000000009FF6000000
000000000CFE100000
0000000002EFA00000
00000000004FF40000
000000000007800000
000000000000000000
000000000000000000
0000016CEED9206F90
00004DFFFFFFE4AF60
0005FFE72027EEEF30
003FFC1000003EFF10
00CFD100000008FC00
05FF500000000BFA00
0BFD000000000EF700
0FF8000000002FF400
3FF5000000005FF100
4FF3000000008FD000
5FF300000000BFA000
4FF600000003EF7000
1FFC0000005EFF4000
09FFB3015BFAFF1000
01CFFFFFFE54FD0000
0017CEEC7106FA0000
ENDCHAR
STARTCHAR aacute
ENCODING 225
SWIDTH 600 0
DWIDTH 19 0
BBX 17 25 1 0
BITMAP
000000000000069000
0000000000008FF700
00000000000AFFB100
0000000001BFF70000
000000000CFD300000
000000000691000000
000000000000000000
000000000000000000
000000000000000000
0000016CEED9206F90
00004DFFFFFFE4AF60
0005FFE72027EEEF30
003FFC1000003EFF10
00CFD100000008FC00
05FF500000000BFA00
0BFD000000000EF700
0FF8000000002FF400
3FF5000000005FF100
4FF3000000008FD000
5FF300000000BFA000
4FF600000003EF7000
1FFC0000005EFF4000
09FFB3015BFAFF1000
01CFFFFFFE54FD0000
0017CEEC7106FA0000
ENDCHAR
STARTCHAR acircumflex
ENCODING 226
SWIDTH 600 0
DWIDTH 19 0
BBX 17 24 1 0
BITMAP
0000000003EFF40000
000000002EFFFD0000
00000001DFC3EF7000
0000001CFA004FE100
000000BF900008F900
00000087000000A400
000000000000000000
000000000000000000
0000016CEED9206F90
00004DFFFFFFE4AF60
0005FFE72027EEEF30
003FFC1000003EFF10
00CFD100000008FC00
05FF500000000BFA00
0BFD000000000EF700
0FF8000000002FF400
3FF5000000005FF100
4FF3000000008FD000
5FF300000000BFA000
4FF600000003EF7000
1FFC0000005EFF4000
09FFB3015BFAFF1000
01CFFFFFFE54FD0000
0017CEEC7106FA0000
ENDCHAR
STARTCHAR atilde
ENCODING 227
SWIDTH 600 0
DWIDTH 19 0
BBX 18 23 1 0
BITMAP
000000028A60000571
0000002EFFF8000DE0
0000009F84CF817F90
000001FC001DFFFE10
000003C60002CFC300
000000000000000000
000000000000000000
0000016CEED9206F90
00004DFFFFFFE4AF60
0005FFE72027EEEF30
003FFC1000003EFF10
00CFD100000008FC00
05FF500000000BFA00
0BFD000000000EF700
0FF8000000002FF400
3FF5000000005FF100
4FF3000000008FD000
5FF300000000BFA000
4FF600000003EF7000
1FFC0000005EFF4000
09FFB3015BFAFF1000
01CFFFFFFE54FD0000
0017CEEC7106FA0000
ENDCHAR
STARTCHAR adieresis
ENCODING 228
SWIDTH 600 0
DWIDTH 19 0
BBX 17 22 1 0
BITMAP
0000000AE7000BE600
0000004FFC005FFB00
0000002DE4002DD300
000000000000000000
000000000000000000
000000000000000000
0000016CEED9206F90
00004DFFFFFFE4AF60
0005FFE72027EEEF30
003FFC1000003EFF10
00CFD100000008FC00
05FF500000000BFA00
0BFD000000000EF700
0FF8000000002FF400
3FF5000000005FF100
4FF3000000008FD000
5FF300000000BFA000
4FF600000003EF7000
1FFC0000005EFF4000
09FFB3015BFAFF1000
01CFFFFFFE54FD0000
0017CEEC7106FA0000
ENDCHAR
STARTCHAR aring
ENCODING 229
SWIDTH 600 0
DWIDTH 19 0
BBX 17 24 1 0
BITMAP
0000000005CFD80000
000000006F617F7000
00000000EB000FA000
00000001F9002F8000
00000000DD22BE1000
000000002BEEA20000
000000000000000000
000000000000000000
0000016CEED9206F90
00004DFFFFFFE4AF60
0005FFE72027EEEF30
003FFC1000003EFF10
00CFD100000008FC00
05FF500000000BFA00
0BFD000000000EF700
0FF8000000002FF400
3FF5000000005FF100
4FF3000000008FD000
5FF300000000BFA000
4FF600000003EF7000
1FFC0000005EFF4000
09FFB3015BFAFF1000
01CFFFFFFE54FD0000
0017CEEC7106FA0000
ENDCHAR
STARTCHAR ae
ENCODING 230
SWIDTH 600 0
DWIDTH 19 0
BBX 21 16 -1 0
BITMAP
000039DEEA10029DFD6000
001AFFFFFFC05EFFFFF500
001ED6204DF8FE6119FB00
0003000007FFE20001FF00
0000000004FF600000DF20
0000000005FD000000EF20
00000158BEFB666666FF10
0003AFFFFFFFFFFFFFFC00
009FFEA62EF99999999500
0AFE60001FE00000000000
4FF300002FE00000000000
9FB000002FF10000000000
AFA00002CFF70000010000
8FE4138EEAFE5113AC0000
3FFFFFFC21CFFFFFFD1000
04CEEB500018DFEB600000
ENDCHAR
STARTCHAR ccedilla
ENCODING 231
SWIDTH 600 0
DWIDTH 19 0
BBX 16 23 2 -7
BITMAP
0000027BEFDB6100
00008FFFFFFFFD30
001CFFB51026EFE2
00CFF50000001C80
07FF500000000000
1EF9000000000000
6FF2000000000000
AFC0000000000000
CFA0000000000000
DFA0000000000000
BFC0000000000000
8FF2000000000000
2FFC10000005D100
08FFD62015BFF500
008FFFFFFFFD5000
00028CEFDA600000
000005F600000000
00001EA000000000
0000AFE800000000
000016FF30000000
000000DF20000000
00014AF800000000
008EC93000000000
ENDCHAR
STARTCHAR egrave
ENCODING 232
SWIDTH 600 0
DWIDTH 19 0
BBX 15 25 2 0
BITMAP
00000003B1000000
0000004FF8000000
0000000CFF300000
00000002EFC00000
000000004FF60000
0000000007FE1000
0000000000A60000
0000000000000000
0000000000000000
0000049DEEC71000
0002BFFFFFFFD200
003EFF93016EFC00
02EFE3000003FF50
0AFF30000000BF90
3FF8000000008FB0
8FF1000000008FB0
CFFFFFFFFFFFFFA0
EFFFFFFFFFFFFF80
FF70000000000000
EF80000000000000
BFC0000000000000
6FF600000006A000
0DFF931126CFF200
02CFFFFFFFFC3000
0006BEFEC9400000
ENDCHAR
STARTCHAR eacute
ENCODING 233
SWIDTH 600 0
DWIDTH 19 0
BBX 15 25 2 0
BITMAP
0000000000009600
00000000001AFF30
0000000001CFF800
000000003DFE4000
00000002EFB10000
00000000A7000000
0000000000000000
0000000000000000
0000000000000000
0000049DEEC71000
0002BFFFFFFFD200
003EFF93016EFC00
02EFE3000003FF50
0AFF30000000BF90
3FF8000000008FB0
8FF1000000008FB0
CFFFFFFFFFFFFFA0
EFFFFFFFFFFFFF80
FF70000000000000
EF80000000000000
BFC0000000000000
6FF600000006A000
0DFF931126CFF200
02CFFFFFFFFC3000
0006BEFEC9400000
ENDCHAR
STARTCHAR ecircumflex
ENCODING 234
SWIDTH 600 0
DWIDTH 19 0
BBX 15 24 2 0
BITMAP
000000006FFE1000
00000004FFFF9000
0000004EF94FF300
000003EF7008FC00
00001EF60000BF50
00000A4000001B20
0000000000000000
0000000000000000
0000049DEEC71000
0002BFFFFFFFD200
003EFF93016EFC00
02EFE3000003FF50
0AFF30000000BF90
3FF8000000008FB0
8FF1000000008FB0
CFFFFFFFFFFFFFA0
EFFFFFFFFFFFFF80
FF70000000000000
EF80000000000000
BFC0000000000000
6FF600000006A000
0DFF931126CFF200
02CFFFFFFFFC3000
0006BEFEC9400000
ENDCHAR
STARTCHAR edieresis
ENCODING 235
SWIDTH 600 0
DWIDTH 19 0
BBX 15 22 2 0
BITMAP
000002CE4002CE40
000008FF8009FF70
000004EC2005EC10
0000000000000000
0000000000000000
0000000000000000
0000049DEEC71000
0002BFFFFFFFD200
003EFF93016EFC00
02EFE3000003FF50
0AFF30000000BF90
3FF8000000008FB0
8FF1000000008FB0
CFFFFFFFFFFFFFA0
EFFFFFFFFFFFFF80
FF70000000000000
EF80000000000000
BFC0000000000000
6FF600000006A000
0DFF931126CFF200
02CFFFFFFFFC3000
0006BEFEC9400000
ENDCHAR
STARTCHAR igrave
ENCODING 236
SWIDTH 600 0
DWIDTH 19 0
BBX 13 25 3 0
BITMAP
000002B2000000
00002EFB000000
00000AFF500000
000001CFE10000
0000002EF90000
00000005FF3000
00000000880000
00000000000000
00000000000000
5FFFFFFFB00000
9FFFFFFF800000
000001FF500000
000005FF200000
000008FD000000
00000BFA000000
00000EF7000000
00003FF3000000
00006FF0000000
0000AFC0000000
0000DF80000000
0001FF60000000
0001FF80000000
0000DFE5125A00
00005FFFFFFF30
000004BEFDA500
ENDCHAR
STARTCHAR iacute
ENCODING 237
SWIDTH 600 0
DWIDTH 19 0
BBX 13 25 3 0
BITMAP
00000000006900
0000000008FF60
00000001AFFA10
0000001CFE6000
000001DFC20000
00000079000000
00000000000000
00000000000000
00000000000000
5FFFFFFFB00000
9FFFFFFF800000
000001FF500000
000005FF200000
000008FD000000
00000BFA000000
00000EF7000000
00003FF3000000
00006FF0000000
0000AFC0000000
0000DF80000000
0001FF60000000
0001FF80000000
0000DFE5125A00
00005FFFFFFF30
000004BEFDA500
ENDCHAR
STARTCHAR icircumflex
ENCODING 238
SWIDTH 600 0
DWIDTH 19 0
BBX 13 24 3 0
BITMAP
0000003EFF3000
000003EFFFC000
00002DFB3EF600
0001DF9005FE10
000CF800009F80
00086000000B30
00000000000000
00000000000000
5FFFFFFFB00000
9FFFFFFF800000
000001FF500000
000005FF200000
000008FD000000
00000BFA000000
00000EF7000000
00003FF3000000
00006FF0000000
0000AFC0000000
0000DF80000000
0001FF60000000
0001FF80000000
0000DFE5125A00
00005FFFFFFF30
000004BEFDA500
ENDCHAR
STARTCHAR idieresis
ENCODING 239
SWIDTH 600 0
DWIDTH 19 0
BBX 13 22 3 0
BITMAP
0001BE6001BE60
0005FFB006FFA0
0002DD4003ED30
00000000000000
00000000000000
00000000000000
5FFFFFFFB00000
9FFFFFFF800000
000001FF500000
000005FF200000
000008FD000000
00000BFA000000
00000EF7000000
00003FF3000000
00006FF0000000
0000AFC0000000
0000DF80000000
0001FF60000000
0001FF80000000
0000DFE5125A00
00005FFFFFFF30
000004BEFDA500
ENDCHAR
STARTCHAR eth
ENCODING 240
SWIDTH 600 0
DWIDTH 19 0
BBX 18 23 1 0
BITMAP
00000003C400000021
0000000BFFA1004AF8
000000018FFC6CFFB4
0000000005FFFFA300
000000028EFFFC0000
000001AFFD74FF7000
000000CC50008FE100
0000001000001EF600
0000000000000AFB00
000016BDFEC716FE00
0005EFFFFFFFE8FF20
008FFE731127DFFF30
05FFA10000001BFF30
0DFB0000000004FF20
5FF30000000006FF10
9FD00000000009FD00
BFA0000000000EF900
BFA0000000006FF300
9FE000000002EFB000
4FF70000002DFE2000
0AFF930138EFE40000
01BFFFFFFFFB300000
0005BEFEC940000000
ENDCHAR
STARTCHAR ntilde
ENCODING 241
SWIDTH 600 0
DWIDTH 19 0
BBX 18 23 1 0
BITMAP
000000029A60000671
0000002EFFF7000ED0
000000AF74DF718F80
000002FB002EFFFE10
000004C50003CFB300
000000000000000000
000000000000000000
000DF30028CFEC5000
001FF107FFFFFFF400
004FF1BFA4117FFB00
006FEDC300000BFD00
009FFB10000009FE00
00CFB00000000AFC00
00FF600000000DFA00
03FF300000001FF700
06FF100000003FF400
09FD000000006FF100
0CFA000000009FD000
0EF700000000CFA000
3FF400000001FF7000
5FF100000003FF4000
8FD000000006FF1000
BFA000000009FD0000
ENDCHAR
STARTCHAR ograve
ENCODING 242
SWIDTH 600 0
DWIDTH 19 0
BBX 16 25 1 0
BITMAP
0000000059000000
00000007FF400000
00000002EFD10000
000000005FF80000
0000000008FF3000
0000000000BFB000
00000000001B3000
0000000000000000
0000000000000000
0000017BEFEB5000
00006EFFFFFFFB10
0009FFC51039FFA0
008FF80000008FF4
03FF800000000EF9
0BFD000000000AFC
1FF70000000008FD
5FF20000000009FD
7FF0000000000BFB
8FF0000000001FF7
6FF1000000008FF2
3FF600000003FF90
0DFD1000003EFD10
04FFD51139FFD200
006FFFFFFFFA1000
00029DEED9300000
ENDCHAR
STARTCHAR oacute
ENCODING 243
SWIDTH 600 0
DWIDTH 19 0
BBX 16 25 1 0
BITMAP
0000000000001B30
000000000002DFD1
00000000003EFE50
0000000005FFC200
000000005FF80000
000000001B400000
0000000000000000
0000000000000000
0000000000000000
0000017BEFEB5000
00006EFFFFFFFB10
0009FFC51039FFA0
008FF80000008FF4
03FF800000000EF9
0BFD000000000AFC
1FF70000000008FD
5FF20000000009FD
7FF0000000000BFB
8FF0000000001FF7
6FF1000000008FF2
3FF600000003FF90
0DFD1000003EFD10
04FFD51139FFD200
006FFFFFFFFA1000
00029DEED9300000
ENDCHAR
STARTCHAR ocircumflex
ENCODING 244
SWIDTH 600 0
DWIDTH 19 0
BBX 16 24 1 0
BITMAP
0000000009FFC000
000000008FFFF600
00000007FF68FE10
0000005FE400BF80
000004FE30001EF2
000002B2000004A0
0000000000000000
0000000000000000
0000017BEFEB5000
00006EFFFFFFFB10
0009FFC51039FFA0
008FF80000008FF4
03FF800000000EF9
0BFD000000000AFC
1FF70000000008FD
5FF20000000009FD
7FF0000000000BFB
8FF0000000001FF7
6FF1000000008FF2
3FF600000003FF90
0DFD1000003EFD10
04FFD51139FFD200
006FFFFFFFFA1000
00029DEED9300000
ENDCHAR
STARTCHAR otilde
ENCODING 245
SWIDTH 600 0
DWIDTH 19 0
BBX 17 23 1 0
BITMAP
00000005A920001850
0000008FFFE2006F70
000002FD47FD32DF20
000008F5007FFFF800
000009C00007EE8000
000000000000000000
000000000000000000
0000017BEFEB500000
00006EFFFFFFFB1000
0009FFC51039FFA000
008FF80000008FF400
03FF800000000EF900
0BFD000000000AFC00
1FF70000000008FD00
5FF20000000009FD00
7FF0000000000BFB00
8FF0000000001FF700
6FF1000000008FF200
3FF600000003FF9000
0DFD1000003EFD1000
04FFD51139FFD20000
006FFFFFFFFA100000
00029DEED930000000
ENDCHAR
STARTCHAR odieresis
ENCODING 246
SWIDTH 600 0
DWIDTH 19 0
BBX 16 22 1 0
BITMAP
0000004ED2005ED1
000000CFF400CFF3
0000008EA0008EA0
0000000000000000
0000000000000000
0000000000000000
0000017BEFEB5000
00006EFFFFFFFB10
0009FFC51039FFA0
008FF80000008FF4
03FF800000000EF9
0BFD000000000AFC
1FF70000000008FD
5FF20000000009FD
7FF0000000000BFB
8FF0000000001FF7
6FF1000000008FF2
3FF600000003FF90
0DFD1000003EFD10
04FFD51139FFD200
006FFFFFFFFA1000
00029DEED9300000
ENDCHAR
STARTCHAR divide
ENCODING 247
SWIDTH 600 0
DWIDTH 19 0
BBX 15 14 2 4
BITMAP
0000009EB0000000
000000FFF3000000
0000009EB0000000
0000000000000000
0000000000000000
0000000000000000
3FFFFFFFFFFFFF60
3FFFFFFFFFFFFF60
0000000000000000
0000000000000000
0000000000000000
0000009EB0000000
000000FFF3000000
0000009EB0000000
ENDCHAR
STARTCHAR oslash
ENCODING 248
SWIDTH 600 0
DWIDTH 19 0
BBX 19 18 0 -1
BITMAP
00000000000000002300
00000017BEFEB503EE20
000006EFFFFFFFBEFA00
00009FFB51139FFF9000
0008FF7000006FFF4000
003FF8000007FFEF9000
00BFD000008FF58FC000
01FF600009FE407FD000
05FF1000AFE4008FD000
07FE001BFE3000AFB000
08FD01CFD20000EF7000
06FF2DFC100006FF2000
03FFEFC100002EF90000
00DFFB100003DFD10000
04EFFC41138FFD200000
5FFBFFFFFFFFA1000000
BF8029DFED9300000000
05000000000000000000
ENDCHAR
STARTCHAR ugrave
ENCODING 249
SWIDTH 600 0
DWIDTH 19 0
BBX 17 25 1 0
BITMAP
000000006900000000
00000008FF40000000
00000002EFD0000000
000000005FF8000000
0000000008FF200000
0000000000BFB00000
00000000001B300000
000000000000000000
000000000000000000
002FF500000000FF70
005FF200000003FF40
008FE000000006FF10
00BFB000000009FD00
00EF800000000BFA00
02FF500000000EF700
05FF200000002FF500
08FE000000005FF200
0BFB000000008FE000
0EF800000000BFB000
1FF600000002EF8000
3FF50000002DFF5000
2FF7000005ECFF2000
0EFE4125BF84FE0000
08FFFFFFD406FB0000
007DFEB60007F80000
ENDCHAR
STARTCHAR uacute
ENCODING 250
SWIDTH 600 0
DWIDTH 19 0
BBX 17 25 1 0
BITMAP
0000000000001B3000
000000000002DFD100
00000000004EFE5000
0000000005FFC20000
000000006FF8000000
000000001B40000000
000000000000000000
000000000000000000
000000000000000000
002FF500000000FF70
005FF200000003FF40
008FE000000006FF10
00BFB000000009FD00
00EF800000000BFA00
02FF500000000EF700
05FF200000002FF500
08FE000000005FF200
0BFB000000008FE000
0EF800000000BFB000
1FF600000002EF8000
3FF50000002DFF5000
2FF7000005ECFF2000
0EFE4125BF84FE0000
08FFFFFFD406FB0000
007DFEB60007F80000
ENDCHAR
STARTCHAR ucircumflex
ENCODING 251
SWIDTH 600 0
DWIDTH 19 0
BBX 17 24 1 0
BITMAP
000000000AFFB00000
000000008FFFF50000
00000007FF58FD1000
0000006FE400CF8000
000004FD30002EE200
000002B20000049000
000000000000000000
000000000000000000
002FF500000000FF70
005FF200000003FF40
008FE000000006FF10
00BFB000000009FD00
00EF800000000BFA00
02FF500000000EF700
05FF200000002FF500
08FE000000005FF200
0BFB000000008FE000
0EF800000000BFB000
1FF600000002EF8000
3FF50000002DFF5000
2FF7000005ECFF2000
0EFE4125BF84FE0000
08FFFFFFD406FB0000
007DFEB60007F80000
ENDCHAR
STARTCHAR udieresis
ENCODING 252
SWIDTH 600 0
DWIDTH 19 0
BBX 17 22 1 0
BITMAP
0000004ED1005EC100
000000CFF400DFF300
0000008EA0009E9000
000000000000000000
000000000000000000
000000000000000000
002FF500000000FF70
005FF200000003FF40
008FE000000006FF10
00BFB000000009FD00
00EF800000000BFA00
02FF500000000EF700
05FF200000002FF500
08FE000000005FF200
0BFB000000008FE000
0EF800000000BFB000
1FF600000002EF8000
3FF50000002DFF5000
2FF7000005ECFF2000
0EFE4125BF84FE0000
08FFFFFFD406FB0000
007DFEB60007F80000
ENDCHAR
STARTCHAR yacute
ENCODING 253
SWIDTH 600 0
DWIDTH 19 0
BBX 21 32 -2 -7
BITMAP
0000000000000003B10000
000000000000004EFB0000
00000000000006FFD30000
0000000000008FFA100000
000000000009FE50000000
000000000003B200000000
0000000000000000000000
0000000000000000000000
0000000000000000000000
00001FF40000000003FF50
00000DF7000000000CFB00
000009FB000000005FF300
000006FE00000001DF9000
000002FF30000008FE1000
000000DF6000002FF60000
000000AFA00000AFC00000
0000006FD00004FF300000
0000002FF1000CF9000000
0000000EF5006FE1000000
0000000AF701EF60000000
00000006FA08FC00000000
00000003FD1EF300000000
00000000EF9F9000000000
00000000AFFE1000000000
000000007FF60000000000
00000000AFC00000000000
00000004FF400000000000
0000001DF9000000000000
000000AFE1000000000000
04113BFF40000000000000
1EFFFFE400000000000000
2BEFD82000000000000000
ENDCHAR
STARTCHAR thorn
ENCODING 254
SWIDTH 600 0
DWIDTH 19 0
BBX 19 30 -1 -7
BITMAP
0000006FF10000000000
0000009FD00000000000
000000CFA00000000000
000000EF700000000000
000003FF400000000000
000006FF100000000000
000009FC000000000000
00000BF9017CEEC60000
00000EF56EFFFFFFA000
00002FFBFA4114DFF600
00005FFD4000002EFC00
00008FD200000009FF10
0000BF9000000006FF20
0000EF6000000005FF20
0002FF3000000006FF10
0005FF1000000009FE00
0008FD000000000DFA00
000BFA000000005FF500
000EF700000001DFD000
002FFD2000001CFF4000
005FFFE72027EFF60000
007FB6FFFFFFFE500000
00AF9029DFEC71000000
00DF6000000000000000
01FF4000000000000000
04FF1000000000000000
07FD0000000000000000
0AFB0000000000000000
0DF80000000000000000
1FF50000000000000000
ENDCHAR
STARTCHAR ydieresis
ENCODING 255
SWIDTH 600 0
DWIDTH 19 0
BBX 21 29 -2 -7
BITMAP
0000000007EB0008EA0000
000000000FFF101FFF0000
000000000BE7000BE60000
0000000000000000000000
0000000000000000000000
0000000000000000000000
00001FF40000000003FF50
00000DF7000000000CFB00
000009FB000000005FF300
000006FE00000001DF9000
000002FF30000008FE1000
000000DF6000002FF60000
000000AFA00000AFC00000
0000006FD00004FF300000
0000002FF1000CF9000000
0000000EF5006FE1000000
0000000AF701EF60000000
00000006FA08FC00000000
00000003FD1EF300000000
00000000EF9F9000000000
00000000AFFE1000000000
000000007FF60000000000
00000000AFC00000000000
00000004FF400000000000
0000001DF9000000000000
000000AFE1000000000000
04113BFF40000000000000
1EFFFFE400000000000000
2BEFD82000000000000000
ENDCHAR
STARTCHAR Amacron
ENCODING 256
SWIDTH 600 0
DWIDTH 19 0
BBX 18 25 -1 0
BITMAP
0000000008FFFFFFFA
000000000BFFFFFFF7
000000000000000000
000000000000000000
000000000009FF8000
00000000003FFFA000
0000000000BF9FC000
0000000004FD3FE000
000000000CF61FF100
000000005FE00FF300
00000000DF700DF500
00000006FE100CF600
0000001EF8000BF800
0000007FE10009FA00
000001EF800008FC00
000009FF100007FE00
00002FF9000005FF10
0000AFFFFFFFFFFF20
0003FFFFFFFFFFFF40
000BFE20000001FF60
004FF800000000EF80
00CFE100000000DFA0
06FF6000000000BFC0
0DFC00000000009FE0
7FF400000000008FF1
ENDCHAR
STARTCHAR amacron
ENCODING 257
SWIDTH 600 0
DWIDTH 19 0
BBX 17 21 1 0
BITMAP
0000000DFFFFFFF400
0000001FFFFFFFF200
000000000000000000
000000000000000000
000000000000000000
0000016CEED9206F90
00004DFFFFFFE4AF60
0005FFE72027EEEF30
003FFC1000003EFF10
00CFD100000008FC00
05FF500000000BFA00
0BFD000000000EF700
0FF8000000002FF400
3FF5000000005FF100
4FF3000000008FD000
5FF300000000BFA000
4FF600000003EF7000
1FFC0000005EFF4000
09FFB3015BFAFF1000
01CFFFFFFE54FD0000
0017CEEC7106FA0000
ENDCHAR
STARTCHAR Abreve
ENCODING 258
SWIDTH 600 0
DWIDTH 19 0
BBX 19 27 -1 0
BITMAP
000000000AC000004E50
000000000CF10000CF10
0000000008FB313BF800
0000000002EFFFFFB000
00000000003BEEC60000
00000000000000000000
000000000009FF800000
00000000003FFFA00000
0000000000BF9FC00000
0000000004FD3FE00000
000000000CF61FF10000
000000005FE00FF30000
00000000DF700DF50000
00000006FE100CF60000
0000001EF8000BF80000
0000007FE10009FA0000
000001EF800008FC0000
000009FF100007FE0000
00002FF9000005FF1000
0000AFFFFFFFFFFF2000
0003FFFFFFFFFFFF4000
000BFE20000001FF6000
004FF800000000EF8000
00CFE100000000DFA000
06FF6000000000BFC000
0DFC00000000009FE000
7FF400000000008FF100
ENDCHAR
STARTCHAR abreve
ENCODING 259
SWIDTH 600 0
DWIDTH 19 0
BBX 17 24 1 0
BITMAP
000000021000000310
0000004F7000004F80
0000003FB00001DF20
0000001FF9104DF900
00000007FFFFFFA000
000000006CFEB50000
000000000000000000
000000000000000000
0000016CEED9206F90
00004DFFFFFFE4AF60
0005FFE72027EEEF30
003FFC1000003EFF10
00CFD100000008FC00
05FF500000000BFA00
0BFD000000000EF700
0FF8000000002FF400
3FF5000000005FF100
4FF3000000008FD000
5FF300000000BFA000
4FF600000003EF7000
1FFC0000005EFF4000
09FFB3015BFAFF1000
01CFFFFFFE54FD0000
0017CEEC7106FA0000
ENDCHAR
STARTCHAR Aogonek
ENCODING 260
SWIDTH 600 0
DWIDTH 19 0
BBX 18 28 -1 -7
BITMAP
000000000009FF8000
00000000003FFFA000
0000000000BF9FC000
0000000004FD3FE000
000000000CF61FF100
000000005FE10FF300
00000000DF700DF500
00000006FE100CF600
0000001EF8000BF800
0000007FE10009FA00
000001EF800008FC00
000009FF100007FE00
00002FF9000005FF10
0000AFFFFFFFFFFF20
0003FFFFFFFFFFFF40
000BFE20000001FF60
004FF800000000EF80
00CFE100000000DFA0
06FF6000000000BFC0
0DFC00000000009FE0
7FF400000000008FF1
00000000000001AD50
0000000000002CB100
000000000000BD1000
000000000005F80000
000000000008FC2140
000000000005FFFFF2
0000000000007DFD60
ENDCHAR
STARTCHAR aogonek
ENCODING 261
SWIDTH 600 0
DWIDTH 19 0
BBX 17 23 1 -7
BITMAP
0000016CEED9206F90
00004DFFFFFFE4AF60
0005FFE72027EEEF30
003FFC1000003EFF10
00CFD100000008FC00
05FF500000000BFA00
0BFD000000000EF700
0FF8000000002FF400
3FF5000000005FF100
4FF3000000008FD000
5FF300000000BFA000
4FF600000003EF7000
1FFC0000005EFF4000
09FFB3015BFAFF1000
01CFFFFFFE54FD0000
0017CEEC7106FA0000
00000000005DA30000
0000000008D3000000
000000007E20000000
00000001EB00000000
00000003FE30320000
00000001FFFFF70000
000000004CFE800000
ENDCHAR
STARTCHAR Cacute
ENCODING 262
SWIDTH 600 0
DWIDTH 19 0
BBX 17 28 2 0
BITMAP
00000000000002B300
0000000000006EFC00
00000000001AFFB300
0000000002EFD50000
0000000000B7000000
000000000000000000
000000000000000000
000000039CEFD92000
0000019FFFFFFFE500
00002DFFA4114CFE30
0002EFD3000001CB10
000CFE200000001000
008FF4000000000000
01EF90000000000000
07FF20000000000000
0DFB00000000000000
1FF700000000000000
5FF300000000000000
6FF200000000000000
8FF100000000000000
7FF100000000000000
6FF300000000000000
3FF700000000000000
0DFD00000000000000
06FF90000001920000
00BFFB41027EFB0000
001AFFFFFFFFB20000
00004ADEED94000000
ENDCHAR
STARTCHAR cacute
ENCODING 263
SWIDTH 600 0
DWIDTH 19 0
BBX 16 25 2 0
BITMAP
0000000000002B10
000000000004EFB0
00000000006FFD30
0000000008FFA100
000000008FE60000
000000003C200000
0000000000000000
0000000000000000
0000000000000000
0000027BEFDB6100
00008FFFFFFFFD30
001CFFB51026EFE2
00CFF50000001C80
07FF500000000000
1EF9000000000000
6FF2000000000000
AFC0000000000000
CFA0000000000000
DFA0000000000000
BFC0000000000000
8FF2000000000000
2FFC10000005D100
08FFD62015BFF500
008FFFFFFFFD5000
00028CEFDA600000
ENDCHAR
STARTCHAR Ccircumflex
ENCODING 264
SWIDTH 600 0
DWIDTH 19 0
BBX 17 27 2 0
BITMAP
0000000001DFFB0000
000000002DFDFF6000
00000002DFA15FE200
0000002DF70006FB00
0000003C3000007900
000000000000000000
000000039CEFD92000
0000019FFFFFFFE500
00002DFFA4114CFE30
0002EFD3000001CB10
000CFE200000001000
008FF4000000000000
01EF90000000000000
07FF20000000000000
0DFB00000000000000
1FF700000000000000
5FF300000000000000
6FF200000000000000
8FF100000000000000
7FF100000000000000
6FF300000000000000
3FF700000000000000
0DFD00000000000000
06FF90000001920000
00BFFB41027EFB0000
001AFFFFFFFFB20000
00004ADEED94000000
ENDCHAR
STARTCHAR ccircumflex
ENCODING 265
SWIDTH 600 0
DWIDTH 19 0
BBX 16 24 2 0
BITMAP
000000001CFF9000
00000000BFFFF300
0000000AFE3BFB00
0000008FD201DF50
000007FC10003FD0
000003B100000770
0000000000000000
0000000000000000
0000027BEFDB6100
00008FFFFFFFFD30
001CFFB51026EFE2
00CFF50000001C80
07FF500000000000
1EF9000000000000
6FF2000000000000
AFC0000000000000
CFA0000000000000
DFA0000000000000
BFC0000000000000
8FF2000000000000
2FFC10000005D100
08FFD62015BFF500
008FFFFFFFFD5000
00028CEFDA600000
ENDCHAR
STARTCHAR Cdotaccent
ENCODING 266
SWIDTH 600 0
DWIDTH 19 0
BBX 17 26 2 0
BITMAP
00000000006EC10000
0000000000FFF40000
0000000000AEA00000
000000000000000000
000000000000000000
000000039CEFD92000
0000019FFFFFFFE500
00002DFFA4114CFE30
0002EFD3000001CB10
000CFE200000001000
008FF4000000000000
01EF90000000000000
07FF20000000000000
0DFB00000000000000
1FF700000000000000
5FF300000000000000
6FF200000000000000
8FF100000000000000
7FF100000000000000
6FF300000000000000
3FF700000000000000
0DFD00000000000000
06FF90000001920000
00BFFB41027EFB0000
001AFFFFFFFFB20000
00004ADEED94000000
ENDCHAR
STARTCHAR cdotaccent
ENCODING 267
SWIDTH 600 0
DWIDTH 19 0
BBX 16 23 2 0
BITMAP
0000000008EC2000
000000004FFF8000
000000006FFF6000
000000001CE90000
0000000000000000
0000000000000000
0000000000000000
0000027BEFDB6100
00008FFFFFFFFD30
001CFFB51026EFE2
00CFF50000001C80
07FF500000000000
1EF9000000000000
6FF2000000000000
AFC0000000000000
CFA0000000000000
DFA0000000000000
BFC0000000000000
8FF2000000000000
2FFC10000005D100
08FFD62015BFF500
008FFFFFFFFD5000
00028CEFDA600000
ENDCHAR
STARTCHAR Ccaron
ENCODING 268
SWIDTH 600 0
DWIDTH 19 0
BBX 17 27 2 0
BITMAP
00000005B100001A80
00000005FC1003DF60
00000000AFB06FF600
000000001EFDFF5000
0000000005FFF50000
000000000000000000
000000039CEFD92000
0000019FFFFFFFE500
00002DFFA4114CFE30
0002EFD3000001CB10
000CFE200000001000
008FF4000000000000
01EF90000000000000
07FF20000000000000
0DFB00000000000000
1FF700000000000000
5FF300000000000000
6FF200000000000000
8FF100000000000000
7FF100000000000000
6FF300000000000000
3FF700000000000000
0DFD00000000000000
06FF90000001920000
00BFFB41027EFB0000
001AFFFFFFFFB20000
00004ADEED94000000
ENDCHAR
STARTCHAR ccaron
ENCODING 269
SWIDTH 600 0
DWIDTH 19 0
BBX 16 24 2 0
BITMAP
0000005900000096
000000BF60001AFA
0000002FE301CFB0
00000009FD3DFC10
00000001EFFFD100
000000006FFD2000
0000000000000000
0000000000000000
0000027BEFDB6100
00008FFFFFFFFD30
001CFFB51026EFE2
00CFF50000001C80
07FF500000000000
1EF9000000000000
6FF2000000000000
AFC0000000000000
CFA0000000000000
DFA0000000000000
BFC0000000000000
8FF2000000000000
2FFC10000005D100
08FFD62015BFF500
008FFFFFFFFD5000
00028CEFDA600000
ENDCHAR
STARTCHAR Dcaron
ENCODING 270
SWIDTH 600 0
DWIDTH 19 0
BBX 18 27 0 0
BITMAP
0000000098000004C3
00000000BF70007FD2
000000002EF61AFD20
0000000005FFDFD200
0000000000AFFD2000
000000000000000000
00003FFFFFEC830000
00006FFFFFFFFFA100
00009FD00126CFFD10
0000CFA0000008FFA0
0000FF70000000BFF2
0003FF400000003FF7
0006FF100000000EFA
0009FD000000000CFC
000CFA000000000BFC
000FF7000000000CFB
003FF4000000000DFA
006FF1000000001FF7
009FD0000000004FF4
00CFA000000000AFE0
00FF7000000002FF80
03FF400000000BFF20
06FF100000008FF700
09FD00000019FFA000
0CFA000248EFF90000
0FFFFFFFFFFD500000
3FFFFFFEC940000000
ENDCHAR
STARTCHAR dcaron
ENCODING 271
SWIDTH 600 0
DWIDTH 19 0
BBX 23 26 1 0
BITMAP
00000000000000000002FF20
00000000000000000005FE00
00000000000000000007FB00
000000000000006FF10AF700
000000000000009FD00CF300
00000000000000CFA00FE000
00000000000000FF703FA000
00000000000003FF405F6000
00000000000006FF108F2000
00000000000009FD00000000
0000039DFEA30BFA00000000
00019FFFFFFF5EF700000000
000BFFA4116EFFF400000000
009FF6000002DFF100000000
03FF800000009FD000000000
0AFD00000000CFA000000000
1FF700000000FF7000000000
5FF200000003FF4000000000
8FE000000006FF1000000000
9FD000000009FD0000000000
AFD00000000CFA0000000000
8FF10000002FF70000000000
5FF7000003DFF40000000000
1EFF71139FCFF10000000000
05FFFFFFE75FD00000000000
003BEED8206FA00000000000
ENDCHAR
STARTCHAR Dcroat
ENCODING 272
SWIDTH 600 0
DWIDTH 19 0
BBX 19 21 0 0
BITMAP
00000BFFFFEDA6000000
00000EFFFFFFFFE50000
00002FF500149EFF6000
00005FF2000003DFF200
00008FE00000004FF900
0000BFB00000000BFE00
0000EF8000000007FF20
0002FF5000000005FF40
0005FF2000000004FF40
0CEFFFFFFF900005FF30
2FFFFFFFFF500006FF20
000DF90000000009FE00
001FF6000000000CFB00
004FF3000000002FF700
007FF0000000009FF100
00AFC000000003FF9000
00DF900000002DFD1000
01FF60000005EFE30000
05FF200126BFFE300000
08FFFFFFFFFF91000000
0BFFFFFEDB7200000000
ENDCHAR
STARTCHAR dcroat
ENCODING 273
SWIDTH 600 0
DWIDTH 19 0
BBX 20 23 1 0
BITMAP
0000000000000007FE00
000000000000000AFC00
000000000122222DF900
000000000AFFFFFFFFFA
000000000BDDDDEFFFD7
000000000000007FF000
00000000000000AFC000
00000000000000CF9000
0000028CEEC810FF6000
00008FFFFFFFD4FF3000
000AFFC51039FFFF0000
008FF70000005FFC0000
03FF800000000DF90000
0AFD000000001FF60000
1FF7000000004FF30000
4FF3000000007FF00000
6FF100000000AFC00000
7FF100000000DF900000
6FF300000004FF600000
2FFA0000007FFF300000
0BFFA3126CFBFE000000
02DFFFFFFD46FC000000
0018DFEB6008F9000000
ENDCHAR
STARTCHAR Emacron
ENCODING 274
SWIDTH 600 0
DWIDTH 19 0
BBX 17 25 2 0
BITMAP
00000007FFFFFFFB00
00000009FFFFFFF900
000000000000000000
000000000000000000
0000EFFFFFFFFFFFE0
0002FFFFFFFFFFFFB0
0005FF100000000000
0008FD000000000000
000CFA000000000000
000EF7000000000000
002FF4000000000000
006FF1000000000000
009FE0000000000000
00CFFFFFFFFFF70000
00EFFFFFFFFFF40000
03FF50000000000000
06FF20000000000000
09FE00000000000000
0CFB00000000000000
0EF800000000000000
3FF500000000000000
6FF200000000000000
9FE000000000000000
CFFFFFFFFFFFF70000
EFFFFFFFFFFFF40000
ENDCHAR
STARTCHAR emacron
ENCODING 275
SWIDTH 600 0
DWIDTH 19 0
BBX 15 21 2 0
BITMAP
000002FFFFFFFF10
000004FFFFFFFD00
0000000000000000
0000000000000000
0000000000000000
0000049DEEC71000
0002BFFFFFFFD200
003EFF93016EFC00
02EFE3000003FF50
0AFF30000000BF90
3FF8000000008FB0
8FF1000000008FB0
CFFFFFFFFFFFFFA0
EFFFFFFFFFFFFF80
FF70000000000000
EF80000000000000
BFC0000000000000
6FF600000006A000
0DFF931126CFF200
02CFFFFFFFFC3000
0006BEFEC9400000
ENDCHAR
STARTCHAR Ebreve
ENCODING 276
SWIDTH 600 0
DWIDTH 19 0
BBX 17 27 2 0
BITMAP
00000009D000002E60
0000000BF20000BF30
00000007FC313AFA00
00000001EFFFFFC100
000000002AEFC60000
000000000000000000
0000EFFFFFFFFFFFE0
0002FFFFFFFFFFFFB0
0005FF100000000000
0008FD000000000000
000CFA000000000000
000EF7000000000000
002FF4000000000000
006FF1000000000000
009FE0000000000000
00CFFFFFFFFFF70000
00EFFFFFFFFFF40000
03FF50000000000000
06FF20000000000000
09FE00000000000000
0CFB00000000000000
0EF800000000000000
3FF500000000000000
6FF200000000000000
9FE000000000000000
CFFFFFFFFFFFF70000
EFFFFFFFFFFFF40000
ENDCHAR
STARTCHAR ebreve
ENCODING 277
SWIDTH 600 0
DWIDTH 19 0
BBX 16 24 2 0
BITMAP
0000002100000120
000008F3000008F4
000007F800003FD0
000004FF6116EF50
000000BFFFFFF700
00000018DFEA4000
0000000000000000
0000000000000000
0000049DEEC71000
0002BFFFFFFFD200
003EFF93016EFC00
02EFE3000003FF50
0AFF30000000BF90
3FF8000000008FB0
8FF1000000008FB0
CFFFFFFFFFFFFFA0
EFFFFFFFFFFFFF80
FF70000000000000
EF80000000000000
BFC0000000000000
6FF600000006A000
0DFF931126CFF200
02CFFFFFFFFC3000
0006BEFEC9400000
ENDCHAR
STARTCHAR Edotaccent
ENCODING 278
SWIDTH 600 0
DWIDTH 19 0
BBX 17 26 2 0
BITMAP
00000000007EC10000
0000000001FFF40000
0000000000AEA00000
000000000000000000
000000000000000000
0000EFFFFFFFFFFFE0
0002FFFFFFFFFFFFB0
0005FF100000000000
0008FD000000000000
000CFA000000000000
000EF7000000000000
002FF4000000000000
006FF1000000000000
009FE0000000000000
00CFFFFFFFFFF70000
00EFFFFFFFFFF40000
03FF50000000000000
06FF20000000000000
09FE00000000000000
0CFB00000000000000
0EF800000000000000
3FF500000000000000
6FF200000000000000
9FE000000000000000
CFFFFFFFFFFFF70000
EFFFFFFFFFFFF40000
ENDCHAR
STARTCHAR edotaccent
ENCODING 279
SWIDTH 600 0
DWIDTH 19 0
BBX 15 23 2 0
BITMAP
000000003DE70000
00000000DFFF0000
00000000EFFD0000
000000007ED30000
0000000000000000
0000000000000000
0000000000000000
0000049DEEC71000
0002BFFFFFFFD200
003EFF93016EFC00
02EFE3000003FF50
0AFF30000000BF90
3FF8000000008FB0
8FF1000000008FB0
CFFFFFFFFFFFFFA0
EFFFFFFFFFFFFF80
FF70000000000000
EF80000000000000
BFC0000000000000
6FF600000006A000
0DFF931126CFF200
02CFFFFFFFFC3000
0006BEFEC9400000
ENDCHAR
STARTCHAR Eogonek
ENCODING 280
SWIDTH 600 0
DWIDTH 19 0
BBX 17 28 2 -7
BITMAP
0000EFFFFFFFFFFFE0
0002FFFFFFFFFFFFB0
0005FF100000000000
0008FD000000000000
000CFA000000000000
000EF7000000000000
002FF4000000000000
006FF1000000000000
009FE0000000000000
00CFFFFFFFFFF70000
00EFFFFFFFFFF40000
03FF50000000000000
06FF20000000000000
09FE00000000000000
0CFB00000000000000
0EF800000000000000
3FF500000000000000
6FF200000000000000
9FE000000000000000
CFFFFFFFFFFFF70000
EFFFFFFFFFFFF40000
0000000006E7200000
000000009E20000000
00000007F300000000
0000001ED000000000
0000003FF403100000
0000001EFFFF700000
00000004CEE9100000
ENDCHAR
STARTCHAR eogonek
ENCODING 281
SWIDTH 600 0
DWIDTH 19 0
BBX 15 23 2 -7
BITMAP
0000049DEEC71000
0002BFFFFFFFD200
003EFF93016EFC00
02EFE3000003FF50
0AFF30000000BF90
3FF8000000008FB0
8FF1000000008FB0
CFFFFFFFFFFFFFA0
EFFFFFFFFFFFFF80
FF70000000000000
EF80000000000000
BFC0000000000000
6FF600000006A000
0DFF931126CFF200
02CFFFFFFFFD3000
0006BEFEDFA10000
00000003E8000000
0000002E90000000
000000AE10000000
000001FC00000000
000002FE40320000
000000EFFFF80000
0000003BEE910000
ENDCHAR
STARTCHAR Ecaron
ENCODING 282
SWIDTH 600 0
DWIDTH 19 0
BBX 17 27 2 0
BITMAP
00000005B100001B70
00000006FC1003DF60
00000000AFB06FF500
000000001EFDFF5000
0000000005FFF50000
000000000000000000
0000EFFFFFFFFFFFE0
0002FFFFFFFFFFFFB0
0005FF100000000000
0008FD000000000000
000CFA000000000000
000EF7000000000000
002FF4000000000000
006FF1000000000000
009FE0000000000000
00CFFFFFFFFFF70000
00EFFFFFFFFFF40000
03FF50000000000000
06FF20000000000000
09FE00000000000000
0CFB00000000000000
0EF800000000000000
3FF500000000000000
6FF200000000000000
9FE000000000000000
CFFFFFFFFFFFF70000
EFFFFFFFFFFFF40000
ENDCHAR
STARTCHAR ecaron
ENCODING 283
SWIDTH 600 0
DWIDTH 19 0
BBX 16 24 2 0
BITMAP
000001B2000003B1
000004FC00005FE2
000000AF9006FE40
0000002FF58FF400
00000008FFFF5000
00000001EFF70000
0000000000000000
0000000000000000
0000049DEEC71000
0002BFFFFFFFD200
003EFF93016EFC00
02EFE3000003FF50
0AFF30000000BF90
3FF8000000008FB0
8FF1000000008FB0
CFFFFFFFFFFFFFA0
EFFFFFFFFFFFFF80
FF70000000000000
EF80000000000000
BFC0000000000000
6FF600000006A000
0DFF931126CFF200
02CFFFFFFFFC3000
0006BEFEC9400000
ENDCHAR
STARTCHAR Gcircumflex
ENCODING 284
SWIDTH 600 0
DWIDTH 19 0
BBX 17 27 2 0
BITMAP
0000000005FFF50000
000000005FFDFE1000
00000006FE50BFA000
0000006FD3001BF600
0000007A100001B500
000000000000000000
00000006ADFEC71000
000004DFFFFFFFD200
00009FFD73116EFD10
0009FF91000002E800
006FF8000000001000
02EFB0000000000000
09FF20000000000000
1EF900000000000000
6FF300000000000000
9FE000000000000000
DFB000005FFFFFF400
EF9000008FFFFFF100
FF80000000006FD000
FF80000000009FA000
EFA000000000CF7000
BFE000000001FF4000
6FF600000003FF1000
1EFE20000007FD0000
04FFE72113AFF90000
005EFFFFFFFF910000
00017BEFEC82000000
ENDCHAR
STARTCHAR gcircumflex
ENCODING 285
SWIDTH 600 0
DWIDTH 19 0
BBX 18 31 0 -7
BITMAP
00000000003EFF4000
0000000002EFFFD000
000000001DFC3EF700
00000001CFA004FE10
0000000BF900008F90
000000087000000A40
000000000000000000
000000000000000000
00000016BEED9206F9
000004DFFFFFFE4AF6
00005FFE72028FEEF3
0002FFC2000004FFF0
000CFE100000009FC0
004FF500000000BF90
00AFD000000000EF60
00EF9000000002FF40
02FF6000000005FF10
03FF5000000008FD00
03FF500000000BFA00
02FF800000003EF700
00DFE1000005EFF400
006FFD5236BFBFF100
0009FFFFFFE56FD000
00004ADDB6109FA000
000000000000DF7000
000000000002FF3000
000000000009FD0000
05200000005FF60000
2EE941025BFFA00000
2BFFFFFFFFF8000000
0039CEFEC820000000
ENDCHAR
STARTCHAR Gbreve
ENCODING 286
SWIDTH 600 0
DWIDTH 19 0
BBX 17 27 2 0
BITMAP
0000002C8000007D20
0000001FC00002EC00
0000000CF8215DF400
00000005FFFFFF7000
000000005CFEB30000
000000000000000000
00000006ADFEC71000
000004DFFFFFFFD200
00009FFD73116EFD10
0009FF91000002E800
006FF8000000001000
02EFB0000000000000
09FF20000000000000
1EF900000000000000
6FF300000000000000
9FE000000000000000
DFB000005FFFFFF400
EF9000008FFFFFF100
FF80000000006FD000
FF80000000009FA000
EFA000000000CF7000
BFE000000001FF4000
6FF600000003FF1000
1EFE20000007FD0000
04FFE72113AFF90000
005EFFFFFFFF910000
00017BEFEC82000000
ENDCHAR
STARTCHAR gbreve
ENCODING 287
SWIDTH 600 0
DWIDTH 19 0
BBX 18 31 0 -7
BITMAP
000000002100000031
00000004F7000004F8
00000003FB00001DF2
00000001FF9104DF90
000000007FFFFFFA00
0000000006CFEB5000
000000000000000000
000000000000000000
00000016BEED9206F9
000004DFFFFFFE4AF6
00005FFE72028FEEF3
0002FFC2000004FFF0
000CFE100000009FC0
004FF500000000BF90
00AFD000000000EF60
00EF9000000002FF40
02FF6000000005FF10
03FF5000000008FD00
03FF500000000BFA00
02FF800000003EF700
00DFE1000005EFF400
006FFD5236BFBFF100
0009FFFFFFE56FD000
00004ADDB6109FA000
000000000000DF7000
000000000002FF3000
000000000009FD0000
05200000005FF60000
2EE941025BFFA00000
2BFFFFFFFFF8000000
0039CEFEC820000000
ENDCHAR
STARTCHAR Gdotaccent
ENCODING 288
SWIDTH 600 0
DWIDTH 19 0
BBX 17 26 2 0
BITMAP
0000000001BE800000
0000000006FFE00000
0000000002DE600000
000000000000000000
000000000000000000
00000006ADFEC71000
000004DFFFFFFFD200
00009FFD73116EFD10
0009FF91000002E800
006FF8000000001000
02EFB0000000000000
09FF20000000000000
1EF900000000000000
6FF300000000000000
9FE000000000000000
DFB000005FFFFFF400
EF9000008FFFFFF100
FF80000000006FD000
FF80000000009FA000
EFA000000000CF7000
BFE000000001FF4000
6FF600000003FF1000
1EFE20000007FD0000
04FFE72113AFF90000
005EFFFFFFFF910000
00017BEFEC82000000
ENDCHAR
STARTCHAR gdotaccent
ENCODING 289
SWIDTH 600 0
DWIDTH 19 0
BBX 18 30 0 -7
BITMAP
00000000001BEA0000
00000000009FFF3000
0000000000BFFF2000
00000000004DE60000
000000000000000000
000000000000000000
000000000000000000
00000016BEED9206F9
000004DFFFFFFE4AF6
00005FFE72028FEEF3
0002FFC2000004FFF0
000CFE100000009FC0
004FF500000000BF90
00AFD000000000EF60
00EF9000000002FF40
02FF6000000005FF10
03FF5000000008FD00
03FF500000000BFA00
02FF800000003EF700
00DFE1000005EFF400
006FFD5236BFBFF100
0009FFFFFFE56FD000
00004ADDB6109FA000
000000000000DF7000
000000000002FF3000
000000000009FD0000
05200000005FF60000
2EE941025BFFA00000
2BFFFFFFFFF8000000
0039CEFEC820000000
ENDCHAR
STARTCHAR uni0122
ENCODING 290
SWIDTH 600 0
DWIDTH 19 0
BBX 17 29 2 -8
BITMAP
00000006ADFEC71000
000004DFFFFFFFD200
00009FFD73116EFD10
0009FF91000002E800
006FF8000000001000
02EFB0000000000000
09FF20000000000000
1EF900000000000000
6FF300000000000000
9FE000000000000000
DFB000005FFFFFF400
EF9000008FFFFFF100
FF80000000006FD000
FF80000000009FA000
EFA000000000CF7000
BFE000000001FF4000
6FF600000003FF1000
1EFE20000007FD0000
04FFE72113AFF90000
005EFFFFFFFF910000
00017BEFEC82000000
000000000000000000
000004EA3000000000
000009FFE100000000
0000015FF400000000
0000000DF300000000
000014BFD000000000
0008FFFD3000000000
0008DB710000000000
ENDCHAR
STARTCHAR uni0123
ENCODING 291
SWIDTH 600 0
DWIDTH 19 0
BBX 18 30 0 -7
BITMAP
00000000000039D100
000000000009FFF100
00000000009FB51000
0000000001FE000000
0000000000EF710000
00000000004CC00000
000000000000000000
00000016BEED9206F9
000004DFFFFFFE4AF6
00005FFE72028FEEF3
0002FFC2000004FFF0
000CFE100000009FC0
004FF500000000BF90
00AFD000000000EF60
00EF9000000002FF40
02FF6000000005FF10
03FF5000000008FD00
03FF500000000BFA00
02FF800000003EF700
00DFE1000005EFF400
006FFD5236BFBFF100
0009FFFFFFE56FD000
00004ADDB6109FA000
000000000000DF7000
000000000002FF3000
000000000009FD0000
05200000005FF60000
2EE941025BFFA00000
2BFFFFFFFFF8000000
0039CEFEC820000000
ENDCHAR
STARTCHAR Hcircumflex
ENCODING 292
SWIDTH 600 0
DWIDTH 19 0
BBX 19 27 0 0
BITMAP
00000000002EFF900000
0000000003EFDFF40000
000000003EF807FD1000
00000003EE50008FA000
00000004C20000098000
00000000000000000000
00005FF200000000CFB0
00008FE000000000EF80
0000BFB000000003FF50
0000EF8000000006FF20
0002FF5000000008FE00
0005FF200000000BFB00
0008FE000000000EF800
000BFC000000002FF500
000EF9000000005FF200
002FFFFFFFFFFFFFE000
005FFFFFFFFFFFFFB000
008FE000000000EF8000
00BFB000000002FF5000
00EF8000000005FF2000
02FF5000000009FE0000
05FF300000000CFB0000
08FE000000000EF80000
0BFC000000003FF50000
0EF9000000006FF20000
2FF6000000009FE00000
5FF300000000CFB00000
ENDCHAR
STARTCHAR hcircumflex
ENCODING 293
SWIDTH 600 0
DWIDTH 19 0
BBX 16 29 1 0
BITMAP
00002DFFA0000000
0002DFDFF5000000
002DF906FE100000
02EF60007FB00000
03C3000008900000
0000000000000000
00006FF100000000
00009FD000000000
0000CFA000000000
0000FF7000000000
0003FF4000000000
0006FF1000000000
0009FD0000000000
000CFA0017CEEC50
000EF707FFFFFFF4
003FF4BF94117FFB
006FFDC300000BFD
009FFA00000009FE
00CFA00000000AFC
00EF600000000DFA
02FF300000001FF7
05FF000000003FF4
08FC000000006FF1
0BF9000000009FD0
0EF700000000CFA0
2FF400000001FF70
5FF100000003FF40
8FD000000006FF10
BFA000000009FD00
ENDCHAR
STARTCHAR Hbar
ENCODING 294
SWIDTH 600 0
DWIDTH 19 0
BBX 21 21 0 0
BITMAP
00005FF200000000CFA000
00009FD000000001FF7000
0000CFA000000004FF3000
04DEFFFFFFFFFFFFFFFF40
07FFFFFFFFFFFFFFFFFF10
0006FF100000000CFA0000
0009FE000000000FF70000
000CFB000000003FF40000
000FF8000000005FF10000
003FFFFFFFFFFFFFD00000
006FFFFFFFFFFFFFA00000
009FE000000000EF700000
00CFB000000002FF400000
00EF8000000005FF100000
02FF5000000009FD000000
05FF300000000CFA000000
08FE000000000EF7000000
0BFC000000003FF5000000
0EF9000000006FF2000000
2FF6000000009FE0000000
5FF300000000CFB0000000
ENDCHAR
STARTCHAR hbar
ENCODING 295
SWIDTH 600 0
DWIDTH 19 0
BBX 16 23 1 0
BITMAP
00005FF100000000
00008FD000000000
0000BFB000000000
04DEFFFFFFFFF600
07FFFFFFFFFFF300
0005FF2000000000
0008FE0000000000
000BFB0000000000
000EF80029DFEB40
002FF519FFFFFFF3
005FF3DE93118FFA
008FEEB200000CFC
00BFF80000000AFC
00EF800000000CFA
02FF400000000EF8
05FF100000002FF5
08FD000000005FF1
0BFA000000009FD0
0EF700000000CFA0
2FF400000000EF70
5FF200000003FF40
8FE000000006FF10
BFB000000009FD00
ENDCHAR
STARTCHAR Itilde
ENCODING 296
SWIDTH 600 0
DWIDTH 19 0
BBX 18 28 1 0
BITMAP
000000003530000131
00000009FFF90008F4
0000006FDAFFA14EE0
000000EE104EFFFF50
000002C70002CFD500
000000000000000000
000000000000000000
0000CFFFFFFFFFFFF3
0001FFFFFFFFFFFFF0
000000000FF8000000
000000003FF5000000
000000006FF2000000
000000009FE0000000
00000000CFB0000000
00000000EF80000000
00000003FF50000000
00000006FF20000000
00000009FE00000000
0000000CFB00000000
0000000EF800000000
0000002FF500000000
0000005FF200000000
0000008FE000000000
000000BFB000000000
000000EF8000000000
000002FF5000000000
8FFFFFFFFFFFF60000
CFFFFFFFFFFFF30000
ENDCHAR
STARTCHAR itilde
ENCODING 297
SWIDTH 600 0
DWIDTH 19 0
BBX 15 23 3 0
BITMAP
000029A600006710
0002EFFF7000ED00
000AF74DF718F800
002FB002EFFFE100
004C50003CFB3000
0000000000000000
0000000000000000
5FFFFFFFB0000000
9FFFFFFF80000000
000001FF50000000
000005FF20000000
000008FD00000000
00000BFA00000000
00000EF700000000
00003FF300000000
00006FF000000000
0000AFC000000000
0000DF8000000000
0001FF6000000000
0001FF8000000000
0000DFE5125A0000
00005FFFFFFF3000
000004BEFDA50000
ENDCHAR
STARTCHAR Imacron
ENCODING 298
SWIDTH 600 0
DWIDTH 19 0
BBX 18 25 1 0
BITMAP
00000008FFFFFFFA00
0000000BFFFFFFF700
000000000000000000
000000000000000000
0000CFFFFFFFFFFFF3
0001FFFFFFFFFFFFF0
000000000FF8000000
000000003FF5000000
000000006FF2000000
000000009FE0000000
00000000CFB0000000
00000000EF80000000
00000003FF50000000
00000006FF20000000
00000009FE00000000
0000000CFB00000000
0000000EF800000000
0000002FF500000000
0000005FF200000000
0000008FE000000000
000000BFB000000000
000000EF8000000000
000002FF5000000000
8FFFFFFFFFFFF60000
CFFFFFFFFFFFF30000
ENDCHAR
STARTCHAR imacron
ENCODING 299
SWIDTH 600 0
DWIDTH 19 0
BBX 13 21 3 0
BITMAP
0000EFFFFFFF30
0002FFFFFFFF10
00000000000000
00000000000000
00000000000000
5FFFFFFFB00000
9FFFFFFF800000
000001FF500000
000005FF200000
000008FD000000
00000BFA000000
00000EF7000000
00003FF3000000
00006FF0000000
0000AFC0000000
0000DF80000000
0001FF60000000
0001FF80000000
0000DFE5125A00
00005FFFFFFF30
000004BEFDA500
ENDCHAR
STARTCHAR Ibreve
ENCODING 300
SWIDTH 600 0
DWIDTH 19 0
BBX 18 27 1 0
BITMAP
0000000AC000004E50
0000000CF10000CF10
00000008FB313BF800
00000002EFFFFFB000
000000003BEEC60000
000000000000000000
0000CFFFFFFFFFFFF3
0001FFFFFFFFFFFFF0
000000000FF8000000
000000003FF5000000
000000006FF2000000
000000009FE0000000
00000000CFB0000000
00000000EF80000000
00000003FF50000000
00000006FF20000000
00000009FE00000000
0000000CFB00000000
0000000EF800000000
0000002FF500000000
0000005FF200000000
0000008FE000000000
000000BFB000000000
000000EF8000000000
000002FF5000000000
8FFFFFFFFFFFF60000
CFFFFFFFFFFFF30000
ENDCHAR
STARTCHAR ibreve
ENCODING 301
SWIDTH 600 0
DWIDTH 19 0
BBX 14 24 3 0
BITMAP
00002100000030
0005F6000005F7
0004FA00001EF1
0001FF8115DF80
00008FFFFFFA00
000007DFEB5000
00000000000000
00000000000000
5FFFFFFFB00000
9FFFFFFF800000
000001FF500000
000005FF200000
000008FD000000
00000BFA000000
00000EF7000000
00003FF3000000
00006FF0000000
0000AFC0000000
0000DF80000000
0001FF60000000
0001FF80000000
0000DFE5125A00
00005FFFFFFF30
000004BEFDA500
ENDCHAR
STARTCHAR Iogonek
ENCODING 302
SWIDTH 600 0
DWIDTH 19 0
BBX 18 28 1 -7
BITMAP
0000CFFFFFFFFFFFF3
0001FFFFFFFFFFFFF0
000000000FF8000000
000000003FF5000000
000000006FF2000000
000000009FE0000000
00000000CFB0000000
00000000EF80000000
00000003FF50000000
00000006FF20000000
00000009FE00000000
0000000CFB00000000
0000000EF800000000
0000002FF500000000
0000005FF200000000
0000008FE000000000
000000BFB000000000
000000EF8000000000
000002FF5000000000
8FFFFFFFFFFFF60000
CFFFFFFFFFFFF30000
000009E50000000000
0000AD200000000000
0006F4000000000000
000DE0000000000000
001FF5032000000000
000EFFFF8000000000
0003BEE91000000000
ENDCHAR
STARTCHAR iogonek
ENCODING 303
SWIDTH 600 0
DWIDTH 19 0
BBX 13 30 3 -7
BITMAP
0000002BE90000
000000AFFF2000
000000CFFF1000
0000005ED50000
00000000000000
00000000000000
00000000000000
5FFFFFFFB00000
9FFFFFFF800000
000001FF500000
000005FF200000
000008FD000000
00000BFA000000
00000EF7000000
00003FF3000000
00006FF0000000
0000AFC0000000
0000DF80000000
0001FF60000000
0001FF80000000
0000DFE5125A00
00006FFFFFFF30
000004BEFFD600
00000006E70000
0000007E400000
000003F6000000
00000AF2000000
00000CF9114000
000009FFFFE000
0000019EEB3000
ENDCHAR
STARTCHAR Idotaccent
ENCODING 304
SWIDTH 600 0
DWIDTH 19 0
BBX 18 26 1 0
BITMAP
00000000008EB10000
0000000002FFF30000
0000000000BE900000
000000000000000000
000000000000000000
0000CFFFFFFFFFFFF3
0001FFFFFFFFFFFFF0
000000000FF8000000
000000003FF5000000
000000006FF2000000
000000009FE0000000
00000000CFB0000000
00000000EF80000000
00000003FF50000000
00000006FF20000000
00000009FE00000000
0000000CFB00000000
0000000EF800000000
0000002FF500000000
0000005FF200000000
0000008FE000000000
000000BFB000000000
000000EF8000000000
000002FF5000000000
8FFFFFFFFFFFF60000
CFFFFFFFFFFFF30000
ENDCHAR
STARTCHAR dotlessi
ENCODING 305
SWIDTH 600 0
DWIDTH 19 0
BBX 13 16 3 0
BITMAP
5FFFFFFFB00000
9FFFFFFF800000
000001FF500000
000005FF200000
000008FD000000
00000BFA000000
00000EF7000000
00003FF3000000
00006FF0000000
0000AFC0000000
0000DF80000000
0001FF60000000
0001FF80000000
0000DFE5125A00
00005FFFFFFF30
000004BEFDA500
ENDCHAR
STARTCHAR IJ
ENCODING 306
SWIDTH 600 0
DWIDTH 19 0
BBX 17 26 1 -5
BITMAP
00008FE00000007FF0
0000BFB0000000AFC0
0000EF80000000DF90
0002FF50000001FF60
0005FF20000004FF30
0008FE00000008FF00
000BFB0000000BFC00
000EF80000000EF900
002FF50000002FF600
005FF20000005FF300
008FE00000008FF000
00BFC0000000BFC000
00EF90000000EF9000
02FF60000002FF6000
05FF30000005FF3000
08FE00000008FF0000
0BFC0000000BFC0000
0EF90000000EF90000
2FF60000002FF60000
5FF30000005FF30000
8FE00000008FF00000
0000000000BFB00000
0000000002FF600000
000000311BFE100000
000000CFFFF5000000
000001AEFC50000000
ENDCHAR
STARTCHAR ij
ENCODING 307
SWIDTH 600 0
DWIDTH 19 0
BBX 16 30 2 -7
BITMAP
00009EC100005DD4
0005FFF70001EFFC
0007FFF50002FFFA
0002CE9000009EC2
0000000000000000
0000000000000000
0000000000000000
000DF9000008FE00
001FF600000BFB00
004FF300000EF800
007FF000001FF500
00AFC000004FF200
00DF9000007FE000
01FF600000AFB000
04FF300000DF8000
07FF100001FF5000
09FD000004FF2000
0CFA000007FE0000
0FF700000AFC0000
3FF400000DF90000
6FF100001FF60000
9FD000004FF30000
CFA000007FF00000
00000000AFC00000
00000000DF900000
00000002FF500000
00000007FF100000
0000314EF9000000
0002FFFFE1000000
0003CEEA20000000
ENDCHAR
STARTCHAR Jcircumflex
ENCODING 308
SWIDTH 600 0
DWIDTH 19 0
BBX 18 27 0 0
BITMAP
00000000002EFF9000
0000000003EFDFF400
000000003EF807FD10
00000003EE50008FA0
00000004C200000980
000000000000000000
000001FFFFFFFFFFF3
000005FFFFFFFFFFE0
00000000000000AFC0
00000000000000EF90
00000000000002FF50
00000000000005FF20
00000000000008FE00
0000000000000BFB00
0000000000000EF800
0000000000002FF500
0000000000005FF200
0000000000008FE000
000000000000BFB000
000000000000EF8000
000000000003FF4000
000000000007FF1000
00500000001EFA0000
1BF50000009FF20000
0BFF93114BFF700000
01BFFFFFFFF7000000
0004ADFEC920000000
ENDCHAR
STARTCHAR jcircumflex
ENCODING 309
SWIDTH 600 0
DWIDTH 19 0
BBX 19 31 -1 -7
BITMAP
0000000000001CFF8000
000000000001BFFFF200
00000000000AFE3BFA00
00000000009FD202EF40
0000000008FC10004FC0
0000000004A000000870
00000000000000000000
00000000000000000000
000007FFFFFFFFF20000
00000BFFFFFFFFE00000
000000000000BFB00000
000000000000EF800000
000000000002FF500000
000000000005FF200000
000000000008FE000000
00000000000BFB000000
00000000000EF8000000
00000000002FF5000000
00000000005FF2000000
00000000008FE0000000
0000000000AFC0000000
0000000000DF90000000
0000000001FF60000000
0000000004FF30000000
0000000007FE00000000
000000000CFB00000000
000000003FF600000000
00000000CFE100000000
1D93014BFF5000000000
5FFFFFFFF70000000000
039DFED9300000000000
ENDCHAR
STARTCHAR uni0136
ENCODING 310
SWIDTH 600 0
DWIDTH 19 0
BBX 19 29 1 -8
BITMAP
00009FE000000008FF40
0000CFB00000009FE400
0000EF80000009FE4000
0003FF5000009FE40000
0006FF200009FE300000
0009FE0000AFE3000000
000CFB000AFE30000000
000EF700AFE300000000
002FF40AFF4000000000
005FF2BFFF8000000000
008FEBFDCFE100000000
00BFFFD24FF600000000
00EFFD200DFD00000000
02FFC10006FF40000000
05FF200001EFB0000000
08FE0000008FF3000000
0BFB0000002FF9000000
0EF80000000AFF100000
2FF500000004FF800000
5FF200000000CFE00000
8FE0000000006FF60000
00000000000000000000
0000009D810000000000
000000EFF90000000000
00000018FE0000000000
00000003FD0000000000
0000025DF80000000000
0000DFFFA00000000000
0000CCA5000000000000
ENDCHAR
STARTCHAR uni0137
ENCODING 311
SWIDTH 600 0
DWIDTH 19 0
BBX 18 31 1 -8
BITMAP
00000EF70000000000
00002FF40000000000
00005FF10000000000
00008FD00000000000
0000BFA00000000000
0000EF700000000000
0002FF400000000000
0005FF10000001BFE3
0008FD0000002DFD20
000BFA000004EFC200
000EF700006FFB1000
002FF40008FFA00000
005FF101AFF9000000
008FD01CFFA0000000
00BFA3DFFFD0000000
00EFCEFD5FF6000000
02FFFFB109FD100000
05FFF80002FF700000
08FF5000009FE10000
0BFB0000002FF70000
0EF800000008FE1000
2FF500000001EF8000
5FF2000000008FE100
000000000000000000
000000CC6000000000
000003FFF500000000
0000002BFA00000000
00000007F900000000
0000137FF400000000
0002FFFF7000000000
0002EC930000000000
ENDCHAR
STARTCHAR kgreenlandic
ENCODING 312
SWIDTH 600 0
DWIDTH 19 0
BBX 18 16 1 0
BITMAP
0006FF00000001BFE3
0009FC0000003DFD20
000CF9000004EFC100
000FF600007FFA1000
003FF40009FF900000
006FF101BFF7000000
009FD02DFF90000000
00CFA4EFFFE1000000
00EFCFFC3EF7000000
03FFFF9008FE100000
06FFF70001EF700000
08FE4000008FE10000
0BFB0000001EF80000
0EF800000008FE1000
2FF500000001EF8000
5FF2000000008FE100
ENDCHAR
STARTCHAR Lacute
ENCODING 313
SWIDTH 600 0
DWIDTH 19 0
BBX 14 28 3 0
BITMAP
000000003B1000
00000008FF8000
000003CFF91000
00005FFB300000
00002C50000000
00000000000000
00000000000000
0000BFB0000000
0000EF80000000
0002FF50000000
0005FF20000000
0008FE00000000
000BFB00000000
000EF800000000
002FF500000000
005FF200000000
008FE000000000
00BFC000000000
00EF9000000000
02FF6000000000
05FF3000000000
08FE0000000000
0BFC0000000000
0EF90000000000
2FF60000000000
5FF30000000000
8FFFFFFFFFFFF6
BFFFFFFFFFFFF3
ENDCHAR
STARTCHAR lacute
ENCODING 314
SWIDTH 600 0
DWIDTH 19 0
BBX 13 30 4 0
BITMAP
00000000019500
000000004DFE10
00000018FFD400
000001DFE60000
00000098100000
00000000000000
00000000000000
3FFFFFFF600000
6FFFFFFF300000
000006FF000000
000009FC000000
00000DF8000000
00001FF5000000
00004FF2000000
00007FE0000000
0000AFB0000000
0000DF80000000
0002FF40000000
0005FF10000000
0008FD00000000
000BFA00000000
000EF700000000
003FF400000000
006FF100000000
009FD000000000
00BFB000000000
00BFD000000000
008FF811393000
001DFFFFFF8000
00029EFDB71000
ENDCHAR
STARTCHAR uni013B
ENCODING 315
SWIDTH 600 0
DWIDTH 19 0
BBX 14 29 3 -8
BITMAP
0000BFB0000000
0000EF80000000
0002FF50000000
0005FF20000000
0008FE00000000
000BFB00000000
000EF800000000
002FF500000000
005FF200000000
008FE000000000
00BFC000000000
00EF9000000000
02FF6000000000
05FF3000000000
08FE0000000000
0BFC0000000000
0EF90000000000
2FF60000000000
5FF30000000000
8FFFFFFFFFFFF6
BFFFFFFFFFFFF3
00000000000000
00001EB4000000
00006FFF300000
000003DF700000
000000AF600000
000139FE200000
005FFFE5000000
005DB820000000
ENDCHAR
STARTCHAR uni013C
ENCODING 316
SWIDTH 600 0
DWIDTH 19 0
BBX 11 31 4 -8
BITMAP
3FFFFFFF6000
6FFFFFFF3000
000006FF0000
000009FC0000
00000DF80000
00001FF50000
00004FF20000
00007FE00000
0000AFB00000
0000DF800000
0002FF400000
0005FF100000
0008FD000000
000BFA000000
000EF7000000
003FF4000000
006FF1000000
009FD0000000
00BFB0000000
00BFD0000000
008FF8113930
001DFFFFFF80
00029EFDB710
000000000000
00007D910000
0000CFFC0000
000017FF1000
000001FF0000
00025CFA0000
00BFFFC10000
00ADA6000000
ENDCHAR
STARTCHAR Lcaron
ENCODING 317
SWIDTH 600 0
DWIDTH 19 0
BBX 15 26 3 0
BITMAP
000000000000EF50
000000000002FF20
000000000004FE00
000000000007FA00
00000000000AF600
0000BFB0000CF200
0000EF80000FD000
0002FF50002F9000
0005FF20005F5000
0008FE0000000000
000BFB0000000000
000EF80000000000
002FF50000000000
005FF20000000000
008FE00000000000
00BFC00000000000
00EF900000000000
02FF600000000000
05FF300000000000
08FE000000000000
0BFC000000000000
0EF9000000000000
2FF6000000000000
5FF3000000000000
8FFFFFFFFFFFF600
BFFFFFFFFFFFF300
ENDCHAR
STARTCHAR lcaron
ENCODING 318
SWIDTH 600 0
DWIDTH 19 0
BBX 15 26 4 0
BITMAP
000000000001FF40
000000000003FF10
000000000006FD00
3FFFFFFF6008F900
6FFFFFFF300BF500
000006FF000DF100
000009FC001FC000
00000DF8004F8000
00001FF5006F4000
00004FF200000000
00007FE000000000
0000AFB000000000
0000DF8000000000
0002FF4000000000
0005FF1000000000
0008FD0000000000
000BFA0000000000
000EF70000000000
003FF40000000000
006FF10000000000
009FD00000000000
00BFB00000000000
00BFD00000000000
008FF81139300000
001DFFFFFF800000
00029EFDB7100000
ENDCHAR
STARTCHAR Ldot
ENCODING 319
SWIDTH 600 0
DWIDTH 19 0
BBX 15 21 3 0
BITMAP
0000BFB000000000
0000EF8000000000
0002FF5000000000
0005FF2000000000
0008FE0000000000
000BFB0000000000
000EF80000000000
002FF50000000000
005FF2000005EE50
008FE000001FFFC0
00BFC000003FFFA0
00EF9000000AEB20
02FF600000000000
05FF300000000000
08FE000000000000
0BFC000000000000
0EF9000000000000
2FF6000000000000
5FF3000000000000
8FFFFFFFFFFFF600
BFFFFFFFFFFFF300
ENDCHAR
STARTCHAR ldot
ENCODING 320
SWIDTH 600 0
DWIDTH 19 0
BBX 17 23 3 0
BITMAP
5FFFFFFF4000000000
8FFFFFFF1000000000
000008FC0000000000
00000CF90000000000
00000FF60000000000
00003FF30000000000
00006FF00000000000
00009FC00000000000
0000DF800000000000
0001FF500000000000
0004FF20000006ED40
0007FE0000002FFFA0
000AFB0000004FFF90
000EF80000000BEB10
002FF4000000000000
005FF1000000000000
008FD0000000000000
00BFA0000000000000
00DF90000000000000
00DFA0000000000000
00AFF6114A10000000
003EFFFFFF60000000
0003AEFDB610000000
ENDCHAR
STARTCHAR Lslash
ENCODING 321
SWIDTH 600 0
DWIDTH 19 0
BBX 16 21 1 0
BITMAP
000000BFB0000000
000000EF80000000
000002FF50000000
000005FF20000000
000008FE00000000
00000BFC00000000
00000EF900000300
00002FF60003BF40
00005FF304BFFC30
00008FF4BFFB4000
0000BFFFFB400000
0018FFFA30000000
29EFFF6000000000
7FEBFF2000000000
1608FE0000000000
000BFC0000000000
000EF90000000000
002FF60000000000
005FF30000000000
008FFFFFFFFFFFF6
00BFFFFFFFFFFFF3
ENDCHAR
STARTCHAR lslash
ENCODING 322
SWIDTH 600 0
DWIDTH 19 0
BBX 14 23 3 0
BITMAP
03FFFFFFF60000
06FFFFFFF30000
0000006FF00000
0000009FC00000
000000CF900000
000001FF500000
000004FF2004C3
000007FE04BFF6
00000AFDBFF920
00000DFFF92000
0005DFFA200000
05DFFFF1000000
9FE89FD0000000
5810BFA0000000
0000EF70000000
0003FF40000000
0006FF10000000
0009FD00000000
000BFB00000000
000BFD00000000
0008FF81139300
0001DFFFFFF800
000029EFDB7100
ENDCHAR
STARTCHAR Nacute
ENCODING 323
SWIDTH 600 0
DWIDTH 19 0
BBX 19 28 0 0
BITMAP
000000000000003B2000
00000000000007FFA000
000000000002BFFA2000
00000000004EFC400000
00000000001C60000000
00000000000000000000
00000000000000000000
00002FFA00000000CF90
00005FFE00000000FF60
00008FFF50000003FF30
0000BFBF90000006FF00
0000EF5FE0000009FC00
0002FF1DF400000CF900
0005FD09F900000EF600
0008FB05FD00002FF300
000BF901EF30005FF000
000EF600AF80008FC000
002FF3005FD000BF9000
005FF1001FF300EF6000
008FD0000BF702FF3000
00BFA00006FC04FF0000
00EF700001FF17FC0000
02FF400000BF59F90000
05FF1000007F9BF60000
08FD0000002FDDF30000
0BFA0000000CFFF00000
0EF700000007FFC00000
2FF400000002FF900000
ENDCHAR
STARTCHAR nacute
ENCODING 324
SWIDTH 600 0
DWIDTH 19 0
BBX 16 25 1 0
BITMAP
0000000000000690
0000000000008FF6
00000000001AFFA1
0000000001CFE600
000000001DFC2000
0000000007900000
0000000000000000
0000000000000000
0000000000000000
000DF30028CFEC50
001FF107FFFFFFF4
004FF1BFA4117FFB
006FEDC300000BFD
009FFB10000009FE
00CFB00000000AFC
00FF600000000DFA
03FF300000001FF7
06FF100000003FF4
09FD000000006FF1
0CFA000000009FD0
0EF700000000CFA0
3FF400000001FF70
5FF100000003FF40
8FD000000006FF10
BFA000000009FD00
ENDCHAR
STARTCHAR uni0145
ENCODING 325
SWIDTH 600 0
DWIDTH 19 0
BBX 19 29 0 -8
BITMAP
00002FFA00000000CF90
00005FFE00000000FF60
00008FFF50000003FF30
0000BFBF90000006FF00
0000EF5FE0000009FC00
0002FF1DF400000CF900
0005FD09F900000EF600
0008FB05FD00002FF300
000BF901EF30005FF000
000EF600AF80008FC000
002FF3005FD000BF9000
005FF1001FF300EF6000
008FD0000BF702FF3000
00BFA00006FC04FF0000
00EF700001FF17FC0000
02FF400000BF59F90000
05FF1000007F9BF60000
08FD0000002FDDF30000
0BFA0000000CFFF00000
0EF700000007FFC00000
2FF400000002FF900000
00000000000000000000
000000CC600000000000
000003FFF60000000000
0000002BFA0000000000
00000007FA0000000000
0000127EF40000000000
0001FFFF800000000000
0001EC93000000000000
ENDCHAR
STARTCHAR uni0146
ENCODING 326
SWIDTH 600 0
DWIDTH 19 0
BBX 16 24 1 -8
BITMAP
000DF30028CFEC50
001FF107FFFFFFF4
004FF1BFA4117FFB
006FEDC300000BFD
009FFB10000009FE
00CFB00000000AFC
00FF600000000DFA
03FF300000001FF7
06FF100000003FF4
09FD000000006FF1
0CFA000000009FD0
0EF700000000CFA0
3FF400000001FF70
5FF100000003FF40
8FD000000006FF10
BFA000000009FD00
0000000000000000
000009C810000000
00001EFF90000000
0000029FD0000000
0000004FC0000000
000026DF70000000
000EFFFA00000000
000DCA4000000000
ENDCHAR
STARTCHAR Ncaron
ENCODING 327
SWIDTH 600 0
DWIDTH 19 0
BBX 19 27 0 0
BITMAP
000000006B000002C600
000000007FB0004EF400
000000000CFA07FF4000
0000000002EFDFE40000
00000000007FFE400000
00000000000000000000
00002FFA00000000CF90
00005FFE00000000FF60
00008FFF50000003FF30
0000BFBF90000006FF00
0000EF5FE0000009FC00
0002FF1DF400000CF900
0005FD09F900000EF600
0008FB05FD00002FF300
000BF901EF30005FF000
000EF600AF80008FC000
002FF3005FD000BF9000
005FF1001FF300EF6000
008FD0000BF702FF3000
00BFA00006FC04FF0000
00EF700001FF17FC0000
02FF400000BF59F90000
05FF1000007F9BF60000
08FD0000002FDDF30000
0BFA0000000CFFF00000
0EF700000007FFC00000
2FF400000002FF900000
ENDCHAR
STARTCHAR ncaron
ENCODING 328
SWIDTH 600 0
DWIDTH 19 0
BBX 17 24 1 0
BITMAP
0000000A4000002B20
0000002FE10003EF40
00000008FB004EF600
00000001DF86FF7000
000000006FFFF80000
000000000CFF900000
000000000000000000
000000000000000000
000DF30028CFEC5000
001FF107FFFFFFF400
004FF1BFA4117FFB00
006FEDC300000BFD00
009FFB10000009FE00
00CFB00000000AFC00
00FF600000000DFA00
03FF300000001FF700
06FF100000003FF400
09FD000000006FF100
0CFA000000009FD000
0EF700000000CFA000
3FF400000001FF7000
5FF100000003FF4000
8FD000000006FF1000
BFA000000009FD0000
ENDCHAR
STARTCHAR napostrophe
ENCODING 329
SWIDTH 600 0
DWIDTH 19 0
BBX 21 22 -1 0
BITMAP
0002BEB200000000000000
000CFFFA00000000000000
001FFFFD00000000000000
001FFFFC00000000000000
0008EEF900000000000000
00000DF300000000000000
00007F907F90018DFEB200
0006FB00AF706EFFFFFD00
05BF7000DF69FA312CFF40
2D820001FFDE400003FF60
00000004FFD2000001FF60
00000007FF10000002FF50
0000000AFC00000005FF20
0000000DF900000008FE00
0000001FF60000000BFB00
0000003FF30000000DF900
0000006FF10000001FF600
0000009FD00000004FF300
000000CFA00000007FE000
000000FF70000000AFC000
000003FF40000000DF9000
000006FF10000001FF6000
ENDCHAR
STARTCHAR Eng
ENCODING 330
SWIDTH 600 0
DWIDTH 19 0
BBX 18 21 0 0
BITMAP
00005FF2049DFD9200
00008FE1AFFFFFFE30
0000BFDDE83127FFD0
0000EFFA1000008FF5
0002FF900000001FF9
0005FF300000000DFB
0008FE000000000BFC
000BFC000000000BFC
000EF9000000000CFB
001FF6000000000DFA
004FF3000000000FF8
007FF0000000002FF6
00AFC0000000006FF3
00DF9000000000AFE0
01FF6000000000EFA0
04FF3000000006FF40
07FF000000000DFC00
0AFC000000009FF300
0DF900003118FF8000
1FF60000DFFFF90000
4FF30002CEFC600000
ENDCHAR
STARTCHAR eng
ENCODING 331
SWIDTH 600 0
DWIDTH 19 0
BBX 16 23 1 -7
BITMAP
000DF30028CFEC40
001FF107FFFFFFF3
004FF1BFA4117FFA
006FEDC300000CFD
009FFB10000009FE
00CFB000000009FD
00FF600000000CFB
03FF300000000EF8
06FF100000002FF5
09FD000000005FF2
0CFA000000008FE0
0EF700000000BFC0
3FF400000000DF90
5FF100000001FF60
8FD000000004FF30
BFA000000007FF00
000000000009FC00
00000000000CF900
00000000001FF600
00000000005FF200
0000000313DFA000
0000001FFFFE2000
0000003CEEB30000
ENDCHAR
STARTCHAR Omacron
ENCODING 332
SWIDTH 600 0
DWIDTH 19 0
BBX 18 25 1 0
BITMAP
00000008FFFFFFFA00
0000000BFFFFFFF700
000000000000000000
000000000000000000
00000017CEFDA40000
000005EFFFFFFF9000
00009FFC4113AFF800
0007FF80000009FF20
004FF800000001EF90
00CFC000000000AFD0
05FF50000000007FF0
0AFD00000000006FF2
1FF800000000007FF2
4FF400000000007FF0
7FF10000000000AFE0
9FE00000000000CFB0
AFD00000000002FF80
AFD00000000006FF20
9FE0000000000DFC00
6FF2000000006FF400
2FF700000002EFB000
0BFE2000002DFD1000
02EFD51138EFD20000
003EFFFFFFFB100000
00018CEFDA40000000
ENDCHAR
STARTCHAR omacron
ENCODING 333
SWIDTH 600 0
DWIDTH 19 0
BBX 16 21 1 0
BITMAP
0000005FFFFFFFC0
0000008FFFFFFF90
0000000000000000
0000000000000000
0000000000000000
0000017BEFEB5000
00006EFFFFFFFB10
0009FFC51039FFA0
008FF80000008FF4
03FF800000000EF9
0BFD000000000AFC
1FF70000000008FD
5FF20000000009FD
7FF0000000000BFB
8FF0000000001FF7
6FF1000000008FF2
3FF600000003FF90
0DFD1000003EFD10
04FFD51139FFD200
006FFFFFFFFA1000
00029DEED9300000
ENDCHAR
STARTCHAR Obreve
ENCODING 334
SWIDTH 600 0
DWIDTH 19 0
BBX 18 27 1 0
BITMAP
0000000AC000004E50
0000000CF10000CF10
00000008FB313BF800
00000002EFFFFFB000
000000003BEEC60000
000000000000000000
00000017CEFDA40000
000005EFFFFFFF9000
00009FFC4113AFF800
0007FF80000009FF20
004FF800000001EF90
00CFC000000000AFD0
05FF50000000007FF0
0AFD00000000006FF2
1FF800000000007FF2
4FF400000000007FF0
7FF10000000000AFE0
9FE00000000000CFB0
AFD00000000002FF80
AFD00000000006FF20
9FE0000000000DFC00
6FF2000000006FF400
2FF700000002EFB000
0BFE2000002DFD1000
02EFD51138EFD20000
003EFFFFFFFB100000
00018CEFDA40000000
ENDCHAR
STARTCHAR obreve
ENCODING 335
SWIDTH 600 0
DWIDTH 19 0
BBX 17 24 1 0
BITMAP
000000130000001200
000000BF000000BE10
000000BF400006FA00
0000008FE4028FE200
0000001DFFFFFE4000
00000002AEFD920000
000000000000000000
000000000000000000
0000017BEFEB500000
00006EFFFFFFFB1000
0009FFC51039FFA000
008FF80000008FF400
03FF800000000EF900
0BFD000000000AFC00
1FF70000000008FD00
5FF20000000009FD00
7FF0000000000BFB00
8FF0000000001FF700
6FF1000000008FF200
3FF600000003FF9000
0DFD1000003EFD1000
04FFD51139FFD20000
006FFFFFFFFA100000
00029DEED930000000
ENDCHAR
STARTCHAR Ohungarumlaut
ENCODING 336
SWIDTH 600 0
DWIDTH 19 0
BBX 19 28 1 0
BITMAP
00000000000A80008910
00000000009FC107FD20
0000000007FC105FD200
000000006FB104FC1000
000000008A0007B10000
00000000000000000000
00000000000000000000
00000017CEFDA4000000
000005EFFFFFFF900000
00009FFC4113AFF80000
0007FF80000009FF2000
004FF800000001EF9000
00CFC000000000AFD000
05FF50000000007FF000
0AFD00000000006FF200
1FF800000000007FF200
4FF400000000007FF000
7FF10000000000AFE000
9FE00000000000CFB000
AFD00000000002FF8000
AFD00000000006FF2000
9FE0000000000DFC0000
6FF2000000006FF40000
2FF700000002EFB00000
0BFE2000002DFD100000
02EFD51138EFD2000000
003EFFFFFFFB10000000
00018CEFDA4000000000
ENDCHAR
STARTCHAR ohungarumlaut
ENCODING 337
SWIDTH 600 0
DWIDTH 19 0
BBX 18 24 1 0
BITMAP
00000000003B2006A1
0000000001DF702EF5
000000000AFA00CF70
000000005FC008FA00
00000002ED104FC000
00000003C3005C1000
000000000000000000
000000000000000000
0000017BEFEB500000
00006EFFFFFFFB1000
0009FFC51039FFA000
008FF80000008FF400
03FF800000000EF900
0BFD000000000AFC00
1FF70000000008FD00
5FF20000000009FD00
7FF0000000000BFB00
8FF0000000001FF700
6FF1000000008FF200
3FF600000003FF9000
0DFD1000003EFD1000
04FFD51139FFD20000
006FFFFFFFFA100000
00029DEED930000000
ENDCHAR
STARTCHAR OE
ENCODING 338
SWIDTH 600 0
DWIDTH 19 0
BBX 21 21 0 0
BITMAP
000000016ADEFFFFFFFFB0
0000006EFFFFFFFFFFFF80
00001BFFB523FF11111100
0001CFE60006FC00000000
0009FF400009F900000000
004FF700000CF600000000
00BFD000000FF300000000
03FF7000003FF100000000
07FF1000006FC000000000
0BFC0000009FFFFFF70000
0EF9000000CFFFFFF40000
0FF8000000FF4000000000
1FF7000003FF1000000000
2FF7000006FD0000000000
1FF8000009FA0000000000
0EFA00000CF60000000000
0AFE10000FF30000000000
04FFA0003FF00000000000
00AFFB416FC11111100000
001AFFFFFFFFFFFFF40000
00004ADEFFFFFFFFF10000
ENDCHAR
STARTCHAR oe
ENCODING 339
SWIDTH 600 0
DWIDTH 19 0
BBX 21 16 -1 0
BITMAP
000005BEEA10006CED6000
0001BFFFFFC01BFFFFF500
000CFE612DF4AF9119FC00
008FE30005FCFA0001FF10
01FF700001FFE10000DF20
07FE000000EF800000DF20
0CF8000000EF200000FF00
1FF4000000FFFFFFFFFD00
3FF2000003FFFFFFFFFA00
4FF0000007F80000000000
4FF000000CF70000000000
3FF200004FF80000000000
1FF60001DFFC0000000000
0BFE314DF8CF81017D1000
03EFFFFF904FFFFFFF4000
003BEEB50004BEEC820000
ENDCHAR
STARTCHAR Racute
ENCODING 340
SWIDTH 600 0
DWIDTH 19 0
BBX 17 28 1 0
BITMAP
00000000000003B100
0000000000007FF900
00000000002CFFA200
0000000004FFC30000
0000000001C5000000
000000000000000000
000000000000000000
0000CFFFFFFEB71000
0000FFFFFFFFFFE400
0003FF4000138FFE10
0006FF10000006FF60
0009FD00000000FF80
000CFA00000000EF80
000FF700000002FF60
003FF400000008FF20
006FF10000006FF900
009FD000125BFFB000
00CFFFFFFFFFF80000
00FFFFFFFFC7200000
03FF4000DFA0000000
06FF10008FF2000000
09FD00002FF7000000
0CFA00000BFD000000
0EF7000005FF500000
3FF4000000EFB00000
6FF10000009FF20000
9FD00000003FF80000
CFA00000000CFE0000
ENDCHAR
STARTCHAR racute
ENCODING 341
SWIDTH 600 0
DWIDTH 19 0
BBX 15 25 3 0
BITMAP
0000000000009500
00000000001BFF30
0000000002DFF700
000000003EFD4000
00000003EFA10000
00000000A6000000
0000000000000000
0000000000000000
0000000000000000
000DF20018DFEB50
001FF005EFFFFF60
004FD06FC5113700
007FB5F700000000
00AFBD5000000000
00DFF50000000000
01FF700000000000
04FF100000000000
07FD000000000000
0AFA000000000000
0CF8000000000000
1FF5000000000000
3FF2000000000000
6FE0000000000000
9FC0000000000000
CF90000000000000
ENDCHAR
STARTCHAR uni0156
ENCODING 342
SWIDTH 600 0
DWIDTH 19 0
BBX 17 29 1 -8
BITMAP
0000CFFFFFFEB71000
0000FFFFFFFFFFE400
0003FF4000138FFE10
0006FF10000006FF60
0009FD00000000FF80
000CFA00000000EF80
000FF700000002FF60
003FF400000008FF20
006FF10000006FF900
009FD000125BFFB000
00CFFFFFFFFFF80000
00FFFFFFFFC7200000
03FF4000DFA0000000
06FF10008FF2000000
09FD00002FF7000000
0CFA00000BFD000000
0EF7000005FF500000
3FF4000000EFB00000
6FF10000009FF20000
9FD00000003FF80000
CFA00000000CFE0000
000000000000000000
000007D91000000000
00000CFFB000000000
0000017FF100000000
0000002FF000000000
000025CFA000000000
000BFFFC1000000000
000BDA500000000000
ENDCHAR
STARTCHAR uni0157
ENCODING 343
SWIDTH 600 0
DWIDTH 19 0
BBX 18 24 0 -8
BITMAP
000000DF20018DFEB5
000001FF005EFFFFF6
000004FD06FC511370
000007FB5F70000000
00000AFBD500000000
00000DFF5000000000
00001FF70000000000
00004FF10000000000
00007FD00000000000
0000AFA00000000000
0000CF800000000000
0001FF500000000000
0003FF200000000000
0006FE000000000000
0009FC000000000000
000CF9000000000000
000000000000000000
006D92000000000000
00BFFD000000000000
0016FF200000000000
0001FF100000000000
014CFB000000000000
AFFFD2000000000000
9DB600000000000000
ENDCHAR
STARTCHAR Rcaron
ENCODING 344
SWIDTH 600 0
DWIDTH 19 0
BBX 17 27 1 0
BITMAP
00000007A000002C50
00000008FA0005EE40
00000000CF908FE400
000000003FFDFE3000
0000000007FFE30000
000000000000000000
0000CFFFFFFEB71000
0000FFFFFFFFFFE400
0003FF4000138FFE10
0006FF10000006FF60
0009FD00000000FF80
000CFA00000000EF80
000FF700000002FF60
003FF400000008FF20
006FF10000006FF900
009FD000125BFFB000
00CFFFFFFFFFF80000
00FFFFFFFFC7200000
03FF4000DFA0000000
06FF10008FF2000000
09FD00002FF7000000
0CFA00000BFD000000
0EF7000005FF500000
3FF4000000EFB00000
6FF10000009FF20000
9FD00000003FF80000
CFA00000000CFE0000
ENDCHAR
STARTCHAR rcaron
ENCODING 345
SWIDTH 600 0
DWIDTH 19 0
BBX 16 24 3 0
BITMAP
000002B2000004A0
000005FB00005FE2
000000BF8007FE30
0000003FF49FF400
00000009FFFF5000
00000001EFF60000
0000000000000000
0000000000000000
000DF20018DFEB50
001FF005EFFFFF60
004FD06FC5113700
007FB5F700000000
00AFBD5000000000
00DFF50000000000
01FF700000000000
04FF100000000000
07FD000000000000
0AFA000000000000
0CF8000000000000
1FF5000000000000
3FF2000000000000
6FE0000000000000
9FC0000000000000
CF90000000000000
ENDCHAR
STARTCHAR Sacute
ENCODING 346
SWIDTH 600 0
DWIDTH 19 0
BBX 16 28 1 0
BITMAP
0000000000000790
000000000002BFF3
00000000006EFE60
000000000AFF8100
0000000006B20000
0000000000000000
0000000000000000
00000039DEEC9300
000008FFFFFFFF90
00007FFB3014AFFB
0001FFB0000006F9
0005FF3000000020
0006FF2000000000
0005FF6000000000
0001EFE400000000
00005FFF81000000
000005EFFE600000
0000002BFFFB2000
000000004CFFD200
00000000008FFC00
000000000009FF40
000000000002FF70
000000000001FF60
1A4000000005FF40
9FE50000001DFD00
1DFFA41027EFF400
01AFFFFFFFFE4000
00039CEFEB710000
ENDCHAR
STARTCHAR sacute
ENCODING 347
SWIDTH 600 0
DWIDTH 19 0
BBX 16 25 1 0
BITMAP
0000000000001B30
000000000002DFD1
00000000003EFE50
0000000005FFC200
000000005FF80000
000000001B400000
0000000000000000
0000000000000000
0000000000000000
000004ADFEDA4000
0000AFFFFFFFFC30
0007FF820149EFE2
000CF90000002B90
000DF80000000000
000BFE4000000000
0003EFFB50000000
00003CFFFE930000
0000004AFFFF9000
0000000016DFF900
000000000009FF10
013000000003FF30
0BE500000005FF10
1BFFC621127EFA00
008EFFFFFFFFB100
00017BDFECA50000
ENDCHAR
STARTCHAR Scircumflex
ENCODING 348
SWIDTH 600 0
DWIDTH 19 0
BBX 16 27 1 0
BITMAP
0000000008FFF200
000000008FFDFC00
00000008FD31DF70
0000009FB1002DF3
00000098000002B3
0000000000000000
00000039DEEC9300
000008FFFFFFFF90
00007FFB3014AFFB
0001FFB0000006F9
0005FF3000000020
0006FF2000000000
0005FF6000000000
0001EFE400000000
00005FFF81000000
000005EFFE600000
0000002BFFFB2000
000000004CFFD200
00000000008FFC00
000000000009FF40
000000000002FF70
000000000001FF60
1A4000000005FF40
9FE50000001DFD00
1DFFA41027EFF400
01AFFFFFFFFE4000
00039CEFEB710000
ENDCHAR
STARTCHAR scircumflex
ENCODING 349
SWIDTH 600 0
DWIDTH 19 0
BBX 16 24 1 0
BITMAP
0000000009FFC000
000000008FFFF600
00000007FF68FE10
0000005FE400BF80
000004FE30001EF2
000002B2000004A0
0000000000000000
0000000000000000
000004ADFEDA4000
0000AFFFFFFFFC30
0007FF820149EFE2
000CF90000002B90
000DF80000000000
000BFE4000000000
0003EFFB50000000
00003CFFFE930000
0000004AFFFF9000
0000000016DFF900
000000000009FF10
013000000003FF30
0BE500000005FF10
1BFFC621127EFA00
008EFFFFFFFFB100
00017BDFECA50000
ENDCHAR
STARTCHAR uni015E
ENCODING 350
SWIDTH 600 0
DWIDTH 19 0
BBX 16 28 1 -7
BITMAP
00000039DEEC9300
000008FFFFFFFF90
00007FFB3014AFFB
0001FFB0000006F9
0005FF3000000020
0006FF2000000000
0005FF6000000000
0001EFE400000000
00005FFF81000000
000005EFFE600000
0000002BFFFB2000
000000004CFFD200
00000000008FFC00
000000000009FF40
000000000002FF70
000000000001FF60
1A4000000005FF40
9FE50000001DFD00
1DFFA41027EFF400
01AFFFFFFFFE4000
00039CEFEB710000
000000BD10000000
000007F400000000
00002FFC30000000
000003AFB0000000
0000005FA0000000
000026ED20000000
000FDB7100000000
ENDCHAR
STARTCHAR uni015F
ENCODING 351
SWIDTH 600 0
DWIDTH 19 0
BBX 16 23 1 -7
BITMAP
000004ADFEDA4000
0000AFFFFFFFFC30
0007FF820149EFE2
000CF90000002B90
000DF80000000000
000BFE4000000000
0003EFFB50000000
00003CFFFE930000
0000004AFFFF9000
0000000016DFF900
000000000009FF10
013000000003FF30
0BE500000005FF10
1BFFC621127EFA00
008EFFFFFFFFB100
00017BDFECA50000
000000BE10000000
000006F400000000
00002EFC40000000
000002AFC0000000
0000004FB0000000
000026DE30000000
000EDB7100000000
ENDCHAR
STARTCHAR Scaron
ENCODING 352
SWIDTH 600 0
DWIDTH 19 0
BBX 17 27 1 0
BITMAP
0000001B5000006C10
0000001DF40009FB10
00000004FE42CFB100
000000009FEEFB1000
000000001DFFB00000
000000000000000000
00000039DEEC930000
000008FFFFFFFF9000
00007FFB3014AFFB00
0001FFB0000006F900
0005FF300000002000
0006FF200000000000
0005FF600000000000
0001EFE40000000000
00005FFF8100000000
000005EFFE60000000
0000002BFFFB200000
000000004CFFD20000
00000000008FFC0000
000000000009FF4000
000000000002FF7000
000000000001FF6000
1A4000000005FF4000
9FE50000001DFD0000
1DFFA41027EFF40000
01AFFFFFFFFE400000
00039CEFEB71000000
ENDCHAR
STARTCHAR scaron
ENCODING 353
SWIDTH 600 0
DWIDTH 19 0
BBX 16 24 1 0
BITMAP
0000003B00000068
0000008F900008FC
0000001DF500AFD1
00000006FE3BFE20
00000000CFFFE300
000000003FFE3000
0000000000000000
0000000000000000
000004ADFEDA4000
0000AFFFFFFFFC30
0007FF820149EFE2
000CF90000002B90
000DF80000000000
000BFE4000000000
0003EFFB50000000
00003CFFFE930000
0000004AFFFF9000
0000000016DFF900
000000000009FF10
013000000003FF30
0BE500000005FF10
1BFFC621127EFA00
008EFFFFFFFFB100
00017BDFECA50000
ENDCHAR
STARTCHAR uni0162
ENCODING 354
SWIDTH 600 0
DWIDTH 19 0
BBX 17 28 3 -7
BITMAP
8FFFFFFFFFFFFFFFD0
BFFFFFFFFFFFFFFFA0
0000000FF700000000
0000003FF400000000
0000006FF100000000
0000009FD000000000
000000CFA000000000
000000FF7000000000
000003FF4000000000
000006FF1000000000
000009FE0000000000
00000CFB0000000000
00000EF80000000000
00003FF50000000000
00006FF20000000000
00009FE00000000000
0000CFB00000000000
0000EF800000000000
0002FF500000000000
0005FF200000000000
0008FE000000000000
0006F5000000000000
002E90000000000000
00BFE7000000000000
0026FF200000000000
0000EF100000000000
014BF6000000000000
AEC830000000000000
ENDCHAR
STARTCHAR uni0163
ENCODING 355
SWIDTH 600 0
DWIDTH 19 0
BBX 16 28 2 -7
BITMAP
0000006FA0000000
000000AF70000000
000000EF40000000
000003FF10000000
000007FD00000000
5DEEFFFFFFFFFFF5
8FFFFFFFFFFFFFF1
00003FF300000000
00007FF000000000
0000AFC000000000
0000DF9000000000
0001FF6000000000
0004FF3000000000
0007FE0000000000
000AFC0000000000
000CF90000000000
000DFA0000000000
000CFD0000000000
0008FFA2015BC000
0001DFFFFFFFE200
000029DFEDA61000
0000004F70000000
000001DB00000000
000009FE80000000
0000015EF4000000
0000000CF3000000
000013AF90000000
0007EC9400000000
ENDCHAR
STARTCHAR Tcaron
ENCODING 356
SWIDTH 600 0
DWIDTH 19 0
BBX 17 27 3 0
BITMAP
000006B000002C6000
000007FB0004EF4000
000000CFA07FF40000
0000002EFDFE400000
00000007FFE4000000
000000000000000000
8FFFFFFFFFFFFFFFD0
BFFFFFFFFFFFFFFFA0
0000000FF700000000
0000003FF400000000
0000006FF100000000
0000009FD000000000
000000CFA000000000
000000FF7000000000
000003FF4000000000
000006FF1000000000
000009FE0000000000
00000CFB0000000000
00000EF80000000000
00003FF50000000000
00006FF20000000000
00009FE00000000000
0000CFB00000000000
0000EF800000000000
0002FF500000000000
0005FF200000000000
0008FE000000000000
ENDCHAR
STARTCHAR tcaron
ENCODING 357
SWIDTH 600 0
DWIDTH 19 0
BBX 16 26 2 0
BITMAP
0000000000000EF6
0000000000001FF2
0000000000004FE0
0000000000007FA0
0000000000009F60
0000006FA000CF20
000000AF7000ED00
000000EF4002FA00
000003FF1005F600
000007FD00000000
5DEEFFFFFFFFFFF5
8FFFFFFFFFFFFFF1
00003FF300000000
00007FF000000000
0000AFC000000000
0000DF9000000000
0001FF6000000000
0004FF3000000000
0007FE0000000000
000AFC0000000000
000CF90000000000
000DFA0000000000
000CFD0000000000
0008FFA2015BC000
0001DFFFFFFFE200
000029DFEDA61000
ENDCHAR
STARTCHAR Tbar
ENCODING 358
SWIDTH 600 0
DWIDTH 19 0
BBX 17 21 3 0
BITMAP
8FFFFFFFFFFFFFFFD0
BFFFFFFFFFFFFFFFA0
0000000FF700000000
0000003FF400000000
0000005FF200000000
0000008FE000000000
000000BFB000000000
000000EF8000000000
000002FF5000000000
08DFFFFFFFFF700000
0CFFFFFFFFFF400000
00000AFC0000000000
00000DF90000000000
00001FF60000000000
00005FF30000000000
00008FE00000000000
0000BFB00000000000
0000EF800000000000
0002FF500000000000
0005FF200000000000
0008FE000000000000
ENDCHAR
STARTCHAR tbar
ENCODING 359
SWIDTH 600 0
DWIDTH 19 0
BBX 17 21 1 0
BITMAP
00000006FA00000000
0000000AF700000000
0000000EF400000000
0000003FF100000000
0000007FD000000000
05DEEFFFFFFFFFFF50
08FFFFFFFFFFFFFF10
000004FF3000000000
000007FE0000000000
00000BFB0000000000
00000EF80000000000
6DEEFFFFFFFFFF9000
AFFFFFFFFFFFFF6000
00008FD00000000000
0000BFB00000000000
0000DF900000000000
0000DFA00000000000
0000CFD10000000000
00007FFB3015BC0000
00001DFFFFFFFE2000
0000019DFEDA610000
ENDCHAR
STARTCHAR Utilde
ENCODING 360
SWIDTH 600 0
DWIDTH 19 0
BBX 17 28 2 0
BITMAP
000000035300001310
0000009FFF90008F40
000006FDAFFA14EE00
00000EE104EFFFF500
00002C70002CFD5000
000000000000000000
000000000000000000
005FF200000000BFB0
008FE000000000EF80
00BFB000000002FF50
00EF8000000005FF20
02FF5000000008FE00
05FF200000000BFA00
08FE000000000EF700
0BFB000000002FF400
0EF8000000005FF100
2FF5000000008FD000
5FF200000000BFA000
8FE000000000EF7000
BFB000000002FF4000
DF9000000005FF1000
EF800000000AFC0000
EFA00000001EF70000
CFC00000008FF10000
7FF5000004FF800000
1EFE62027FFC000000
04EFFFFFFFB1000000
0028CEFDA500000000
ENDCHAR
STARTCHAR utilde
ENCODING 361
SWIDTH 600 0
DWIDTH 19 0
BBX 17 23 1 0
BITMAP
00000006A920001840
0000008FFFD2006F60
000002FD47FD22DF20
000008F4007FFFF800
000009C00007EE8000
000000000000000000
000000000000000000
002FF500000000FF70
005FF200000003FF40
008FE000000006FF10
00BFB000000009FD00
00EF800000000BFA00
02FF500000000EF700
05FF200000002FF500
08FE000000005FF200
0BFB000000008FE000
0EF800000000BFB000
1FF600000002EF8000
3FF50000002DFF5000
2FF7000005ECFF2000
0EFE4125BF84FE0000
08FFFFFFD406FB0000
007DFEB60007F80000
ENDCHAR
STARTCHAR Umacron
ENCODING 362
SWIDTH 600 0
DWIDTH 19 0
BBX 17 25 2 0
BITMAP
0000008FFFFFFFA000
000000BFFFFFFF7000
000000000000000000
000000000000000000
005FF200000000BFB0
008FE000000000EF80
00BFB000000002FF50
00EF8000000005FF20
02FF5000000008FE00
05FF200000000BFA00
08FE000000000EF700
0BFB000000002FF400
0EF8000000005FF100
2FF5000000008FD000
5FF200000000BFA000
8FE000000000EF7000
BFB000000002FF4000
DF9000000005FF1000
EF800000000AFC0000
EFA00000001EF70000
CFC00000008FF10000
7FF5000004FF800000
1EFE62027FFC000000
04EFFFFFFFB1000000
0028CEFDA500000000
ENDCHAR
STARTCHAR umacron
ENCODING 363
SWIDTH 600 0
DWIDTH 19 0
BBX 17 21 1 0
BITMAP
0000006FFFFFFFB000
0000008FFFFFFF9000
000000000000000000
000000000000000000
000000000000000000
002FF500000000FF70
005FF200000003FF40
008FE000000006FF10
00BFB000000009FD00
00EF800000000BFA00
02FF500000000EF700
05FF200000002FF500
08FE000000005FF200
0BFB000000008FE000
0EF800000000BFB000
1FF600000002EF8000
3FF50000002DFF5000
2FF7000005ECFF2000
0EFE4125BF84FE0000
08FFFFFFD406FB0000
007DFEB60007F80000
ENDCHAR
STARTCHAR Ubreve
ENCODING 364
SWIDTH 600 0
DWIDTH 19 0
BBX 17 27 2 0
BITMAP
000000AC000004E500
000000CF10000CF100
0000008FB313BF8000
0000002EFFFFFB0000
00000003BEEC600000
000000000000000000
005FF200000000BFB0
008FE000000000EF80
00BFB000000002FF50
00EF8000000005FF20
02FF5000000008FE00
05FF200000000BFA00
08FE000000000EF700
0BFB000000002FF400
0EF8000000005FF100
2FF5000000008FD000
5FF200000000BFA000
8FE000000000EF7000
BFB000000002FF4000
DF9000000005FF1000
EF800000000AFC0000
EFA00000001EF70000
CFC00000008FF10000
7FF5000004FF800000
1EFE62027FFC000000
04EFFFFFFFB1000000
0028CEFDA500000000
ENDCHAR
STARTCHAR ubreve
ENCODING 365
SWIDTH 600 0
DWIDTH 19 0
BBX 17 24 1 0
BITMAP
000000120000002200
000000CE000000CE10
000000BF400007F900
0000008FD4029FE200
0000001EFFFFFE4000
00000002AEFD920000
000000000000000000
000000000000000000
002FF500000000FF70
005FF200000003FF40
008FE000000006FF10
00BFB000000009FD00
00EF800000000BFA00
02FF500000000EF700
05FF200000002FF500
08FE000000005FF200
0BFB000000008FE000
0EF800000000BFB000
1FF600000002EF8000
3FF50000002DFF5000
2FF7000005ECFF2000
0EFE4125BF84FE0000
08FFFFFFD406FB0000
007DFEB60007F80000
ENDCHAR
STARTCHAR Uring
ENCODING 366
SWIDTH 600 0
DWIDTH 19 0
BBX 17 27 2 0
BITMAP
000000002AEEA10000
00000001DA12E90000
00000005F200BB0000
00000004F616F50000
000000007DEC500000
000000000000000000
005FF200000000BFB0
008FE000000000EF80
00BFB000000002FF50
00EF8000000005FF20
02FF5000000008FE00
05FF200000000BFA00
08FE000000000EF700
0BFB000000002FF400
0EF8000000005FF100
2FF5000000008FD000
5FF200000000BFA000
8FE000000000EF7000
BFB000000002FF4000
DF9000000005FF1000
EF800000000AFC0000
EFA00000001EF70000
CFC00000008FF10000
7FF5000004FF800000
1EFE62027FFC000000
04EFFFFFFFB1000000
0028CEFDA500000000
ENDCHAR
STARTCHAR uring
ENCODING 367
SWIDTH 600 0
DWIDTH 19 0
BBX 17 24 1 0
BITMAP
0000000019EEB30000
00000001DC22DE0000
00000007F3008F2000
00000009F100AF1000
00000006F715F70000
000000007DFD500000
000000000000000000
000000000000000000
002FF500000000FF70
005FF200000003FF40
008FE000000006FF10
00BFB000000009FD00
00EF800000000BFA00
02FF500000000EF700
05FF200000002FF500
08FE000000005FF200
0BFB000000008FE000
0EF800000000BFB000
1FF600000002EF8000
3FF50000002DFF5000
2FF7000005ECFF2000
0EFE4125BF84FE0000
08FFFFFFD406FB0000
007DFEB60007F80000
ENDCHAR
STARTCHAR Uhungarumlaut
ENCODING 368
SWIDTH 600 0
DWIDTH 19 0
BBX 18 28 2 0
BITMAP
0000000000A8000891
0000000009FC107FD2
000000007FC105FD20
00000006FB104FC100
00000008A0007B1000
000000000000000000
000000000000000000
005FF200000000BFB0
008FE000000000EF80
00BFB000000002FF50
00EF8000000005FF20
02FF5000000008FE00
05FF200000000BFA00
08FE000000000EF700
0BFB000000002FF400
0EF8000000005FF100
2FF5000000008FD000
5FF200000000BFA000
8FE000000000EF7000
BFB000000002FF4000
DF9000000005FF1000
EF800000000AFC0000
EFA00000001EF70000
CFC00000008FF10000
7FF5000004FF800000
1EFE62027FFC000000
04EFFFFFFFB1000000
0028CEFDA500000000
ENDCHAR
STARTCHAR uhungarumlaut
ENCODING 369
SWIDTH 600 0
DWIDTH 19 0
BBX 18 24 1 0
BITMAP
00000000004B2006A1
0000000001DF703EF4
000000000AF900CF70
000000006FB009F900
00000002ED105FB000
00000003C3005C1000
000000000000000000
000000000000000000
002FF500000000FF70
005FF200000003FF40
008FE000000006FF10
00BFB000000009FD00
00EF800000000BFA00
02FF500000000EF700
05FF200000002FF500
08FE000000005FF200
0BFB000000008FE000
0EF800000000BFB000
1FF600000002EF8000
3FF50000002DFF5000
2FF7000005ECFF2000
0EFE4125BF84FE0000
08FFFFFFD406FB0000
007DFEB60007F80000
ENDCHAR
STARTCHAR Uogonek
ENCODING 370
SWIDTH 600 0
DWIDTH 19 0
BBX 17 28 2 -7
BITMAP
005FF200000000BFB0
008FE000000000EF80
00BFC000000002FF50
00EF9000000005FF20
02FF6000000008FE00
05FF300000000BFB00
08FE000000000EF800
0BFC000000001FF400
0EF9000000004FF100
2FF6000000007FD000
5FF300000000AFA000
8FF000000000DF7000
BFC000000001FF4000
DF9000000005FF1000
EF8000000009FC0000
EF900000000EF80000
CFB00000006FF20000
8FF3000002EF900000
2EFD30004DFD100000
04EFFDCEFFC2000000
0029EFFFC600000000
0001BE820000000000
000BD2000000000000
008F30000000000000
00EE00000000000000
02FF50320000000000
00EFFFF80000000000
003CEE910000000000
ENDCHAR
STARTCHAR uogonek
ENCODING 371
SWIDTH 600 0
DWIDTH 19 0
BBX 17 23 1 -7
BITMAP
002FF500000000FF70
005FF200000003FF40
008FE000000006FF10
00BFB000000009FD00
00EF800000000BFA00
02FF500000000EF700
05FF200000002FF500
08FE000000005FF200
0BFB000000008FE000
0EF800000000BFB000
1FF600000002EF8000
3FF50000002DFF5000
2FF7000005ECFF2000
0EFE4125BF84FE0000
08FFFFFFD406FB0000
007DFEB60007F90000
00000000006E920000
000000000AC2000000
000000009D10000000
00000002F900000000
00000005FD21410000
00000002FFFFF50000
000000006DFD700000
ENDCHAR
STARTCHAR Wcircumflex
ENCODING 372
SWIDTH 600 0
DWIDTH 19 0
BBX 20 27 1 0
BITMAP
0000000003EFF7000000
000000004EFDFF300000
00000004EF708FC00000
0000004EE40009F80000
0000005B200000A70000
00000000000000000000
00FF5000000000000EF6
01FF4000000000004FF1
02FF3000000000009FC0
03FF200000000000DF70
04FF000000000003FF20
05FE000012100007FD00
06FD0000BFA0000CF800
07FC0003FFC0001FF300
08FB000AFED0006FD000
09FA002FACE000AF9000
09F9008F5BF100EF4000
0AF801EE0AF204FE0000
0BF606F909F308FA0000
0CF50DF208F40DF50000
0DF45FB007F52FF10000
0EF3BF4006F76FB00000
0FF3FD0005F8AF600000
1FF8F60004F9EF200000
2FDEE10003FCFC000000
3FFF900002FFF7000000
4FFF200001FFF3000000
ENDCHAR
STARTCHAR wcircumflex
ENCODING 373
SWIDTH 600 0
DWIDTH 19 0
BBX 19 24 1 0
BITMAP
000000001CFF80000000
00000000BFFFF2000000
0000000AFE3BFB000000
0000009FD201EF400000
000007FC10004FD00000
000004A1000008700000
00000000000000000000
00000000000000000000
8FE0000022200000AFB0
7FE00001EFC00001FF40
7FE00006FFD00007FD00
7FE0000CEED0000DF700
6FE0004F9DE0004FF100
6FE000AF4EE0009FA000
6FF001FE0EF001EF4000
5FF007F80DF006FD0000
5FF00DF20DF10CF70000
5FF05FB00DF13FF10000
4FF0BF500CF28FA00000
4FF2FD000CF2EF400000
3FF7F8000CF6FC000000
3FECF2000BFCF6000000
3FFFA0000BFFE1000000
2FFF40000BFF90000000
ENDCHAR
STARTCHAR Ycircumflex
ENCODING 374
SWIDTH 600 0
DWIDTH 19 0
BBX 17 27 3 0
BITMAP
00000007FFF3000000
0000007FFDFD000000
000008FE41CF800000
00008FC2001DF40000
000099000002B40000
000000000000000000
5FF30000000001DFA0
1FF7000000000AFE10
0BFC000000005FF400
06FF20000001EF9000
01FF6000000BFD1000
00BFB000006FF30000
006FF10002EF700000
002FF5000CFB000000
000CF9007FE2000000
0007FD02EF50000000
0002FF2BFA00000000
0000CFBFD100000000
00008FFF4000000000
00003FF80000000000
00004FF20000000000
00008FE00000000000
0000BFB00000000000
0000EF800000000000
0002FF500000000000
0005FF200000000000
0008FE000000000000
ENDCHAR
STARTCHAR ycircumflex
ENCODING 375
SWIDTH 600 0
DWIDTH 19 0
BBX 21 31 -2 -7
BITMAP
000000000001CFF8000000
00000000000BFFFF200000
0000000000AFE3BFB00000
0000000009FD201EF40000
000000007FC10004FD0000
000000004A100000870000
0000000000000000000000
0000000000000000000000
00001FF40000000003FF50
00000DF7000000000CFB00
000009FB000000005FF300
000006FE00000001DF9000
000002FF30000008FE1000
000000DF6000002FF60000
000000AFA00000AFC00000
0000006FD00004FF300000
0000002FF1000CF9000000
0000000EF5006FE1000000
0000000AF701EF60000000
00000006FA08FC00000000
00000003FD1EF300000000
00000000EF9F9000000000
00000000AFFE1000000000
000000007FF60000000000
00000000AFC00000000000
00000004FF400000000000
0000001DF9000000000000
000000AFE1000000000000
04113BFF40000000000000
1EFFFFE400000000000000
2BEFD82000000000000000
ENDCHAR
STARTCHAR Ydieresis
ENCODING 376
SWIDTH 600 0
DWIDTH 19 0
BBX 17 26 3 0
BITMAP
00000AE4000BE40000
00004FF8004FF70000
00001DD2002DC20000
000000000000000000
000000000000000000
5FF30000000001DFA0
1FF7000000000AFE10
0BFC000000005FF400
06FF20000001EF9000
01FF6000000BFD1000
00BFB000006FF30000
006FF10002EF700000
002FF5000CFB000000
000CF9007FE2000000
0007FD02EF50000000
0002FF2BFA00000000
0000CFBFD100000000
00008FFF4000000000
00003FF80000000000
00004FF20000000000
00008FE00000000000
0000BFB00000000000
0000EF800000000000
0002FF500000000000
0005FF200000000000
0008FE000000000000
ENDCHAR
STARTCHAR Zacute
ENCODING 377
SWIDTH 600 0
DWIDTH 19 0
BBX 19 28 0 0
BITMAP
00000000000000690000
0000000000002BFF4000
000000000005EFE70000
00000000009FF9100000
00000000005B30000000
00000000000000000000
00000000000000000000
00009FFFFFFFFFFFFFA0
0000DFFFFFFFFFFFFF50
000000000000006FF800
00000000000003FFB000
0000000000001EFD1000
000000000000CFE30000
000000000009FF500000
00000000006FF8000000
0000000004FFB0000000
000000002EFD10000000
00000000CFE200000000
0000000AFF5000000000
0000007FF70000000000
000004FFA00000000000
00002EFC100000000000
0001CFE2000000000000
000AFF40000000000000
007FF700000000000000
04FFA000000000000000
1EFFFFFFFFFFFFFC0000
5FFFFFFFFFFFFFF90000
ENDCHAR
STARTCHAR zacute
ENCODING 378
SWIDTH 600 0
DWIDTH 19 0
BBX 17 25 1 0
BITMAP
0000000000002B2000
000000000003EFC000
00000000005EFE4000
0000000007FFB10000
000000007FF7000000
000000002C30000000
000000000000000000
000000000000000000
000000000000000000
001FFFFFFFFFFFFF10
004FFFFFFFFFFFFC00
000000000002DFD100
00000000002DFD2000
0000000001DFD20000
000000001CFD200000
00000001CFE2000000
0000001CFE20000000
000001CFE300000000
00001BFE3000000000
0000BFE30000000000
000BFE400000000000
00AFE4000000000000
0AFF40000000000000
8FFFFFFFFFFFFF2000
CFFFFFFFFFFFFE0000
ENDCHAR
STARTCHAR Zdotaccent
ENCODING 379
SWIDTH 600 0
DWIDTH 19 0
BBX 19 26 0 0
BITMAP
00000000002CE7000000
00000000008FFC000000
00000000004ED4000000
00000000000000000000
00000000000000000000
00009FFFFFFFFFFFFFA0
0000DFFFFFFFFFFFFF50
000000000000006FF800
00000000000003FFB000
0000000000001EFD1000
000000000000CFE30000
000000000009FF500000
00000000006FF8000000
0000000004FFB0000000
000000002EFD10000000
00000000CFE200000000
0000000AFF5000000000
0000007FF70000000000
000004FFA00000000000
00002EFC100000000000
0001CFE2000000000000
000AFF40000000000000
007FF700000000000000
04FFA000000000000000
1EFFFFFFFFFFFFFC0000
5FFFFFFFFFFFFFF90000
ENDCHAR
STARTCHAR zdotaccent
ENCODING 380
SWIDTH 600 0
DWIDTH 19 0
BBX 17 23 1 0
BITMAP
0000000007ED300000
000000003FFF900000
000000005FFF700000
000000001BEA100000
000000000000000000
000000000000000000
000000000000000000
001FFFFFFFFFFFFF10
004FFFFFFFFFFFFC00
000000000002DFD100
00000000002DFD2000
0000000001DFD20000
000000001CFD200000
00000001CFE2000000
0000001CFE20000000
000001CFE300000000
00001BFE3000000000
0000BFE30000000000
000BFE400000000000
00AFE4000000000000
0AFF40000000000000
8FFFFFFFFFFFFF2000
CFFFFFFFFFFFFE0000
ENDCHAR
STARTCHAR Zcaron
ENCODING 381
SWIDTH 600 0
DWIDTH 19 0
BBX 19 27 0 0
BITMAP
00000001A6000005C200
00000000DF50008FC100
000000003FF41BFC1000
0000000008FEEFC10000
0000000000CFFC100000
00000000000000000000
00009FFFFFFFFFFFFFA0
0000DFFFFFFFFFFFFF50
000000000000006FF800
00000000000003FFB000
0000000000001EFD1000
000000000000CFE30000
000000000009FF500000
00000000006FF8000000
0000000004FFB0000000
000000002EFD10000000
00000000CFE200000000
0000000AFF5000000000
0000007FF70000000000
000004FFA00000000000
00002EFC100000000000
0001CFE2000000000000
000AFF40000000000000
007FF700000000000000
04FFA000000000000000
1EFFFFFFFFFFFFFC0000
5FFFFFFFFFFFFFF90000
ENDCHAR
STARTCHAR zcaron
ENCODING 382
SWIDTH 600 0
DWIDTH 19 0
BBX 17 24 1 0
BITMAP
0000004A0000008700
000000AF70000AFB00
0000002EF301BFC100
00000007FD2CFD1000
00000001DFFFD20000
000000005FFE200000
000000000000000000
000000000000000000
001FFFFFFFFFFFFF10
004FFFFFFFFFFFFC00
000000000002DFD100
00000000002DFD2000
0000000001DFD20000
000000001CFD200000
00000001CFE2000000
0000001CFE20000000
000001CFE300000000
00001BFE3000000000
0000BFE30000000000
000BFE400000000000
00AFE4000000000000
0AFF40000000000000
8FFFFFFFFFFFFF2000
CFFFFFFFFFFFFE0000
ENDCHAR
STARTCHAR longs
ENCODING 383
SWIDTH 600 0
DWIDTH 19 0
BBX 17 23 3 0
BITMAP
0000000006BEFEB600
00000002DFFFFFFFC0
0000001DFF93115D70
0000007FF600000000
000000DFC000000000
000002FF7000000000
000005FF3000000000
1DDEEFFF0000000000
3FFFFFFC0000000000
00000EF90000000000
00002FF60000000000
00005FF30000000000
00008FF00000000000
0000BFC00000000000
0000EF900000000000
0002FF600000000000
0005FF300000000000
0008FF000000000000
000BFC000000000000
000EF9000000000000
002FF6000000000000
005FF3000000000000
007FE0000000000000
ENDCHAR
STARTCHAR uni0180
ENCODING 384
SWIDTH 600 0
DWIDTH 19 0
BBX 17 23 1 0
BITMAP
00006FF10000000000
00009FD00000000000
0000BFA00000000000
04DEFFFFFFFFF60000
07FFFFFFFFFFF30000
0005FF200000000000
0008FE000000000000
000BFA000000000000
000EF7028DEEC60000
002FF48FFFFFFFA000
005FFCF94114DFF700
008FFC2000001EFD00
00BFC100000008FF10
00EF7000000006FF20
02FF4000000006FF20
05FF1000000007FF00
08FD000000000CFC00
0BFA000000003FF700
0EF700000000CFE100
2FFD2000001BFF5000
5FEFE62027EFF70000
8F96FFFFFFFE500000
BF5029DFEB71000000
ENDCHAR
STARTCHAR uni018A
ENCODING 394
SWIDTH 600 0
DWIDTH 19 0
BBX 18 21 1 0
BITMAP
0000038CEFEC940000
0002BFFFFFFFFFB100
003EFC5BFC14AFFD10
02EF800DF90005FFA0
0AF9001FF60000AFF2
3FE1004FF200003FF6
7F90007FE000000FF9
AF6000AFB000000DFA
BF5000DF8000000DFA
AF8001FF5000000EF9
7FE304FF2000001FF8
1DFB07FE0000004FF5
02A10AFB0000007FF1
00000EF8000000DFC0
00002FF5000005FF50
00005FF200001DFC00
00008FE00000BFF300
0000BFB0002BFF5000
0000EF8149EFE40000
0002FFFFFFF9100000
0005FFEDB620000000
ENDCHAR
STARTCHAR uni018F
ENCODING 399
SWIDTH 600 0
DWIDTH 19 0
BBX 18 21 1 0
BITMAP
00000016BDFEC71000
000018EFFFFFFFD200
0000AFFA41029FFC00
00003C20000008FF50
00000000000000EFA0
00000000000000AFE0
000000000000007FF0
000000000000006FF1
000000000000006FF0
000000000000007FE0
0DFFFFFFFFFFFFFFD0
0FFFFFFFFFFFFFFF90
2FF40000000001FF60
3FF30000000005FF10
3FF3000000000CFA00
2FF4000000006FF300
0EF800000003EF8000
0AFE1000004EFB0000
03FFC4114AFFB10000
006FFFFFFFF7000000
0003AEFDC710000000
ENDCHAR
STARTCHAR uni0192
ENCODING 402
SWIDTH 600 0
DWIDTH 19 0
BBX 21 24 -1 -3
BITMAP
000000000000006CEFC500
0000000000000BFFFFFF30
0000000000009FF7204700
000000000002FF70000000
000000000008FD00000000
00000000000EF700000000
00000000004FF200000000
00000000008FC000000000
0000005DFFFFFFFFF20000
0000009FFFFFFFFFE00000
0000000007FD0000000000
000000000CF80000000000
000000002FF30000000000
000000006FE00000000000
00000000BF900000000000
00000001FF400000000000
00000006FE000000000000
0000000BF9000000000000
0000001FF4000000000000
0000007FE0000000000000
000001EF80000000000000
26214DFD10000000000000
9FFFFFE300000000000000
4BEFD92000000000000000
ENDCHAR
STARTCHAR uni0193
ENCODING 403
SWIDTH 600 0
DWIDTH 19 0
BBX 19 26 2 0
BITMAP
000000000000001AEEA0
00000000000000BFFFA0
00000000000004FE3120
00000000000007F80000
00000000000009F70000
00000006ADFECCF80000
000004DFFFFFFFFB0000
00009FFD73116EFF1000
0009FF91000002E80000
006FF800000000100000
02EFB000000000000000
09FF2000000000000000
1EF90000000000000000
6FF30000000000000000
9FE00000000000000000
DFB000005FFFFFF40000
EF9000008FFFFFF10000
FF80000000006FD00000
FF80000000009FA00000
EFA000000000CF700000
BFE000000001FF400000
6FF600000003FF100000
1EFE20000007FD000000
04FFE72113AFF9000000
005EFFFFFFFF91000000
00017BEFEC8200000000
ENDCHAR
STARTCHAR Ohorn
ENCODING 416
SWIDTH 600 0
DWIDTH 19 0
BBX 20 26 1 0
BITMAP
000000000000000007C1
00000000000000000EF4
00000000000000000CF4
00000000000000000EF2
00000000000000006FB0
00000017CEFDA449FC20
000005EFFFFFFFFB6000
00009FFC4113AFF90000
0007FF80000009FF3000
004FF800000001EF9000
00CFC000000000AFD000
05FF50000000007FF100
0AFD00000000006FF200
1FF800000000007FF100
4FF400000000007FF000
7FF10000000000AFE000
9FE00000000000CFB000
AFD00000000002FF7000
AFD00000000006FF2000
9FE0000000000DFC0000
6FF2000000006FF40000
2FF700000002EFA00000
0BFE2000002DFD100000
02EFD51138EFD2000000
003EFFFFFFFB10000000
00018CEFDA4000000000
ENDCHAR
STARTCHAR ohorn
ENCODING 417
SWIDTH 600 0
DWIDTH 19 0
BBX 18 21 1 0
BITMAP
00000000000000018B
0000000000000002FF
0000000000000001FF
0000000000000004FD
000000000000001CF5
0000017BEFDA57DF70
00006EFFFFFFFF9200
0009FFC51039FFA000
008FF80000008FF400
03FF800000000EF900
0BFD000000000AFC00
1FF70000000008FD00
5FF20000000009FD00
7FF0000000000BFB00
8FF0000000001FF700
6FF1000000008FF200
3FF600000003FF9000
0DFD1000003EFD1000
04FFD51139FFD20000
006FFFFFFFFA100000
00029DEED930000000
ENDCHAR
STARTCHAR Uhorn
ENCODING 431
SWIDTH 600 0
DWIDTH 19 0
BBX 21 26 2 0
BITMAP
0000000000000000004A80
0000000000000000006FB0
0000000000000000005FC0
000000000000000000AF80
000000000000000039FD20
005FF200000000BFFFA100
008FE000000000EF910000
00BFB000000002FF500000
00EF8000000005FF200000
02FF5000000008FE000000
05FF200000000BFB000000
08FE000000000EF8000000
0BFB000000002FF5000000
0EF8000000005FF2000000
2FF5000000008FE0000000
5FF200000000BFA0000000
8FE000000000EF70000000
BFB000000002FF40000000
DF9000000005FF10000000
EF800000000AFC00000000
EFA00000001EF700000000
CFC00000008FF100000000
7FF5000004FF8000000000
1EFE62027FFC0000000000
04EFFFFFFFB10000000000
0028CEFDA5000000000000
ENDCHAR
STARTCHAR uhorn
ENCODING 432
SWIDTH 600 0
DWIDTH 19 0
BBX 20 22 1 0
BITMAP
0000000000000000018B
000000000000000003FF
000000000000000002FF
000000000000000004FC
00000000000000000BF6
0000000000000002AFA0
002FF500000000FFE700
005FF200000003FF4000
008FE000000006FF1000
00BFB000000009FD0000
00EF800000000BFA0000
02FF500000000EF70000
05FF200000002FF40000
08FE000000005FF10000
0BFB000000008FE00000
0EF800000000BFB00000
1FF600000002EF800000
3FF50000002DFF500000
2FF7000005ECFF200000
0EFE4125BF84FE000000
08FFFFFFD406FB000000
007DFEB60007F8000000
ENDCHAR
STARTCHAR uni01C2
ENCODING 450
SWIDTH 600 0
DWIDTH 19 0
BBX 15 30 2 -7
BITMAP
000000000EF70000
000000002FF40000
000000005FF10000
000000008FD00000
00000000BFA00000
00000000EF700000
00000002FF400000
00000005FF100000
00000008FD000000
0000000BFA000000
0000000EF7000000
0ADEEEFFFFFFFF90
0EFFFFFFFFFFFF60
0000008FD0000000
000000BFA0000000
000000EF80000000
000001FF50000000
BDDEEFFFFFFFF800
FFFFFFFFFFFFF500
00000AFB00000000
00000EF800000000
00002FF400000000
00005FF100000000
00009FD000000000
0000CF9000000000
0001FF6000000000
0004FF3000000000
0007FE0000000000
000AFB0000000000
000EF80000000000
ENDCHAR
STARTCHAR uni01CD
ENCODING 461
SWIDTH 600 0
DWIDTH 19 0
BBX 19 27 -1 0
BITMAP
0000000006B000002C60
0000000007FB0004EF40
0000000000CFA07FF400
00000000002EFDFE4000
000000000007FFE40000
00000000000000000000
000000000009FF800000
00000000003FFFA00000
0000000000BF9FC00000
0000000004FD3FE00000
000000000CF61FF10000
000000005FE00FF30000
00000000DF700DF50000
00000006FE100CF60000
0000001EF8000BF80000
0000007FE10009FA0000
000001EF800008FC0000
000009FF100007FE0000
00002FF9000005FF1000
0000AFFFFFFFFFFF2000
0003FFFFFFFFFFFF4000
000BFE20000001FF6000
004FF800000000EF8000
00CFE100000000DFA000
06FF6000000000BFC000
0DFC00000000009FE000
7FF400000000008FF100
ENDCHAR
STARTCHAR uni01CE
ENCODING 462
SWIDTH 600 0
DWIDTH 19 0
BBX 17 24 1 0
BITMAP
000000095000002B20
0000001EE20002DF50
00000007FC004EF600
00000000DF85FF8000
000000005FFFF90000
000000000BFFA00000
000000000000000000
000000000000000000
0000016CEED9206F90
00004DFFFFFFE4AF60
0005FFE72027EEEF30
003FFC1000003EFF10
00CFD100000008FC00
05FF500000000BFA00
0BFD000000000EF700
0FF8000000002FF400
3FF5000000005FF100
4FF3000000008FD000
5FF300000000BFA000
4FF600000003EF7000
1FFC0000005EFF4000
09FFB3015BFAFF1000
01CFFFFFFE54FD0000
0017CEEC7106FA0000
ENDCHAR
STARTCHAR uni01CF
ENCODING 463
SWIDTH 600 0
DWIDTH 19 0
BBX 18 27 1 0
BITMAP
00000006B000002C60
00000007FB0004EF40
00000000CFA07FF400
000000002EFDFE4000
0000000007FFE40000
000000000000000000
0000CFFFFFFFFFFFF3
0001FFFFFFFFFFFFF0
000000000FF8000000
000000003FF5000000
000000006FF2000000
000000009FE0000000
00000000CFB0000000
00000000EF80000000
00000003FF50000000
00000006FF20000000
00000009FE00000000
0000000CFB00000000
0000000EF800000000
0000002FF500000000
0000005FF200000000
0000008FE000000000
000000BFB000000000
000000EF8000000000
000002FF5000000000
8FFFFFFFFFFFF60000
CFFFFFFFFFFFF30000
ENDCHAR
STARTCHAR uni01D0
ENCODING 464
SWIDTH 600 0
DWIDTH 19 0
BBX 14 24 3 0
BITMAP
0000A4000002B2
0002FE10003EF4
00008FB004EF60
00001DF86FF700
000006FFFF8000
000000CFF90000
00000000000000
00000000000000
5FFFFFFFB00000
9FFFFFFF800000
000001FF500000
000005FF200000
000008FD000000
00000BFA000000
00000EF7000000
00003FF3000000
00006FF0000000
0000AFC0000000
0000DF80000000
0001FF60000000
0001FF80000000
0000DFE5125A00
00005FFFFFFF30
000004BEFDA500
ENDCHAR
STARTCHAR uni01D1
ENCODING 465
SWIDTH 600 0
DWIDTH 19 0
BBX 18 27 1 0
BITMAP
00000006B000002C60
00000007FB0004EF40
00000000CFA07FF400
000000002EFDFE4000
0000000007FFE40000
000000000000000000
00000017CEFDA40000
000005EFFFFFFF9000
00009FFC4113AFF800
0007FF80000009FF20
004FF800000001EF90
00CFC000000000AFD0
05FF50000000007FF0
0AFD00000000006FF2
1FF800000000007FF2
4FF400000000007FF0
7FF10000000000AFE0
9FE00000000000CFB0
AFD00000000002FF80
AFD00000000006FF20
9FE0000000000DFC00
6FF2000000006FF400
2FF700000002EFB000
0BFE2000002DFD1000
02EFD51138EFD20000
003EFFFFFFFB100000
00018CEFDA40000000
ENDCHAR
STARTCHAR uni01D2
ENCODING 466
SWIDTH 600 0
DWIDTH 19 0
BBX 16 24 1 0
BITMAP
0000003B00000068
0000008F900008FC
0000001DF500AFD1
00000006FE3BFE20
00000000CFFFE300
000000003FFE3000
0000000000000000
0000000000000000
0000017BEFEB5000
00006EFFFFFFFB10
0009FFC51039FFA0
008FF80000008FF4
03FF800000000EF9
0BFD000000000AFC
1FF70000000008FD
5FF20000000009FD
7FF0000000000BFB
8FF0000000001FF7
6FF1000000008FF2
3FF600000003FF90
0DFD1000003EFD10
04FFD51139FFD200
006FFFFFFFFA1000
00029DEED9300000
ENDCHAR
STARTCHAR uni01D3
ENCODING 467
SWIDTH 600 0
DWIDTH 19 0
BBX 17 27 2 0
BITMAP
0000006B000002C600
0000007FB0004EF400
0000000CFA07FF4000
00000002EFDFE40000
000000007FFE400000
000000000000000000
005FF200000000BFB0
008FE000000000EF80
00BFB000000002FF50
00EF8000000005FF20
02FF5000000008FE00
05FF200000000BFA00
08FE000000000EF700
0BFB000000002FF400
0EF8000000005FF100
2FF5000000008FD000
5FF200000000BFA000
8FE000000000EF7000
BFB000000002FF4000
DF9000000005FF1000
EF800000000AFC0000
EFA00000001EF70000
CFC00000008FF10000
7FF5000004FF800000
1EFE62027FFC000000
04EFFFFFFFB1000000
0028CEFDA500000000
ENDCHAR
STARTCHAR uni01D4
ENCODING 468
SWIDTH 600 0
DWIDTH 19 0
BBX 17 24 1 0
BITMAP
0000003B0000007800
0000008F800008FC00
0000001EF500AFD100
00000006FE3BFD2000
00000000CFFFE20000
000000004FFE300000
000000000000000000
000000000000000000
002FF500000000FF70
005FF200000003FF40
008FE000000006FF10
00BFB000000009FD00
00EF800000000BFA00
02FF500000000EF700
05FF200000002FF500
08FE000000005FF200
0BFB000000008FE000
0EF800000000BFB000
1FF600000002EF8000
3FF50000002DFF5000
2FF7000005ECFF2000
0EFE4125BF84FE0000
08FFFFFFD406FB0000
007DFEB60007F80000
ENDCHAR
STARTCHAR uni01D5
ENCODING 469
SWIDTH 600 0
DWIDTH 19 0
BBX 17 29 2 0
BITMAP
0000001FFFFFFFF300
000000000000000000
000000000000000000
0000006E70008E5000
000000DFB000FF9000
000000AE4000BD3000
000000000000000000
000000000000000000
005FF200000000BFB0
008FE000000000EF80
00BFB000000002FF50
00EF8000000005FF20
02FF5000000008FE00
05FF200000000BFA00
08FE000000000EF700
0BFB000000002FF400
0EF8000000005FF100
2FF5000000008FD000
5FF200000000BFA000
8FE000000000EF7000
BFB000000002FF4000
DF9000000005FF1000
EF800000000AFC0000
EFA00000001EF70000
CFC00000008FF10000
7FF5000004FF800000
1EFE62027FFC000000
04EFFFFFFFB1000000
0028CEFDA500000000
ENDCHAR
STARTCHAR uni01D6
ENCODING 470
SWIDTH 600 0
DWIDTH 19 0
BBX 17 25 1 0
BITMAP
00000007FFFFFFFA00
000000000000000000
000000000000000000
0000003DB0004EA000
0000009FF000AFE000
0000005E80007E7000
000000000000000000
000000000000000000
000000000000000000
002FF500000000FF70
005FF200000003FF40
008FE000000006FF10
00BFB000000009FD00
00EF800000000BFA00
02FF500000000EF700
05FF200000002FF500
08FE000000005FF200
0BFB000000008FE000
0EF800000000BFB000
1FF600000002EF8000
3FF50000002DFF5000
2FF7000005ECFF2000
0EFE4125BF84FE0000
08FFFFFFD406FB0000
007DFEB60007F80000
ENDCHAR
STARTCHAR uni01D7
ENCODING 471
SWIDTH 600 0
DWIDTH 19 0
BBX 17 31 2 0
BITMAP
0000000000004C2000
000000000006FE5000
00000000009FB20000
0000000001C7000000
000000000000000000
0000006E70008E5000
000000DFB000FF9000
000000AE4000BD3000
000000000000000000
000000000000000000
005FF200000000BFB0
008FE000000000EF80
00BFB000000002FF50
00EF8000000005FF20
02FF5000000008FE00
05FF200000000BFA00
08FE000000000EF700
0BFB000000002FF400
0EF8000000005FF100
2FF5000000008FD000
5FF200000000BFA000
8FE000000000EF7000
BFB000000002FF4000
DF9000000005FF1000
EF800000000AFC0000
EFA00000001EF70000
CFC00000008FF10000
7FF5000004FF800000
1EFE62027FFC000000
04EFFFFFFFB1000000
0028CEFDA500000000
ENDCHAR
STARTCHAR uni01D8
ENCODING 472
SWIDTH 600 0
DWIDTH 19 0
BBX 17 27 1 0
BITMAP
0000000000002C3000
000000000002DF6000
00000000002DE40000
00000000005B100000
000000000000000000
0000003DB0004EA000
0000009FF000AFE000
0000005E80007E7000
000000000000000000
000000000000000000
000000000000000000
002FF500000000FF70
005FF200000003FF40
008FE000000006FF10
00BFB000000009FD00
00EF800000000BFA00
02FF500000000EF700
05FF200000002FF500
08FE000000005FF200
0BFB000000008FE000
0EF800000000BFB000
1FF600000002EF8000
3FF50000002DFF5000
2FF7000005ECFF2000
0EFE4125BF84FE0000
08FFFFFFD406FB0000
007DFEB60007F80000
ENDCHAR
STARTCHAR uni01D9
ENCODING 473
SWIDTH 600 0
DWIDTH 19 0
BBX 17 31 2 0
BITMAP
00000004C20004C200
00000004FD219FB100
000000007FDDFA0000
000000000AFF800000
000000000000000000
0000006E70008E5000
000000DFB000FF9000
000000AE4000BD3000
000000000000000000
000000000000000000
005FF200000000BFB0
008FE000000000EF80
00BFB000000002FF50
00EF8000000005FF20
02FF5000000008FE00
05FF200000000BFA00
08FE000000000EF700
0BFB000000002FF400
0EF8000000005FF100
2FF5000000008FD000
5FF200000000BFA000
8FE000000000EF7000
BFB000000002FF4000
DF9000000005FF1000
EF800000000AFC0000
EFA00000001EF70000
CFC00000008FF10000
7FF5000004FF800000
1EFE62027FFC000000
04EFFFFFFFB1000000
0028CEFDA500000000
ENDCHAR
STARTCHAR uni01DA
ENCODING 474
SWIDTH 600 0
DWIDTH 19 0
BBX 17 27 1 0
BITMAP
00000002C300018900
00000002EE404DF600
000000003EFBFE4000
0000000005FFC20000
000000000000000000
0000003DB0004EA000
0000009FF000AFE000
0000005E80007E7000
000000000000000000
000000000000000000
000000000000000000
002FF500000000FF70
005FF200000003FF40
008FE000000006FF10
00BFB000000009FD00
00EF800000000BFA00
02FF500000000EF700
05FF200000002FF500
08FE000000005FF200
0BFB000000008FE000
0EF800000000BFB000
1FF600000002EF8000
3FF50000002DFF5000
2FF7000005ECFF2000
0EFE4125BF84FE0000
08FFFFFFD406FB0000
007DFEB60007F80000
ENDCHAR
STARTCHAR uni01DB
ENCODING 475
SWIDTH 600 0
DWIDTH 19 0
BBX 17 31 2 0
BITMAP
000000005C10000000
00000000CF70000000
000000002EE1000000
0000000005F9000000
000000000099000000
0000006E70008E5000
000000DFB000FF9000
000000AE4000BD3000
000000000000000000
000000000000000000
005FF200000000BFB0
008FE000000000EF80
00BFB000000002FF50
00EF8000000005FF20
02FF5000000008FE00
05FF200000000BFA00
08FE000000000EF700
0BFB000000002FF400
0EF8000000005FF100
2FF5000000008FD000
5FF200000000BFA000
8FE000000000EF7000
BFB000000002FF4000
DF9000000005FF1000
EF800000000AFC0000
EFA00000001EF70000
CFC00000008FF10000
7FF5000004FF800000
1EFE62027FFC000000
04EFFFFFFFB1000000
0028CEFDA500000000
ENDCHAR
STARTCHAR uni01DC
ENCODING 476
SWIDTH 600 0
DWIDTH 19 0
BBX 17 27 1 0
BITMAP
000000000780000000
000000001EE1000000
0000000006F8000000
0000000000CE100000
00000000003C200000
0000003DB0004EA000
0000009FF000AFE000
0000005E80007E7000
000000000000000000
000000000000000000
000000000000000000
002FF500000000FF70
005FF200000003FF40
008FE000000006FF10
00BFB000000009FD00
00EF800000000BFA00
02FF500000000EF700
05FF200000002FF500
08FE000000005FF200
0BFB000000008FE000
0EF800000000BFB000
1FF600000002EF8000
3FF50000002DFF5000
2FF7000005ECFF2000
0EFE4125BF84FE0000
08FFFFFFD406FB0000
007DFEB60007F80000
ENDCHAR
STARTCHAR uni01E2
ENCODING 482
SWIDTH 600 0
DWIDTH 19 0
BBX 23 25 -2 0
BITMAP
00000000000000EFFFFFFF40
00000000000002FFFFFFFF10
000000000000000000000000
000000000000000000000000
0000000000008FFFFFFFFFA0
000000000002FFFFFFFFFF70
00000000000BF9FF20000000
00000000005FE5FE00000000
0000000001EF67FB00000000
0000000008FC0AF800000000
000000003FF30DF500000000
00000000CFA01FF200000000
00000006FE204FE000000000
0000001EF7007FFFFFFA0000
0000009FD1009FFFFFF70000
000003FF5000CF5000000000
00000CFB0000FF2000000000
00006FFFFFFFFE0000000000
0001EFFFFFFFFB0000000000
000AFE10000AF80000000000
004FF600000DF60000000000
00DFB000001FF30000000000
07FF3000004FE00000000000
2EF80000007FFFFFFFF30000
AFD1000000AFFFFFFFF00000
ENDCHAR
STARTCHAR uni01E3
ENCODING 483
SWIDTH 600 0
DWIDTH 19 0
BBX 21 21 -1 0
BITMAP
000000005FFFFFFFC00000
000000007FFFFFFFA00000
0000000000000000000000
0000000000000000000000
0000000000000000000000
000039DEEA10029DFD6000
001AFFFFFFC05EFFFFF500
001ED6204DF8FE6119FB00
0003000007FFE20001FF00
0000000004FF600000DF20
0000000005FD000000EF20
00000158BEFB666666FF10
0003AFFFFFFFFFFFFFFC00
009FFEA62EF99999999500
0AFE60001FE00000000000
4FF300002FE00000000000
9FB000002FF10000000000
AFA00002CFF70000010000
8FE4138EEAFE5113AC0000
3FFFFFFC21CFFFFFFD1000
04CEEB500018DFEB600000
ENDCHAR
STARTCHAR Gcaron
ENCODING 486
SWIDTH 600 0
DWIDTH 19 0
BBX 17 27 2 0
BITMAP
000000098000004C30
0000000BF70007FD20
00000002EF61AFD200
000000006FFDFD2000
000000000AFFD20000
000000000000000000
00000006ADFEC71000
000004DFFFFFFFD200
00009FFD73116EFD10
0009FF91000002E800
006FF8000000001000
02EFB0000000000000
09FF20000000000000
1EF900000000000000
6FF300000000000000
9FE000000000000000
DFB000005FFFFFF400
EF9000008FFFFFF100
FF80000000006FD000
FF80000000009FA000
EFA000000000CF7000
BFE000000001FF4000
6FF600000003FF1000
1EFE20000007FD0000
04FFE72113AFF90000
005EFFFFFFFF910000
00017BEFEC82000000
ENDCHAR
STARTCHAR gcaron
ENCODING 487
SWIDTH 600 0
DWIDTH 19 0
BBX 18 31 0 -7
BITMAP
0000000095000002B2
00000001EE20002DF5
000000007FC004EF60
000000000DF85FF800
0000000005FFFF9000
0000000000BFFA0000
000000000000000000
000000000000000000
00000016BEED9206F9
000004DFFFFFFE4AF6
00005FFE72028FEEF3
0002FFC2000004FFF0
000CFE100000009FC0
004FF500000000BF90
00AFD000000000EF60
00EF9000000002FF40
02FF6000000005FF10
03FF5000000008FD00
03FF500000000BFA00
02FF800000003EF700
00DFE1000005EFF400
006FFD5236BFBFF100
0009FFFFFFE56FD000
00004ADDB6109FA000
000000000000DF7000
000000000002FF3000
000000000009FD0000
05200000005FF60000
2EE941025BFFA00000
2BFFFFFFFFF8000000
0039CEFEC820000000
ENDCHAR
STARTCHAR uni01EA
ENCODING 490
SWIDTH 600 0
DWIDTH 19 0
BBX 18 28 1 -7
BITMAP
00000017CEFDA40000
000005EFFFFFFF9000
00008FFC4113AFF800
0007FF80000009FF20
003FF800000001EF90
00CFC000000000AFD0
05FF50000000007FF0
0AFD00000000006FF2
1FF800000000007FF2
4FF400000000007FF1
7FF10000000000AFE0
9FE00000000000CFB0
AFD00000000002FF80
AFD00000000006FF30
9FE0000000000DFD00
6FF2000000006FF500
2FF700000002EFB000
0BFE2000002DFE2000
03FFD51138EFE30000
004EFFFFFFFB200000
00029DFFFA50000000
00001AE61000000000
0000BC200000000000
0007F3000000000000
000EE0000000000000
002FF5032000000000
000EFFFF8000000000
0003CEE91000000000
ENDCHAR
STARTCHAR uni01EB
ENCODING 491
SWIDTH 600 0
DWIDTH 19 0
BBX 16 23 1 -7
BITMAP
0000017BEFEA5000
00006EFFFFFFFB10
0009FFC51039FFA0
007FF80000008FF4
03FF800000000EF9
0BFD000000000AFC
1FF70000000008FD
5FF20000000009FD
7FF0000000000BFB
8FF0000000001FF8
7FF1000000008FF3
4FF600000003FFA0
0DFD1000003EFE20
05FFD51139FFE300
007FFFFFFFFC3000
0003AEFFFB500000
00001BE610000000
0000CC1000000000
0007F20000000000
000ED00000000000
001FF50320000000
000DFFFF90000000
0003BEE910000000
ENDCHAR
STARTCHAR uni01F4
ENCODING 500
SWIDTH 600 0
DWIDTH 19 0
BBX 17 28 2 0
BITMAP
00000000000005B000
000000000001AFF600
00000000004DFF8100
0000000007FFA20000
0000000003C4000000
000000000000000000
000000000000000000
00000006ADFEC71000
000004DFFFFFFFD200
00009FFD73116EFD10
0009FF91000002E800
006FF8000000001000
02EFB0000000000000
09FF20000000000000
1EF900000000000000
6FF300000000000000
9FE000000000000000
DFB000005FFFFFF400
EF9000008FFFFFF100
FF80000000006FD000
FF80000000009FA000
EFA000000000CF7000
BFE000000001FF4000
6FF600000003FF1000
1EFE20000007FD0000
04FFE72113AFF90000
005EFFFFFFFF910000
00017BEFEC82000000
ENDCHAR
STARTCHAR uni01F5
ENCODING 501
SWIDTH 600 0
DWIDTH 19 0
BBX 18 32 0 -7
BITMAP
000000000000006900
00000000000008FF70
000000000000AFFB10
00000000001BFF7000
0000000000CFD30000
000000000069100000
000000000000000000
000000000000000000
000000000000000000
00000016BEED9206F9
000004DFFFFFFE4AF6
00005FFE72028FEEF3
0002FFC2000004FFF0
000CFE100000009FC0
004FF500000000BF90
00AFD000000000EF60
00EF9000000002FF40
02FF6000000005FF10
03FF5000000008FD00
03FF500000000BFA00
02FF800000003EF700
00DFE1000005EFF400
006FFD5236BFBFF100
0009FFFFFFE56FD000
00004ADDB6109FA000
000000000000DF7000
000000000002FF3000
000000000009FD0000
05200000005FF60000
2EE941025BFFA00000
2BFFFFFFFFF8000000
0039CEFEC820000000
ENDCHAR
STARTCHAR uni01F8
ENCODING 504
SWIDTH 600 0
DWIDTH 19 0
BBX 19 28 0 0
BITMAP
0000000004A000000000
000000003FF800000000
000000000AFF50000000
0000000000AFF3000000
00000000000AFD100000
000000000000A6000000
00000000000000000000
00002FFA00000000CF90
00005FFE00000000FF60
00008FFF50000003FF30
0000BFBF90000006FF00
0000EF5FE0000009FC00
0002FF1DF400000CF900
0005FD09F900000EF600
0008FB05FD00002FF300
000BF901EF30005FF000
000EF600AF80008FC000
002FF3005FD000BF9000
005FF1001FF300EF6000
008FD0000BF702FF3000
00BFA00006FC04FF0000
00EF700001FF17FC0000
02FF400000BF59F90000
05FF1000007F9BF60000
08FD0000002FDDF30000
0BFA0000000CFFF00000
0EF700000007FFC00000
2FF400000002FF900000
ENDCHAR
STARTCHAR uni01F9
ENCODING 505
SWIDTH 600 0
DWIDTH 19 0
BBX 16 25 1 0
BITMAP
000000002B200000
00000002EFB00000
00000000AFF50000
000000001CFE1000
0000000002EF9000
00000000005FF300
0000000000088000
0000000000000000
0000000000000000
000DF30028CFEC50
001FF107FFFFFFF4
004FF1BFA4117FFB
006FEDC300000BFD
009FFB10000009FE
00CFB00000000AFC
00FF600000000DFA
03FF300000001FF7
06FF100000003FF4
09FD000000006FF1
0CFA000000009FD0
0EF700000000CFA0
3FF400000001FF70
5FF100000003FF40
8FD000000006FF10
BFA000000009FD00
ENDCHAR
STARTCHAR Aringacute
ENCODING 506
SWIDTH 600 0
DWIDTH 19 0
BBX 18 31 -1 0
BITMAP
000000000000000040
0000000000000009F8
00000000000003CFB3
0000000000006AC900
000000000009600D50
00000000003F200CB0
00000000005F716FA0
00000000003FFFFF40
000000000006DEC400
000000000000000000
000000000009FF8000
00000000003FFFA000
0000000000BF8FC000
0000000004FC2FE000
000000000CF41FF100
000000005FB00EF300
00000000DF300DF500
00000006FB000BF600
0000001EF3000AF800
0000007FA00008FA00
000001EF200007FC00
000009F9000005FE00
00002FFFFFFFFFFF10
0000AFFFFFFFFFFF20
0003FF20000001FF40
000BF900000000FF60
004FF200000000DF80
00CFA000000000CFA0
06FF3000000000BFC0
0DFB00000000009FE0
7FF300000000008FF1
ENDCHAR
STARTCHAR aringacute
ENCODING 507
SWIDTH 600 0
DWIDTH 19 0
BBX 17 27 1 0
BITMAP
00000000000008A000
000000000001BFB100
00000000003DD50000
0000000005FFE80000
000000005FFFFF6000
00000000DE515FA000
00000001F9001FA000
00000001FC219F6000
00000000BFFFFC0000
000000002AEE910000
000000000000000000
0000016CEED9206F90
00004DFFFFFFE4AF60
0005FFE72027EEEF30
003FFC1000003EFF10
00CFD100000008FC00
05FF500000000BFA00
0BFD000000000EF700
0FF8000000002FF400
3FF5000000006FF100
4FF3000000009FD000
5FF300000000CFA000
4FF600000006FF7000
1FFC0000007FFF4000
09FFB3026CFAFF1000
01CFFFFFFE54FD0000
0017CEEC7106FA0000
ENDCHAR
STARTCHAR AEacute
ENCODING 508
SWIDTH 600 0
DWIDTH 19 0
BBX 23 28 -2 0
BITMAP
000000000000000000006900
0000000000000000002BFF40
000000000000000005EFE700
00000000000000009FF91000
00000000000000005B300000
000000000000000000000000
000000000000000000000000
0000000000008FFFFFFFFFA0
000000000002FFFFFFFFFF70
00000000000BF9FF20000000
00000000005FE5FE00000000
0000000001EF67FB00000000
0000000008FC0AF800000000
000000003FF30DF500000000
00000000CFA01FF200000000
00000006FE204FE000000000
0000001EF7007FFFFFFA0000
0000009FD1009FFFFFF70000
000003FF5000CF5000000000
00000CFB0000FF2000000000
00006FFFFFFFFE0000000000
0001EFFFFFFFFB0000000000
000AFE10000AF80000000000
004FF600000DF60000000000
00DFB000001FF30000000000
07FF3000004FE00000000000
2EF80000007FFFFFFFF30000
AFD1000000AFFFFFFFF00000
ENDCHAR
STARTCHAR aeacute
ENCODING 509
SWIDTH 600 0
DWIDTH 19 0
BBX 21 25 -1 0
BITMAP
000000000000001B300000
00000000000002DFE10000
0000000000003EFE600000
000000000005EFC2000000
00000000005FF900000000
00000000001B4000000000
0000000000000000000000
0000000000000000000000
0000000000000000000000
000039DEEA10029DFD6000
001AFFFFFFC05EFFFFF500
001ED6204DF8FE6119FB00
0003000007FFE20001FF00
0000000004FF600000DF20
0000000005FD000000EF20
00000158BEFB666666FF10
0003AFFFFFFFFFFFFFFC00
009FFEA62EF99999999500
0AFE60001FE00000000000
4FF300002FE00000000000
9FB000002FF10000000000
AFA00002CFF70000010000
8FE4138EEAFE5113AC0000
3FFFFFFC21CFFFFFFD1000
04CEEB500018DFEB600000
ENDCHAR
STARTCHAR Oslashacute
ENCODING 510
SWIDTH 600 0
DWIDTH 19 0
BBX 21 29 -1 -1
BITMAP
0000000000000003B20000
000000000000007FFA0000
0000000000002BFFA20000
000000000004EFC4000000
000000000001C600000000
0000000000000000000000
0000000000000000000810
0000000017CEFDA400AFB0
00000005EFFFFFFF98FE30
0000009FFC4113AFFFF400
000007FF7000000AFF7000
00004FF80000003EFF8000
0000CFC0000002EFEFD000
0005FF4000002DFA6FF000
000BFC000001CFB05FF100
001FF700000BFC105FF200
004FF30000AFD2006FF000
007FF00009FE20008FE000
009FD0007FF30000BFB000
00AFC006FF500001FF8000
00AFC04FF6000005FF2000
008FE3EF8000000CFC0000
006FFEF90000005FF40000
001FFFA0000002EFB00000
001EFF3000002DFD100000
00AFFFE61138EFD2000000
09FE5EFFFFFFFB10000000
3FF3018CEFDA4000000000
0450000000000000000000
ENDCHAR
STARTCHAR oslashacute
ENCODING 511
SWIDTH 600 0
DWIDTH 19 0
BBX 19 26 0 -1
BITMAP
00000000000001B30000
0000000000002DFD1000
000000000003EFE50000
00000000005FFC200000
0000000005FF80000000
0000000001B400000000
00000000000000000000
00000000000000000000
00000000000000002300
00000017BEFEB503EE20
000006EFFFFFFFBEFA00
00009FFB51139FFF9000
0008FF7000006FFF4000
003FF8000007FFEF9000
00BFD000008FF58FC000
01FF600009FE407FD000
05FF1000AFE4008FD000
07FE001BFE3000AFB000
08FD01CFD20000EF7000
06FF2DFC100006FF2000
03FFEFC100002EF90000
00DFFB100003DFD10000
04EFFC41138FFD200000
5FFBFFFFFFFFA1000000
BF8029DFED9300000000
05000000000000000000
ENDCHAR
STARTCHAR uni0218
ENCODING 536
SWIDTH 600 0
DWIDTH 19 0
BBX 16 29 1 -8
BITMAP
00000039DEEC9300
000008FFFFFFFF90
00007FFB3014AFFB
0001FFB0000006F9
0005FF3000000020
0006FF2000000000
0005FF6000000000
0001EFE400000000
00005FFF81000000
000005EFFE600000
0000002BFFFB2000
000000004CFFD200
00000000008FFC00
000000000009FF40
000000000002FF70
000000000001FF60
1A4000000005FF40
9FE50000001DFD00
1DFFA41027EFF400
01AFFFFFFFFE4000
00039CEFEB710000
0000000000000000
000007D910000000
00000CFFB0000000
0000017FF1000000
0000002FF0000000
000025CFA0000000
000BFFFC10000000
000BDA5000000000
ENDCHAR
STARTCHAR uni0219
ENCODING 537
SWIDTH 600 0
DWIDTH 19 0
BBX 16 24 1 -8
BITMAP
000004ADFEDA4000
0000AFFFFFFFFC30
0007FF820149EFE2
000CF90000002B90
000DF80000000000
000BFE4000000000
0003EFFB50000000
00003CFFFE930000
0000004AFFFF9000
0000000016DFF900
000000000009FF10
013000000003FF30
0BE500000005FF10
1BFFC621127EFA00
008EFFFFFFFFB100
00017BDFECA50000
0000000000000000
000006D920000000
00000CFFC0000000
0000017FF1000000
0000001FF0000000
000025CFA0000000
000BFFFC10000000
000ADA6000000000
ENDCHAR
STARTCHAR uni021A
ENCODING 538
SWIDTH 600 0
DWIDTH 19 0
BBX 17 29 3 -8
BITMAP
8FFFFFFFFFFFFFFFD0
BFFFFFFFFFFFFFFFA0
0000000FF700000000
0000003FF400000000
0000006FF100000000
0000009FD000000000
000000CFA000000000
000000FF7000000000
000003FF4000000000
000006FF1000000000
000009FE0000000000
00000CFB0000000000
00000EF80000000000
00003FF50000000000
00006FF20000000000
00009FE00000000000
0000CFB00000000000
0000EF800000000000
0002FF500000000000
0005FF200000000000
0008FE000000000000
000000000000000000
004EA3000000000000
009FFE100000000000
0015FF300000000000
0000DF300000000000
014BFC000000000000
8FFFD2000000000000
8DB710000000000000
ENDCHAR
STARTCHAR uni021B
ENCODING 539
SWIDTH 600 0
DWIDTH 19 0
BBX 16 29 2 -8
BITMAP
0000006FA0000000
000000AF70000000
000000EF40000000
000003FF10000000
000007FD00000000
5DEEFFFFFFFFFFF5
8FFFFFFFFFFFFFF1
00003FF300000000
00007FF000000000
0000AFC000000000
0000DF9000000000
0001FF6000000000
0004FF3000000000
0007FE0000000000
000AFC0000000000
000CF90000000000
000DFA0000000000
000CFD0000000000
0008FFA2015BC000
0001DFFFFFFFE200
000029DFEDA61000
0000000000000000
000000DB50000000
000004FFF5000000
0000003CF9000000
00000008F8000000
0000138FF3000000
0003FFFF60000000
0003EC8200000000
ENDCHAR
STARTCHAR uni0237
ENCODING 567
SWIDTH 600 0
DWIDTH 19 0
BBX 16 23 -1 -7
BITMAP
000007FFFFFFFFF2
00000BFFFFFFFFE0
000000000000BFB0
000000000000EF80
000000000002FF50
000000000005FF20
000000000008FE00
00000000000BFB00
00000000000EF800
00000000002FF500
00000000005FF200
00000000008FE000
0000000000AFC000
0000000000DF9000
0000000001FF6000
0000000004FF3000
0000000007FE0000
000000000CFB0000
000000003FF60000
00000000CFE10000
1D93014BFF500000
5FFFFFFFF7000000
039DFED930000000
ENDCHAR
STARTCHAR uni0243
ENCODING 579
SWIDTH 600 0
DWIDTH 19 0
BBX 18 21 0 0
BITMAP
000008FFFFFFDB6100
00000BFFFFFFFFFD30
00000EF8000149FFE1
00002FF50000007FF5
00005FF20000002FF7
00008FE00000002FF6
0000BFB00000006FF2
0000EF80000001DF90
0002FF5000137EFA00
0005FFFFFFFFFB5000
0008FFFFFFFFEA4000
000BFC0000249FF800
000DF900000005FF50
001FF600000000DF90
9EFFFFFFFF0000CFA0
EFFFFFFFFC0000EF90
00AFC000000004FF50
00DF800000002DFD00
01FF50000249EFE300
05FFFFFFFFFFFB3000
08FFFFFFEDB8300000
ENDCHAR
STARTCHAR uni0250
ENCODING 592
SWIDTH 600 0
DWIDTH 19 0
BBX 15 16 2 0
BITMAP
00FF1005BDFDA200
03FE05DFFFFFFF40
06FD8FD72116FFB0
09FFF70000009FD0
0CFE300000009FC0
0EF700000002EF80
2FF40000016EFD10
5FF12358BEFFC200
8FFFFFFFFFB50000
BFFEDB9741000000
DF90000000000000
EF70000000000000
DFB00000003B2000
9FF820137CFF8000
1DFFFFFFFFD71000
018DFFDC84000000
ENDCHAR
STARTCHAR uni0251
ENCODING 593
SWIDTH 600 0
DWIDTH 19 0
BBX 17 16 1 0
BITMAP
0000016CEED9206F90
00004DFFFFFFE4AF60
0005FFE72027EEEF30
003FFC1000003EFF10
00CFD100000008FC00
05FF500000000BFA00
0BFD000000000EF700
0FF8000000002FF400
3FF5000000005FF100
4FF3000000008FD000
5FF300000000BFA000
4FF600000003EF7000
1FFC0000005EFF4000
09FFB3015BFAFF1000
01CFFFFFFE54FD0000
0017CEEC7106FA0000
ENDCHAR
STARTCHAR uni0252
ENCODING 594
SWIDTH 600 0
DWIDTH 19 0
BBX 17 16 1 0
BITMAP
000DF3017CEEB50000
001FF25EFFFFFF9000
004FF9FB5114DFF500
006FFE5000002EFC00
009FE300000009FF10
00CFA000000006FF20
00FF6000000005FF20
03FF3000000007FF10
06FF1000000009FE00
09FC000000000DFA00
0CF9000000005FF400
0EF700000001EFC000
3FFE2000002CFF3000
5FEFE62027EFF50000
8F86FFFFFFFD400000
BF4029DFEB61000000
ENDCHAR
STARTCHAR uni0253
ENCODING 595
SWIDTH 600 0
DWIDTH 19 0
BBX 17 23 1 0
BITMAP
00000018CEED810000
000003EFFFFFD00000
00001EFD5114400000
00009FE10000000000
0001EF700000000000
0004FF200000000000
0008FD000000000000
000BF9017CEEB50000
000EF56EFFFFFF9000
002FFBFA4114DFF600
005FFD4000002EFC00
008FD100000009FF10
00BF9000000006FF20
00EF6000000005FF20
02FF3000000007FF10
05FF0000000009FE00
08FC000000000EFA00
0BF9000000005FF400
0EF700000001EFC000
2FFE2000001CFF2000
5FEFE72027EFF50000
8F95EFFFFFFD400000
BF5029DFEB61000000
ENDCHAR
STARTCHAR uni0254
ENCODING 596
SWIDTH 600 0
DWIDTH 19 0
BBX 17 16 0 0
BITMAP
0000028CEFEB710000
00008FFFFFFFFE4000
0009FF931038FFE300
0002B20000004FFB00
00000000000009FF20
00000000000004FF50
00000000000002FF60
00000000000003FF50
00000000000005FF30
00000000000009FE00
0000000000002FF900
000000000000BFE100
05C20000001BFF6000
1DFE720138EFF70000
02CFFFFFFFFC400000
0005BDFEC940000000
ENDCHAR
STARTCHAR uni0255
ENCODING 597
SWIDTH 600 0
DWIDTH 19 0
BBX 17 19 1 -3
BITMAP
00000027BEFDB50000
000008FFFFFFFFC200
0001CFFB51026DFE20
000CFF50000001B900
007FF5000000000000
01EF80000000000000
06FF10000000000000
0AFB00000000000000
0CF900000000000000
0DF800016BEED70000
0BFB005DFFFFFF6000
07FF28FFA4119FA000
01EFEFD300007F9000
005FFF831128FF3000
007FFFFFFFFFF60000
03FF46BDFEC8200000
0CF800000000000000
7FD000000000000000
4B5000000000000000
ENDCHAR
STARTCHAR uni0256
ENCODING 598
SWIDTH 600 0
DWIDTH 19 0
BBX 19 30 1 -7
BITMAP
0000000000000005FF20
0000000000000008FE00
000000000000000BFB00
000000000000000EF800
000000000000002FF500
000000000000005FF200
000000000000008FE000
0000016CEED920BFB000
00004DFFFFFFE4DF9000
0005FFE72027EEFF6000
003FFC1000002EFF3000
00CFD100000009FF0000
05FF500000000BFC0000
0BFD000000000EF90000
0FF8000000002FF60000
3FF5000000005FF30000
4FF3000000008FF10000
5FF300000000BFD00000
4FF600000002EFA00000
1FFC0000005EFF700000
09FFB3015BFCFF400000
01CFFFFFFD49FF100000
0017CEEC710CFD000000
00000000000EFA000000
00000000002FF7000000
00000000004FF5000000
00000000005FF3000000
00000000004FF6110000
00000000001EFFF80000
000000000005DFD50000
ENDCHAR
STARTCHAR uni0257
ENCODING 599
SWIDTH 600 0
DWIDTH 19 0
BBX 22 23 1 0
BITMAP
000000000000000018DFE3
0000000000000000CFFFC0
0000000000000006FF5110
000000000000000CFA0000
000000000000001FF50000
000000000000004FF20000
000000000000007FE00000
0000016CEED920AFB00000
00004DFFFFFFE4DF800000
0005FFE72027EEFF500000
003FFC1000002EFF200000
00CFD100000009FE000000
05FF500000000BFB000000
0BFD000000000EF8000000
0FF8000000002FF5000000
3FF5000000005FF2000000
4FF3000000008FE0000000
5FF300000000BFB0000000
4FF600000003EF80000000
1FFC0000006EFF40000000
09FFB3015BFAFF10000000
01CFFFFFFD44FD00000000
0017CEEC7106FA00000000
ENDCHAR
STARTCHAR uni0258
ENCODING 600
SWIDTH 600 0
DWIDTH 19 0
BBX 15 16 2 0
BITMAP
000016BDFEB60000
0004DFFFFFFFC100
005FFC51039FFB00
03FF90000008FF50
0BFB00000000EFA0
3FF200000000AFC0
7FB0000000009FD0
9FFFFFFFFFFFFFC0
9FFFFFFFFFFFFFB0
000000000000EF70
000000000005FF30
00000000001DFA00
2910000002CFE200
CFD620138EFE4000
3DFFFFFFFFC20000
006BDFED94000000
ENDCHAR
STARTCHAR uni0259
ENCODING 601
SWIDTH 600 0
DWIDTH 19 0
BBX 16 16 1 0
BITMAP
0000048CEFEC7100
0004CFFFFFFFFE30
000AFD731028FFE1
0002600000005FF7
0000000000000CFC
00000000000008FE
00000000000007FE
0EFFFFFFFFFFFFFD
2FFFFFFFFFFFFFFC
4FF0000000000EF8
4FF0000000006FF3
2FF200000002EFA0
0DFA0000002DFE20
06FFB41138EFE300
008FFFFFFFFB2000
0004ADFED9400000
ENDCHAR
STARTCHAR uni025A
ENCODING 602
SWIDTH 600 0
DWIDTH 19 0
BBX 21 16 -1 0
BITMAP
000016ADFEC70000000000
0004EFFFFFFFC100000000
0003FA4113AFFA00000000
00002000000BFF11771000
000000000005FFCFFF4000
000000000039FFFCBF4000
000000016CFFFF706F8130
000004AFFFA6FF402FFFE0
0028EFFC6105FF1007ED70
1CFFD820000AFC00000000
2FF50000001EF600000000
1FF30000008FD100000000
0DFA000005FF5000000000
06FF93128FF70000000000
00AFFFFFFE600000000000
0006BEFD82000000000000
ENDCHAR
STARTCHAR uni025B
ENCODING 603
SWIDTH 600 0
DWIDTH 19 0
BBX 16 16 1 0
BITMAP
0000028CEFEC9400
00007FFFFFFFFFB2
0006FFC520149FFD
000EFC00000002C5
001FF70000000000
000EFA0000000000
0006FF8200000000
00004EFFFFF60000
002AEFFFFFF30000
04FF942000000000
1EF7000000000000
4FF4000000000000
3FFA000000003500
0CFFC520126BFD00
02CFFFFFFFFFE600
0005ADFFEDA61000
ENDCHAR
STARTCHAR uni025C
ENCODING 604
SWIDTH 600 0
DWIDTH 19 0
BBX 16 16 1 0
BITMAP
0000159CEFDC8200
0007EFFFFFFFFE50
000AFB631127EFE1
0002300000005FF5
0000000000003FF4
0000000000008FE1
00000000025BFE40
000005FFFFFE7100
000007FFFFFFC300
00000000025CFE20
000000000001EF90
000000000000DFA0
0AB200000005FF70
4FFE941014AFFC10
04DFFFFFFFFFB100
00059CEFEC940000
ENDCHAR
STARTCHAR uni025E
ENCODING 606
SWIDTH 600 0
DWIDTH 19 0
BBX 16 16 1 0
BITMAP
0000006ADEEC9300
00005DFFFFFFFF90
0008FFD72115DFF5
007FFA1000002FF9
03FFA00000000EF9
0BFE100000004FF4
1FF700000149FF80
5FF30004FFFFB300
7FF00007FFFFD600
8FF00000014AFF60
6FF200000000BFD0
2FF8000000009FE0
0BFF40000002EFB0
02EFF931137EFE30
003DFFFFFFFFD300
00006BEFEDA50000
ENDCHAR
STARTCHAR uni025F
ENCODING 607
SWIDTH 600 0
DWIDTH 19 0
BBX 19 23 -1 -7
BITMAP
000007FFFFFFFFF20000
00000BFFFFFFFFE00000
000000000000BFB00000
000000000000EF800000
000000000002FF500000
000000000005FF200000
000000000008FE000000
00000ADDEEFFFFFFFFB0
00000FFFFFFFFFFFFF90
00000000002FF5000000
00000000005FF2000000
00000000008FE0000000
0000000000AFC0000000
0000000000DF90000000
0000000001FF60000000
0000000004FF30000000
0000000007FE00000000
000000000CFB00000000
000000003FF600000000
00000000CFE100000000
1D93014BFF5000000000
5FFFFFFFF70000000000
039DFED9300000000000
ENDCHAR
STARTCHAR uni0260
ENCODING 608
SWIDTH 600 0
DWIDTH 19 0
BBX 22 27 0 -7
BITMAP
000000000000000005CEE7
00000000000000005FFFF3
0000000000000001EFA110
0000000000000006FF1000
00000016BEED920AFB0000
000003DFFFFFFE4DF70000
00004FFE72028FEFF40000
0002EFC2000003EFF10000
000BFE100000009FD00000
003FF600000000BFA00000
009FD000000000EF700000
00DF9000000002FF400000
01FF6000000005FF100000
03FF5000000008FD000000
03FF500000000BFA000000
02FF800000002EF8000000
00DFD1000003DFF5000000
007FFC4014AFCFF2000000
000AFFFFFFE76FE0000000
00006CEED8209FB0000000
000000000000CF80000000
000000000002FF40000000
000000000008FE00000000
05200000005FF700000000
2EE941025BFFB000000000
2BFFFFFFFFF90000000000
0039CEFEC9300000000000
ENDCHAR
STARTCHAR uni0261
ENCODING 609
SWIDTH 600 0
DWIDTH 19 0
BBX 18 23 0 -7
BITMAP
00000016BEED9206F9
000004DFFFFFFE4AF6
00005FFE72028FEEF3
0002FFC2000004FFF0
000CFE100000009FC0
004FF500000000BF90
00AFD000000000EF60
00EF9000000002FF40
02FF6000000005FF10
03FF5000000008FD00
03FF500000000BFA00
02FF800000003EF700
00DFE1000005EFF400
006FFD5236BFBFF100
0009FFFFFFE56FD000
00004ADDB6109FA000
000000000000DF7000
000000000002FF3000
000000000009FD0000
05200000005FF60000
2EE941025BFFA00000
2BFFFFFFFFF8000000
0039CEFEC820000000
ENDCHAR
STARTCHAR uni0262
ENCODING 610
SWIDTH 600 0
DWIDTH 19 0
BBX 16 16 2 0
BITMAP
0000038CEFEB6000
0001AFFFFFFFFD30
003DFFA41027EFE1
01DFE40000001C50
0AFE300000000000
3FF7000000000000
8FE1000000000000
CFA0000000000000
EF800000EFFFFF50
FF800002FFFFFF10
EFA000000004FD00
AFE100000008FA00
4FFA0000000CF700
09FFB410249FF400
009FFFFFFFFFA000
00039DFFDB720000
ENDCHAR
STARTCHAR uni0263
ENCODING 611
SWIDTH 600 0
DWIDTH 19 0
BBX 17 23 2 -7
BITMAP
1FF60000000003FF50
0DF9000000000CFA00
09FD000000006FE100
05FF10000002EF6000
01FF5000000AFC0000
00CF8000004FF20000
008FC00001DF800000
004FF10008FD000000
001FF4003FF4000000
000CF700BF90000000
0008FA05FE10000000
0004FE1DF500000000
0000EFBFB000000000
0000BFFE2000000000
0001DFFC0000000000
0009FAFF2000000000
003FD1CF5000000000
00BF60AF7000000000
02FE009F9000000000
06FA00BF7000000000
06FC15FF2000000000
03FFFFF90000000000
006DFD700000000000
ENDCHAR
STARTCHAR uni0264
ENCODING 612
SWIDTH 600 0
DWIDTH 19 0
BBX 16 16 3 0
BITMAP
6CEE9200017CEDA1
AFFFFE304DFFFFA0
3216FFE8FFC41320
00004FFFF8000000
00003EFFE1000000
0004EFBFF9000000
003FF808FF300000
02EF8001DFA00000
0CFB00007FF00000
5FF200004FF20000
AFA000004FF10000
DF8000008FD00000
DFA00002EF800000
AFF6115EFD100000
2EFFFFFFC2000000
02AEFEB600000000
ENDCHAR
STARTCHAR uni0265
ENCODING 613
SWIDTH 600 0
DWIDTH 19 0
BBX 17 23 1 -7
BITMAP
002FF500000000EF70
005FF200000002FF50
008FE000000005FF20
00BFB000000008FE00
00EF800000000BFB00
02FF500000000EF800
05FF200000002FF500
08FE000000005FF200
0BFB000000007FE000
0EF800000000AFB000
1FF600000001EF9000
3FF50000002DFF6000
2FF7000005ECFF3000
0EFE4125BF87FF0000
08FFFFFFD40AFC0000
007DFEC6100DF90000
00000000001FF60000
00000000004FF30000
00000000007FF10000
00000000009FC00000
0000000000CFA00000
0000000000FF700000
0000000003FF400000
ENDCHAR
STARTCHAR uni0266
ENCODING 614
SWIDTH 600 0
DWIDTH 19 0
BBX 16 23 1 0
BITMAP
00000018CEED8100
000003EFFFFFD000
00001EFD52144000
00008FE200000000
0000EF7000000000
0004FF2000000000
0008FD0000000000
000BFA0018CFEB40
000EF607FFFFFFF3
002FF3BF93117FFA
005FFCC200000BFC
008FFA00000009FD
00BFB00000000AFC
00EF600000000DF9
02FF300000001FF6
05FF000000004FF3
08FC000000007FF1
0BF900000000AFC0
0EF600000000DFA0
2FF400000001FF70
5FF100000003FF40
8FD000000006FF10
BFA000000009FD00
ENDCHAR
STARTCHAR uni0267
ENCODING 615
SWIDTH 600 0
DWIDTH 19 0
BBX 16 30 1 -7
BITMAP
00000018CEED8100
000003EFFFFFD000
00001EFD52144000
00008FE200000000
0000EF7000000000
0004FF2000000000
0008FD0000000000
000BFA0018CFEB40
000EF607FFFFFFF2
002FF3BF93117FF9
005FFCC200000CFC
008FFA00000009FD
00BFB00000000AFC
00EF600000000CFA
02FF300000000FF7
05FF000000002FF5
08FC000000005FF2
0BF9000000008FE0
0EF600000000BFB0
2FF400000000EF80
5FF100000001FF50
8FD000000004FF30
BFA000000007FF00
00000000000AFC00
00000000000CF900
00000000001FF600
00000000006FF200
0000000313DFA000
0000001FFFFE2000
0000003CEEB30000
ENDCHAR
STARTCHAR uni0268
ENCODING 616
SWIDTH 600 0
DWIDTH 19 0
BBX 14 23 2 0
BITMAP
00000002BE9000
0000000AFFF200
0000000CFFF100
00000005ED5000
00000000000000
00000000000000
00000000000000
05FFFFFFFB0000
09FFFFFFF80000
0000001FF40000
0000005FF10000
0000009FC00000
000000DF800000
1DEEEFFFFFFFF7
3FFFFFFFFFFFF4
000007FE000000
00000BFB000000
00000EF8000000
00001FF6000000
00001FF9000000
00000CFF5125A0
000005FFFFFFF3
0000004BEFDA50
ENDCHAR
STARTCHAR uni026A
ENCODING 618
SWIDTH 600 0
DWIDTH 19 0
BBX 17 16 1 0
BITMAP
000BFFFFFFFFFFFF10
000EFFFFFFFFFFFD00
00000001FF70000000
00000004FF40000000
00000007FF20000000
0000000AFE00000000
0000000CFB00000000
0000000FF800000000
0000003FF500000000
0000006FF200000000
0000009FE000000000
000000CFC000000000
000000EF9000000000
000002FF6000000000
6FFFFFFFFFFFF50000
9FFFFFFFFFFFF20000
ENDCHAR
STARTCHAR uni026B
ENCODING 619
SWIDTH 600 0
DWIDTH 19 0
BBX 13 23 3 0
BITMAP
03FFFFFFF60000
06FFFFFFF30000
0000006FF00000
0000009FC00000
000000DF800000
000001FF500000
000004FF200000
000007FE000000
018CBEFB005920
0AFFFFF800CF10
4FC37FFC16FA00
9F305FFFFFF300
AB008FFBFD5000
0000BFA0000000
0000EF70000000
0003FF40000000
0006FF10000000
0009FD00000000
000BFB00000000
000BFD00000000
0008FF81139300
0001DFFFFFF800
000029EFDB7100
ENDCHAR
ENDFONT
